<svg xmlns="http://www.w3.org/2000/svg" version="1.1" xmlns:xlink="http://www.w3.org/1999/xlink" xmlns:svgjs="http://svgjs.com/svgjs" width="300" height="300" preserveAspectRatio="none" viewBox="0 0 300 300"><g mask="url(&quot;#SvgjsMask3810&quot;)" fill="none"><rect width="300" height="300" x="0" y="0" fill="url(#SvgjsLinearGradient3811)"></rect><g mask="url(&quot;#SvgjsMask3812&quot;)"><path d="M145 155L155 165L155 175L155 185M135 235L125 245M155 135L155 145L155 155L165 165L175 175M135 195L125 205L115 215L115 225L115 235L115 245L115 255M135 205L145 215L145 225L145 235L145 245L145 255M145 165L135 175L135 185L125 195M155 -5L155 5L155 15L155 25L155 35L155 45L155 55L155 65L155 75L155 85L155 95L155 105L155 115L155 125L155 135L145 145L145 155L145 165L145 175L145 185L135 195L135 205L135 215L135 225L135 235L135 245" stroke="rgba(255, 0, 137, 1)" stroke-width="1.67"></path><path d="M132.5 245 a2.5 2.5 0 1 0 5 0 a2.5 2.5 0 1 0 -5 0zM152.5 185 a2.5 2.5 0 1 0 5 0 a2.5 2.5 0 1 0 -5 0zM122.5 245 a2.5 2.5 0 1 0 5 0 a2.5 2.5 0 1 0 -5 0zM172.5 175 a2.5 2.5 0 1 0 5 0 a2.5 2.5 0 1 0 -5 0zM112.5 255 a2.5 2.5 0 1 0 5 0 a2.5 2.5 0 1 0 -5 0zM142.5 255 a2.5 2.5 0 1 0 5 0 a2.5 2.5 0 1 0 -5 0zM122.5 195 a2.5 2.5 0 1 0 5 0 a2.5 2.5 0 1 0 -5 0z" fill="rgba(255, 0, 137, 1)"></path><path d="M145 105L135 115M145 95L135 105M145 85L135 95M145 -5L145 5L145 15L145 25L145 35L145 45L145 55L145 65L145 75L145 85L145 95L145 105L145 115" stroke="rgba(255, 38, 38, 1)" stroke-width="1.67"></path><path d="M142.5 115 a2.5 2.5 0 1 0 5 0 a2.5 2.5 0 1 0 -5 0zM132.5 115 a2.5 2.5 0 1 0 5 0 a2.5 2.5 0 1 0 -5 0zM132.5 105 a2.5 2.5 0 1 0 5 0 a2.5 2.5 0 1 0 -5 0zM132.5 95 a2.5 2.5 0 1 0 5 0 a2.5 2.5 0 1 0 -5 0z" fill="rgba(255, 38, 38, 1)"></path><path d="M165 45L175 55L175 65L175 75M165 85L175 95L175 105L175 115M165 15L175 25L175 35L175 45L185 55M165 -5L165 5L165 15L165 25L165 35L165 45L165 55L165 65L165 75L165 85L165 95L165 105L165 115" stroke="rgba(255, 38, 38, 1)" stroke-width="1.67"></path><path d="M162.5 115 a2.5 2.5 0 1 0 5 0 a2.5 2.5 0 1 0 -5 0zM172.5 75 a2.5 2.5 0 1 0 5 0 a2.5 2.5 0 1 0 -5 0zM172.5 115 a2.5 2.5 0 1 0 5 0 a2.5 2.5 0 1 0 -5 0zM182.5 55 a2.5 2.5 0 1 0 5 0 a2.5 2.5 0 1 0 -5 0z" fill="rgba(255, 38, 38, 1)"></path><path d="M135 -5L135 5L135 15L135 25L135 35L135 45L135 55L135 65L135 75" stroke="rgba(255, 38, 38, 1)" stroke-width="1.67"></path><path d="M132.5 75 a2.5 2.5 0 1 0 5 0 a2.5 2.5 0 1 0 -5 0z" fill="rgba(255, 38, 38, 1)"></path><path d="M185 35L185 45M175 5L175 15M175 -5L175 5L185 15L185 25L185 35L195 45L195 55L195 65" stroke="rgba(255, 38, 38, 1)" stroke-width="1.67"></path><path d="M192.5 65 a2.5 2.5 0 1 0 5 0 a2.5 2.5 0 1 0 -5 0zM182.5 45 a2.5 2.5 0 1 0 5 0 a2.5 2.5 0 1 0 -5 0zM172.5 15 a2.5 2.5 0 1 0 5 0 a2.5 2.5 0 1 0 -5 0z" fill="rgba(255, 38, 38, 1)"></path><path d="M115 155L125 165L125 175L125 185M115 135L125 145L125 155L135 165M115 125L125 135L135 145L135 155M115 175L105 185M115 165L105 175M125 -5L125 5L125 15L125 25L125 35L125 45L125 55L125 65L125 75L125 85L125 95L125 105L115 115L115 125L115 135L115 145L115 155L115 165L115 175L115 185L115 195L115 205" stroke="rgba(40, 255, 251, 1)" stroke-width="1.67"></path><path d="M112.5 205 a2.5 2.5 0 1 0 5 0 a2.5 2.5 0 1 0 -5 0zM122.5 185 a2.5 2.5 0 1 0 5 0 a2.5 2.5 0 1 0 -5 0zM132.5 165 a2.5 2.5 0 1 0 5 0 a2.5 2.5 0 1 0 -5 0zM132.5 155 a2.5 2.5 0 1 0 5 0 a2.5 2.5 0 1 0 -5 0zM102.5 185 a2.5 2.5 0 1 0 5 0 a2.5 2.5 0 1 0 -5 0zM102.5 175 a2.5 2.5 0 1 0 5 0 a2.5 2.5 0 1 0 -5 0z" fill="rgba(40, 255, 251, 1)"></path><path d="M205 65L215 75L215 85L215 95L215 105L215 115L215 125M205 55L215 65M205 155L195 165M205 165L215 175L215 185M205 75L195 85M185 -5L185 5L195 15L195 25L195 35L205 45L205 55L205 65L205 75L205 85L205 95L205 105L205 115L205 125L205 135L205 145L205 155L205 165L205 175L205 185L215 195" stroke="rgba(255, 38, 38, 1)" stroke-width="1.67"></path><path d="M212.5 195 a2.5 2.5 0 1 0 5 0 a2.5 2.5 0 1 0 -5 0zM212.5 125 a2.5 2.5 0 1 0 5 0 a2.5 2.5 0 1 0 -5 0zM212.5 65 a2.5 2.5 0 1 0 5 0 a2.5 2.5 0 1 0 -5 0zM192.5 165 a2.5 2.5 0 1 0 5 0 a2.5 2.5 0 1 0 -5 0zM212.5 185 a2.5 2.5 0 1 0 5 0 a2.5 2.5 0 1 0 -5 0zM192.5 85 a2.5 2.5 0 1 0 5 0 a2.5 2.5 0 1 0 -5 0z" fill="rgba(255, 38, 38, 1)"></path><path d="M95 75L105 85M95 145L105 155L105 165M95 135L105 145M105 35L105 45L105 55L105 65M95 125L105 135M115 -5L115 5L115 15L115 25L105 35L95 45L95 55L95 65L95 75L95 85L95 95L95 105L95 115L95 125L95 135L95 145L95 155L95 165L95 175L95 185" stroke="rgba(255, 38, 38, 1)" stroke-width="1.67"></path><path d="M92.5 185 a2.5 2.5 0 1 0 5 0 a2.5 2.5 0 1 0 -5 0zM102.5 85 a2.5 2.5 0 1 0 5 0 a2.5 2.5 0 1 0 -5 0zM102.5 165 a2.5 2.5 0 1 0 5 0 a2.5 2.5 0 1 0 -5 0zM102.5 145 a2.5 2.5 0 1 0 5 0 a2.5 2.5 0 1 0 -5 0zM102.5 65 a2.5 2.5 0 1 0 5 0 a2.5 2.5 0 1 0 -5 0zM102.5 135 a2.5 2.5 0 1 0 5 0 a2.5 2.5 0 1 0 -5 0z" fill="rgba(255, 38, 38, 1)"></path><path d="M215 45L215 55M195 -5L195 5L205 15L205 25L205 35L215 45L225 55L225 65L225 75" stroke="rgba(40, 255, 251, 1)" stroke-width="1.67"></path><path d="M222.5 75 a2.5 2.5 0 1 0 5 0 a2.5 2.5 0 1 0 -5 0zM212.5 55 a2.5 2.5 0 1 0 5 0 a2.5 2.5 0 1 0 -5 0z" fill="rgba(40, 255, 251, 1)"></path><path d="M105 -5L105 5L105 15L105 25L95 35L85 45L85 55L85 65L85 75L85 85L85 95L85 105L85 115L85 125L85 135L85 145L85 155L85 165" stroke="rgba(255, 0, 137, 1)" stroke-width="1.67"></path><path d="M82.5 165 a2.5 2.5 0 1 0 5 0 a2.5 2.5 0 1 0 -5 0z" fill="rgba(255, 0, 137, 1)"></path><path d="M235 85L225 95L225 105M235 165L225 175M225 135L235 145L245 155L245 165M225 125L235 135L245 145L255 155M235 185L225 195L225 205L225 215M205 -5L205 5L215 15L215 25L215 35L225 45L235 55L235 65L235 75L235 85L235 95L235 105L225 115L225 125L225 135L225 145L235 155L235 165L235 175L235 185L235 195L235 205" stroke="rgba(255, 38, 38, 1)" stroke-width="1.67"></path><path d="M232.5 205 a2.5 2.5 0 1 0 5 0 a2.5 2.5 0 1 0 -5 0zM222.5 105 a2.5 2.5 0 1 0 5 0 a2.5 2.5 0 1 0 -5 0zM222.5 175 a2.5 2.5 0 1 0 5 0 a2.5 2.5 0 1 0 -5 0zM242.5 165 a2.5 2.5 0 1 0 5 0 a2.5 2.5 0 1 0 -5 0zM252.5 155 a2.5 2.5 0 1 0 5 0 a2.5 2.5 0 1 0 -5 0zM222.5 215 a2.5 2.5 0 1 0 5 0 a2.5 2.5 0 1 0 -5 0z" fill="rgba(255, 38, 38, 1)"></path><path d="M75 75L65 85L65 95M75 165L75 175L75 185L75 195L75 205L75 215L75 225L75 235M65 185L55 195L55 205L55 215L55 225M75 105L65 115L65 125L65 135M75 155L65 165M95 -5L95 5L95 15L95 25L85 35L75 45L75 55L75 65L75 75L75 85L75 95L75 105L75 115L75 125L75 135L75 145L75 155L75 165L65 175L65 185L65 195" stroke="rgba(255, 38, 38, 1)" stroke-width="1.67"></path><path d="M62.5 195 a2.5 2.5 0 1 0 5 0 a2.5 2.5 0 1 0 -5 0zM62.5 95 a2.5 2.5 0 1 0 5 0 a2.5 2.5 0 1 0 -5 0zM72.5 235 a2.5 2.5 0 1 0 5 0 a2.5 2.5 0 1 0 -5 0zM52.5 225 a2.5 2.5 0 1 0 5 0 a2.5 2.5 0 1 0 -5 0zM62.5 135 a2.5 2.5 0 1 0 5 0 a2.5 2.5 0 1 0 -5 0zM62.5 165 a2.5 2.5 0 1 0 5 0 a2.5 2.5 0 1 0 -5 0z" fill="rgba(255, 38, 38, 1)"></path><path d="M225 25L235 35L245 45L245 55M225 15L235 25M215 -5L215 5L225 15L225 25L225 35L235 45" stroke="rgba(255, 0, 137, 1)" stroke-width="1.67"></path><path d="M232.5 45 a2.5 2.5 0 1 0 5 0 a2.5 2.5 0 1 0 -5 0zM242.5 55 a2.5 2.5 0 1 0 5 0 a2.5 2.5 0 1 0 -5 0zM232.5 25 a2.5 2.5 0 1 0 5 0 a2.5 2.5 0 1 0 -5 0z" fill="rgba(255, 0, 137, 1)"></path><path d="M85 5L75 15L75 25L75 35L65 45M85 -5L85 5L85 15" stroke="rgba(85, 255, 0, 1)" stroke-width="1.67"></path><path d="M82.5 15 a2.5 2.5 0 1 0 5 0 a2.5 2.5 0 1 0 -5 0zM62.5 45 a2.5 2.5 0 1 0 5 0 a2.5 2.5 0 1 0 -5 0z" fill="rgba(85, 255, 0, 1)"></path></g></g><defs><mask id="SvgjsMask3810"><rect width="300" height="300" fill="#ffffff"></rect></mask><linearGradient x1="0%" y1="0%" x2="100%" y2="100%" gradientUnits="userSpaceOnUse" id="SvgjsLinearGradient3811"><stop stop-color="rgba(211, 0, 0, 1)" offset="0"></stop><stop stop-color="rgba(3, 14, 140, 1)" offset="0.82"></stop></linearGradient><mask id="SvgjsMask3812"><rect width="300" height="300" fill="white"></rect><path d="M133.75 245 a1.25 1.25 0 1 0 2.5 0 a1.25 1.25 0 1 0 -2.5 0zM153.75 185 a1.25 1.25 0 1 0 2.5 0 a1.25 1.25 0 1 0 -2.5 0zM123.75 245 a1.25 1.25 0 1 0 2.5 0 a1.25 1.25 0 1 0 -2.5 0zM173.75 175 a1.25 1.25 0 1 0 2.5 0 a1.25 1.25 0 1 0 -2.5 0zM113.75 255 a1.25 1.25 0 1 0 2.5 0 a1.25 1.25 0 1 0 -2.5 0zM143.75 255 a1.25 1.25 0 1 0 2.5 0 a1.25 1.25 0 1 0 -2.5 0zM123.75 195 a1.25 1.25 0 1 0 2.5 0 a1.25 1.25 0 1 0 -2.5 0z" fill="black"></path><path d="M143.75 115 a1.25 1.25 0 1 0 2.5 0 a1.25 1.25 0 1 0 -2.5 0zM133.75 115 a1.25 1.25 0 1 0 2.5 0 a1.25 1.25 0 1 0 -2.5 0zM133.75 105 a1.25 1.25 0 1 0 2.5 0 a1.25 1.25 0 1 0 -2.5 0zM133.75 95 a1.25 1.25 0 1 0 2.5 0 a1.25 1.25 0 1 0 -2.5 0z" fill="black"></path><path d="M163.75 115 a1.25 1.25 0 1 0 2.5 0 a1.25 1.25 0 1 0 -2.5 0zM173.75 75 a1.25 1.25 0 1 0 2.5 0 a1.25 1.25 0 1 0 -2.5 0zM173.75 115 a1.25 1.25 0 1 0 2.5 0 a1.25 1.25 0 1 0 -2.5 0zM183.75 55 a1.25 1.25 0 1 0 2.5 0 a1.25 1.25 0 1 0 -2.5 0z" fill="black"></path><path d="M133.75 75 a1.25 1.25 0 1 0 2.5 0 a1.25 1.25 0 1 0 -2.5 0z" fill="black"></path><path d="M193.75 65 a1.25 1.25 0 1 0 2.5 0 a1.25 1.25 0 1 0 -2.5 0zM183.75 45 a1.25 1.25 0 1 0 2.5 0 a1.25 1.25 0 1 0 -2.5 0zM173.75 15 a1.25 1.25 0 1 0 2.5 0 a1.25 1.25 0 1 0 -2.5 0z" fill="black"></path><path d="M113.75 205 a1.25 1.25 0 1 0 2.5 0 a1.25 1.25 0 1 0 -2.5 0zM123.75 185 a1.25 1.25 0 1 0 2.5 0 a1.25 1.25 0 1 0 -2.5 0zM133.75 165 a1.25 1.25 0 1 0 2.5 0 a1.25 1.25 0 1 0 -2.5 0zM133.75 155 a1.25 1.25 0 1 0 2.5 0 a1.25 1.25 0 1 0 -2.5 0zM103.75 185 a1.25 1.25 0 1 0 2.5 0 a1.25 1.25 0 1 0 -2.5 0zM103.75 175 a1.25 1.25 0 1 0 2.5 0 a1.25 1.25 0 1 0 -2.5 0z" fill="black"></path><path d="M213.75 195 a1.25 1.25 0 1 0 2.5 0 a1.25 1.25 0 1 0 -2.5 0zM213.75 125 a1.25 1.25 0 1 0 2.5 0 a1.25 1.25 0 1 0 -2.5 0zM213.75 65 a1.25 1.25 0 1 0 2.5 0 a1.25 1.25 0 1 0 -2.5 0zM193.75 165 a1.25 1.25 0 1 0 2.5 0 a1.25 1.25 0 1 0 -2.5 0zM213.75 185 a1.25 1.25 0 1 0 2.5 0 a1.25 1.25 0 1 0 -2.5 0zM193.75 85 a1.25 1.25 0 1 0 2.5 0 a1.25 1.25 0 1 0 -2.5 0z" fill="black"></path><path d="M93.75 185 a1.25 1.25 0 1 0 2.5 0 a1.25 1.25 0 1 0 -2.5 0zM103.75 85 a1.25 1.25 0 1 0 2.5 0 a1.25 1.25 0 1 0 -2.5 0zM103.75 165 a1.25 1.25 0 1 0 2.5 0 a1.25 1.25 0 1 0 -2.5 0zM103.75 145 a1.25 1.25 0 1 0 2.5 0 a1.25 1.25 0 1 0 -2.5 0zM103.75 65 a1.25 1.25 0 1 0 2.5 0 a1.25 1.25 0 1 0 -2.5 0zM103.75 135 a1.25 1.25 0 1 0 2.5 0 a1.25 1.25 0 1 0 -2.5 0z" fill="black"></path><path d="M223.75 75 a1.25 1.25 0 1 0 2.5 0 a1.25 1.25 0 1 0 -2.5 0zM213.75 55 a1.25 1.25 0 1 0 2.5 0 a1.25 1.25 0 1 0 -2.5 0z" fill="black"></path><path d="M83.75 165 a1.25 1.25 0 1 0 2.5 0 a1.25 1.25 0 1 0 -2.5 0z" fill="black"></path><path d="M233.75 205 a1.25 1.25 0 1 0 2.5 0 a1.25 1.25 0 1 0 -2.5 0zM223.75 105 a1.25 1.25 0 1 0 2.5 0 a1.25 1.25 0 1 0 -2.5 0zM223.75 175 a1.25 1.25 0 1 0 2.5 0 a1.25 1.25 0 1 0 -2.5 0zM243.75 165 a1.25 1.25 0 1 0 2.5 0 a1.25 1.25 0 1 0 -2.5 0zM253.75 155 a1.25 1.25 0 1 0 2.5 0 a1.25 1.25 0 1 0 -2.5 0zM223.75 215 a1.25 1.25 0 1 0 2.5 0 a1.25 1.25 0 1 0 -2.5 0z" fill="black"></path><path d="M63.75 195 a1.25 1.25 0 1 0 2.5 0 a1.25 1.25 0 1 0 -2.5 0zM63.75 95 a1.25 1.25 0 1 0 2.5 0 a1.25 1.25 0 1 0 -2.5 0zM73.75 235 a1.25 1.25 0 1 0 2.5 0 a1.25 1.25 0 1 0 -2.5 0zM53.75 225 a1.25 1.25 0 1 0 2.5 0 a1.25 1.25 0 1 0 -2.5 0zM63.75 135 a1.25 1.25 0 1 0 2.5 0 a1.25 1.25 0 1 0 -2.5 0zM63.75 165 a1.25 1.25 0 1 0 2.5 0 a1.25 1.25 0 1 0 -2.5 0z" fill="black"></path><path d="M233.75 45 a1.25 1.25 0 1 0 2.5 0 a1.25 1.25 0 1 0 -2.5 0zM243.75 55 a1.25 1.25 0 1 0 2.5 0 a1.25 1.25 0 1 0 -2.5 0zM233.75 25 a1.25 1.25 0 1 0 2.5 0 a1.25 1.25 0 1 0 -2.5 0z" fill="black"></path><path d="M83.75 15 a1.25 1.25 0 1 0 2.5 0 a1.25 1.25 0 1 0 -2.5 0zM63.75 45 a1.25 1.25 0 1 0 2.5 0 a1.25 1.25 0 1 0 -2.5 0z" fill="black"></path></mask></defs></svg>