<svg xmlns="http://www.w3.org/2000/svg" version="1.1" xmlns:xlink="http://www.w3.org/1999/xlink" xmlns:svgjs="http://svgjs.com/svgjs" width="1440" height="3200" preserveAspectRatio="none" viewBox="0 0 1440 3200"><g mask="url(&quot;#SvgjsMask1099&quot;)" fill="none"><rect width="1440" height="3200" x="0" y="0" fill="url(#SvgjsLinearGradient1100)"></rect><path d="M0 0L271.64 0L0 211.45z" fill="rgba(255, 255, 255, .1)"></path><path d="M0 211.45L271.64 0L303.15 0L0 1839.3z" fill="rgba(255, 255, 255, .075)"></path><path d="M0 1839.3L303.15 0L443.34999999999997 0L0 2594.48z" fill="rgba(255, 255, 255, .05)"></path><path d="M0 2594.48L443.34999999999997 0L825.66 0L0 2845.85z" fill="rgba(255, 255, 255, .025)"></path><path d="M1440 3200L1390.92 3200L1440 2162.3z" fill="rgba(0, 0, 0, .1)"></path><path d="M1440 2162.3L1390.92 3200L1155.19 3200L1440 1490.67z" fill="rgba(0, 0, 0, .075)"></path><path d="M1440 1490.67L1155.19 3200L663.78 3200L1440 881.1z" fill="rgba(0, 0, 0, .05)"></path><path d="M1440 881.0999999999999L663.78 3200L389.85999999999996 3200L1440 647.8z" fill="rgba(0, 0, 0, .025)"></path></g><defs><mask id="SvgjsMask1099"><rect width="1440" height="3200" fill="#ffffff"></rect></mask><linearGradient x1="-30.56%" y1="13.75%" x2="130.56%" y2="86.25%" gradientUnits="userSpaceOnUse" id="SvgjsLinearGradient1100"><stop stop-color="rgba(255, 146, 52, 1)" offset="0.09"></stop><stop stop-color="rgba(255, 205, 60, 1)" offset="0.53"></stop></linearGradient></defs></svg>