<svg xmlns="http://www.w3.org/2000/svg" version="1.1" xmlns:xlink="http://www.w3.org/1999/xlink" xmlns:svgjs="http://svgjs.com/svgjs" width="1440" height="2800" preserveAspectRatio="none" viewBox="0 0 1440 2800"><g mask="url(&quot;#SvgjsMask1206&quot;)" fill="none"><rect width="1440" height="2800" x="0" y="0" fill="url(#SvgjsLinearGradient1207)"></rect><path d="M0 0L445.81 0L0 705.45z" fill="rgba(255, 255, 255, .1)"></path><path d="M0 705.45L445.81 0L992.98 0L0 1313.33z" fill="rgba(255, 255, 255, .075)"></path><path d="M0 1313.33L992.98 0L1147.3 0L0 1329.6399999999999z" fill="rgba(255, 255, 255, .05)"></path><path d="M0 1329.6399999999999L1147.3 0L1318.12 0L0 2281.95z" fill="rgba(255, 255, 255, .025)"></path><path d="M1440 2800L730.6 2800L1440 1654.08z" fill="rgba(0, 0, 0, .1)"></path><path d="M1440 1654.08L730.6 2800L463.17 2800L1440 1319.03z" fill="rgba(0, 0, 0, .075)"></path><path d="M1440 1319.03L463.1700000000001 2800L255.76000000000008 2800L1440 635.52z" fill="rgba(0, 0, 0, .05)"></path><path d="M1440 635.52L255.76 2800L149.96999999999997 2800L1440 244.58999999999997z" fill="rgba(0, 0, 0, .025)"></path></g><defs><mask id="SvgjsMask1206"><rect width="1440" height="2800" fill="#ffffff"></rect></mask><linearGradient x1="-23.61%" y1="12.14%" x2="123.61%" y2="87.86%" gradientUnits="userSpaceOnUse" id="SvgjsLinearGradient1207"><stop stop-color="rgba(67, 253, 178, 1)" offset="0"></stop><stop stop-color="rgba(0, 158, 155, 1)" offset="0.6"></stop></linearGradient></defs></svg>