<svg xmlns="http://www.w3.org/2000/svg" version="1.1" xmlns:xlink="http://www.w3.org/1999/xlink" xmlns:svgjs="http://svgjs.com/svgjs" width="1440" height="2500" preserveAspectRatio="none" viewBox="0 0 1440 2500"><g mask="url(&quot;#SvgjsMask1006&quot;)" fill="none"><rect width="1440" height="2500" x="0" y="0" fill="url(#SvgjsLinearGradient1007)"></rect><path d="M1440 0L1160.63 0L1440 538.15z" fill="rgba(255, 255, 255, .1)"></path><path d="M1160.63 0L1440 538.15L1440 1107.1799999999998L886.2900000000002 0z" fill="rgba(255, 255, 255, .075)"></path><path d="M886.29 0L1440 1107.1799999999998L1440 1490.4999999999998L345.65 0z" fill="rgba(255, 255, 255, .05)"></path><path d="M345.6500000000001 0L1440 1490.4999999999998L1440 1800.5299999999997L252.98000000000008 0z" fill="rgba(255, 255, 255, .025)"></path><path d="M0 2500L565.41 2500L0 1499.1z" fill="rgba(0, 0, 0, .1)"></path><path d="M0 1499.1L565.41 2500L633.1899999999999 2500L0 883.6199999999999z" fill="rgba(0, 0, 0, .075)"></path><path d="M0 883.6199999999999L633.1899999999999 2500L1037.73 2500L0 468.0499999999999z" fill="rgba(0, 0, 0, .05)"></path><path d="M0 468.04999999999995L1037.73 2500L1164.29 2500L0 374.14z" fill="rgba(0, 0, 0, .025)"></path></g><defs><mask id="SvgjsMask1006"><rect width="1440" height="2500" fill="#ffffff"></rect></mask><linearGradient x1="-18.4%" y1="10.6%" x2="118.4%" y2="89.4%" gradientUnits="userSpaceOnUse" id="SvgjsLinearGradient1007"><stop stop-color="rgba(67, 253, 178, 1)" offset="0"></stop><stop stop-color="rgba(0, 158, 155, 1)" offset="0.6"></stop></linearGradient></defs></svg>