<svg xmlns="http://www.w3.org/2000/svg" version="1.1" xmlns:xlink="http://www.w3.org/1999/xlink" xmlns:svgjs="http://svgjs.com/svgjs" width="800" height="800" preserveAspectRatio="none" viewBox="0 0 800 800"><g mask="url(&quot;#SvgjsMask3010&quot;)" fill="none"><rect width="800" height="800" x="0" y="0" fill="url(#SvgjsLinearGradient3011)"></rect><g mask="url(&quot;#SvgjsMask3012&quot;)"><path d="M405 265L415 275L415 285M405 195L395 205L395 215L395 225L395 235L395 245L395 255M385 515L385 525L385 535M375 575L385 585L385 595M385 505L395 515L395 525L395 535L395 545L395 555L395 565L395 575L395 585M405 285L395 295L395 305L395 315L395 325L395 335M385 485L375 495L375 505L365 515L365 525M385 455L395 465L395 475M385 425L375 435L375 445L375 455L375 465L375 475L375 485L365 495L365 505L355 515M375 565L365 575M385 415L395 425L395 435L395 445M405 235L415 245L415 255L415 265M385 365L375 375L375 385L375 395L375 405M395 345L395 355L395 365M405 155L395 165L395 175L395 185L395 195M405 -5L405 5L405 15L405 25L405 35L405 45L405 55L405 65L395 75L395 85L395 95L395 105L395 115L395 125L395 135L395 145L405 155L405 165L405 175L405 185L405 195L405 205L405 215L405 225L405 235L405 245L405 255L405 265L405 275L405 285L405 295L405 305L405 315L405 325L405 335L395 345L385 355L385 365L385 375L385 385L385 395L385 405L385 415L385 425L385 435L385 445L385 455L385 465L385 475L385 485L385 495L385 505L385 515L375 525L375 535L375 545L375 555L375 565L375 575L375 585L375 595" stroke="rgba(85, 255, 0, 1)" stroke-width="1.67"></path><path d="M372.5 595 a2.5 2.5 0 1 0 5 0 a2.5 2.5 0 1 0 -5 0zM412.5 285 a2.5 2.5 0 1 0 5 0 a2.5 2.5 0 1 0 -5 0zM392.5 255 a2.5 2.5 0 1 0 5 0 a2.5 2.5 0 1 0 -5 0zM382.5 535 a2.5 2.5 0 1 0 5 0 a2.5 2.5 0 1 0 -5 0zM382.5 595 a2.5 2.5 0 1 0 5 0 a2.5 2.5 0 1 0 -5 0zM392.5 585 a2.5 2.5 0 1 0 5 0 a2.5 2.5 0 1 0 -5 0zM392.5 335 a2.5 2.5 0 1 0 5 0 a2.5 2.5 0 1 0 -5 0zM362.5 525 a2.5 2.5 0 1 0 5 0 a2.5 2.5 0 1 0 -5 0zM392.5 475 a2.5 2.5 0 1 0 5 0 a2.5 2.5 0 1 0 -5 0zM352.5 515 a2.5 2.5 0 1 0 5 0 a2.5 2.5 0 1 0 -5 0zM362.5 575 a2.5 2.5 0 1 0 5 0 a2.5 2.5 0 1 0 -5 0zM392.5 445 a2.5 2.5 0 1 0 5 0 a2.5 2.5 0 1 0 -5 0zM412.5 265 a2.5 2.5 0 1 0 5 0 a2.5 2.5 0 1 0 -5 0zM372.5 405 a2.5 2.5 0 1 0 5 0 a2.5 2.5 0 1 0 -5 0zM392.5 365 a2.5 2.5 0 1 0 5 0 a2.5 2.5 0 1 0 -5 0zM392.5 195 a2.5 2.5 0 1 0 5 0 a2.5 2.5 0 1 0 -5 0z" fill="rgba(85, 255, 0, 1)"></path><path d="M385 235L375 245L365 255M385 145L375 155L375 165L375 175L365 185L365 195M385 255L375 265M385 105L375 115M385 95L375 105M385 215L375 225L365 235L365 245M385 205L375 215M395 -5L395 5L395 15L395 25L395 35L395 45L395 55L395 65L385 75L385 85L385 95L385 105L385 115L385 125L385 135L385 145L385 155L385 165L385 175L385 185L385 195L385 205L385 215L385 225L385 235L385 245L385 255L385 265" stroke="rgba(40, 255, 251, 1)" stroke-width="1.67"></path><path d="M382.5 265 a2.5 2.5 0 1 0 5 0 a2.5 2.5 0 1 0 -5 0zM362.5 255 a2.5 2.5 0 1 0 5 0 a2.5 2.5 0 1 0 -5 0zM362.5 195 a2.5 2.5 0 1 0 5 0 a2.5 2.5 0 1 0 -5 0zM372.5 265 a2.5 2.5 0 1 0 5 0 a2.5 2.5 0 1 0 -5 0zM372.5 115 a2.5 2.5 0 1 0 5 0 a2.5 2.5 0 1 0 -5 0zM372.5 105 a2.5 2.5 0 1 0 5 0 a2.5 2.5 0 1 0 -5 0zM362.5 245 a2.5 2.5 0 1 0 5 0 a2.5 2.5 0 1 0 -5 0zM372.5 215 a2.5 2.5 0 1 0 5 0 a2.5 2.5 0 1 0 -5 0z" fill="rgba(40, 255, 251, 1)"></path><path d="M405 135L415 145M415 15L425 25L425 35M405 95L415 105L415 115L415 125L415 135M415 5L425 15M405 85L415 95M415 -5L415 5L415 15L415 25L415 35L415 45L415 55L415 65L405 75L405 85L405 95L405 105L405 115L405 125L405 135L405 145L415 155L415 165L415 175L415 185" stroke="rgba(255, 38, 38, 1)" stroke-width="1.67"></path><path d="M412.5 185 a2.5 2.5 0 1 0 5 0 a2.5 2.5 0 1 0 -5 0zM412.5 145 a2.5 2.5 0 1 0 5 0 a2.5 2.5 0 1 0 -5 0zM422.5 35 a2.5 2.5 0 1 0 5 0 a2.5 2.5 0 1 0 -5 0zM412.5 135 a2.5 2.5 0 1 0 5 0 a2.5 2.5 0 1 0 -5 0zM422.5 15 a2.5 2.5 0 1 0 5 0 a2.5 2.5 0 1 0 -5 0zM412.5 95 a2.5 2.5 0 1 0 5 0 a2.5 2.5 0 1 0 -5 0z" fill="rgba(255, 38, 38, 1)"></path><path d="M355 215L365 225M355 155L365 165L365 175M355 295L365 305L365 315M355 275L365 285M375 85L375 95M365 125L365 135L365 145L365 155M355 205L365 215M385 -5L385 5L385 15L385 25L385 35L385 45L385 55L385 65L375 75L375 85L365 95L365 105L365 115L365 125L355 135L355 145L355 155L355 165L355 175L355 185L355 195L355 205L355 215L355 225L355 235L355 245L355 255L355 265L355 275L355 285L355 295L355 305L355 315L355 325" stroke="rgba(255, 38, 38, 1)" stroke-width="1.67"></path><path d="M352.5 325 a2.5 2.5 0 1 0 5 0 a2.5 2.5 0 1 0 -5 0zM362.5 225 a2.5 2.5 0 1 0 5 0 a2.5 2.5 0 1 0 -5 0zM362.5 175 a2.5 2.5 0 1 0 5 0 a2.5 2.5 0 1 0 -5 0zM362.5 315 a2.5 2.5 0 1 0 5 0 a2.5 2.5 0 1 0 -5 0zM362.5 285 a2.5 2.5 0 1 0 5 0 a2.5 2.5 0 1 0 -5 0zM372.5 95 a2.5 2.5 0 1 0 5 0 a2.5 2.5 0 1 0 -5 0zM362.5 155 a2.5 2.5 0 1 0 5 0 a2.5 2.5 0 1 0 -5 0zM362.5 215 a2.5 2.5 0 1 0 5 0 a2.5 2.5 0 1 0 -5 0z" fill="rgba(255, 38, 38, 1)"></path><path d="M325 535L315 545L315 555L315 565L315 575L315 585L315 595L315 605M335 465L335 475L335 485L335 495M325 625L335 635L335 645L335 655L335 665L335 675L325 685L325 695L325 705L325 715M335 405L345 415L345 425L345 435L345 445L345 455L345 465L345 475L345 485L345 495L345 505L345 515L345 525L345 535L345 545L345 555L335 565L335 575L335 585L335 595M325 605L335 615L335 625L345 635L345 645L345 655L345 665L345 675M345 275L335 285L335 295L335 305L335 315L335 325L325 335M335 345L345 355M335 385L345 395L345 405L355 415L355 425M335 365L345 375M325 545L335 555M325 515L335 525L335 535L335 545M325 505L315 515L315 525L315 535L305 545L305 555L305 565L305 575L305 585L305 595M325 615L315 625L315 635L315 645L305 655L295 665L295 675L295 685M335 335L345 345L355 355L355 365L355 375L345 385M375 55L375 65M375 -5L375 5L375 15L375 25L375 35L375 45L375 55L365 65L365 75L365 85L355 95L355 105L355 115L355 125L345 135L345 145L345 155L345 165L345 175L345 185L345 195L345 205L345 215L345 225L345 235L345 245L345 255L345 265L345 275L345 285L345 295L345 305L345 315L345 325L335 335L335 345L335 355L335 365L335 375L335 385L335 395L335 405L335 415L335 425L335 435L335 445L335 455L335 465L325 475L325 485L325 495L325 505L325 515L325 525L325 535L325 545L325 555L325 565L325 575L325 585L325 595L325 605L325 615L325 625L325 635" stroke="rgba(255, 0, 137, 1)" stroke-width="1.67"></path><path d="M322.5 635 a2.5 2.5 0 1 0 5 0 a2.5 2.5 0 1 0 -5 0zM312.5 605 a2.5 2.5 0 1 0 5 0 a2.5 2.5 0 1 0 -5 0zM332.5 495 a2.5 2.5 0 1 0 5 0 a2.5 2.5 0 1 0 -5 0zM322.5 715 a2.5 2.5 0 1 0 5 0 a2.5 2.5 0 1 0 -5 0zM332.5 595 a2.5 2.5 0 1 0 5 0 a2.5 2.5 0 1 0 -5 0zM342.5 675 a2.5 2.5 0 1 0 5 0 a2.5 2.5 0 1 0 -5 0zM322.5 335 a2.5 2.5 0 1 0 5 0 a2.5 2.5 0 1 0 -5 0zM342.5 355 a2.5 2.5 0 1 0 5 0 a2.5 2.5 0 1 0 -5 0zM352.5 425 a2.5 2.5 0 1 0 5 0 a2.5 2.5 0 1 0 -5 0zM342.5 375 a2.5 2.5 0 1 0 5 0 a2.5 2.5 0 1 0 -5 0zM332.5 555 a2.5 2.5 0 1 0 5 0 a2.5 2.5 0 1 0 -5 0zM332.5 545 a2.5 2.5 0 1 0 5 0 a2.5 2.5 0 1 0 -5 0zM302.5 595 a2.5 2.5 0 1 0 5 0 a2.5 2.5 0 1 0 -5 0zM292.5 685 a2.5 2.5 0 1 0 5 0 a2.5 2.5 0 1 0 -5 0zM342.5 385 a2.5 2.5 0 1 0 5 0 a2.5 2.5 0 1 0 -5 0zM372.5 65 a2.5 2.5 0 1 0 5 0 a2.5 2.5 0 1 0 -5 0z" fill="rgba(255, 0, 137, 1)"></path><path d="M425 55L435 65M425 75L415 85M425 45L435 55M435 35L435 45M435 -5L435 5L435 15L435 25L435 35L425 45L425 55L425 65L425 75L425 85L425 95L425 105L425 115L425 125L425 135L425 145L425 155" stroke="rgba(40, 255, 251, 1)" stroke-width="1.67"></path><path d="M422.5 155 a2.5 2.5 0 1 0 5 0 a2.5 2.5 0 1 0 -5 0zM432.5 65 a2.5 2.5 0 1 0 5 0 a2.5 2.5 0 1 0 -5 0zM412.5 85 a2.5 2.5 0 1 0 5 0 a2.5 2.5 0 1 0 -5 0zM432.5 55 a2.5 2.5 0 1 0 5 0 a2.5 2.5 0 1 0 -5 0zM432.5 45 a2.5 2.5 0 1 0 5 0 a2.5 2.5 0 1 0 -5 0z" fill="rgba(40, 255, 251, 1)"></path><path d="M325 375L315 385L305 395L295 405L295 415L295 425L295 435L295 445L295 455L295 465L295 475M365 45L365 55M315 415L315 425L315 435L315 445L315 455L315 465L305 475L305 485L305 495L305 505L305 515L305 525L305 535L295 545L295 555L295 565L295 575M325 275L315 285L315 295L305 305M335 145L325 155M335 215L325 225L325 235L325 245L325 255L325 265L315 275L305 285L305 295L295 305L285 315L285 325L275 335L275 345L275 355L275 365L275 375L275 385L275 395M335 195L325 205L325 215M315 305L325 315L325 325M315 405L325 415M315 315L305 325L305 335L305 345L305 355M325 355L315 365L315 375L305 385L295 395L285 405L285 415L285 425M335 185L325 195M365 -5L365 5L365 15L365 25L365 35L365 45L355 55L355 65L355 75L355 85L345 95L345 105L345 115L345 125L335 135L335 145L335 155L335 165L335 175L335 185L335 195L335 205L335 215L335 225L335 235L335 245L335 255L335 265L325 275L325 285L325 295L315 305L315 315L315 325L315 335L325 345L325 355L325 365L325 375L325 385L325 395L315 405L315 415L325 425L325 435L325 445L325 455L325 465L315 475L315 485L315 495" stroke="rgba(255, 0, 137, 1)" stroke-width="1.67"></path><path d="M312.5 495 a2.5 2.5 0 1 0 5 0 a2.5 2.5 0 1 0 -5 0zM292.5 475 a2.5 2.5 0 1 0 5 0 a2.5 2.5 0 1 0 -5 0zM362.5 55 a2.5 2.5 0 1 0 5 0 a2.5 2.5 0 1 0 -5 0zM292.5 575 a2.5 2.5 0 1 0 5 0 a2.5 2.5 0 1 0 -5 0zM302.5 305 a2.5 2.5 0 1 0 5 0 a2.5 2.5 0 1 0 -5 0zM322.5 155 a2.5 2.5 0 1 0 5 0 a2.5 2.5 0 1 0 -5 0zM272.5 395 a2.5 2.5 0 1 0 5 0 a2.5 2.5 0 1 0 -5 0zM322.5 215 a2.5 2.5 0 1 0 5 0 a2.5 2.5 0 1 0 -5 0zM322.5 325 a2.5 2.5 0 1 0 5 0 a2.5 2.5 0 1 0 -5 0zM322.5 415 a2.5 2.5 0 1 0 5 0 a2.5 2.5 0 1 0 -5 0zM302.5 355 a2.5 2.5 0 1 0 5 0 a2.5 2.5 0 1 0 -5 0zM282.5 425 a2.5 2.5 0 1 0 5 0 a2.5 2.5 0 1 0 -5 0zM322.5 195 a2.5 2.5 0 1 0 5 0 a2.5 2.5 0 1 0 -5 0z" fill="rgba(255, 0, 137, 1)"></path><path d="M435 185L445 195L445 205L445 215L445 225L445 235L445 245L445 255L445 265L445 275L445 285L445 295L445 305L445 315L445 325M425 255L435 265L435 275L435 285L435 295L435 305L435 315L435 325L435 335M435 165L445 175M415 345L425 355L425 365L425 375L425 385L425 395L435 405L435 415M415 335L425 345L435 355L435 365L435 375M435 195L425 205L425 215L425 225M455 5L445 15M435 135L445 145L445 155L445 165L455 175L455 185L455 195M445 85L435 95M445 -5L455 5L455 15L445 25L445 35L445 45L445 55L445 65L445 75L445 85L445 95L435 105L435 115L435 125L435 135L435 145L435 155L435 165L435 175L435 185L435 195L435 205L435 215L435 225L435 235L435 245L425 255L425 265L425 275L425 285L415 295L415 305L415 315L415 325L415 335L415 345L415 355" stroke="rgba(85, 255, 0, 1)" stroke-width="1.67"></path><path d="M412.5 355 a2.5 2.5 0 1 0 5 0 a2.5 2.5 0 1 0 -5 0zM442.5 325 a2.5 2.5 0 1 0 5 0 a2.5 2.5 0 1 0 -5 0zM432.5 335 a2.5 2.5 0 1 0 5 0 a2.5 2.5 0 1 0 -5 0zM442.5 175 a2.5 2.5 0 1 0 5 0 a2.5 2.5 0 1 0 -5 0zM432.5 415 a2.5 2.5 0 1 0 5 0 a2.5 2.5 0 1 0 -5 0zM432.5 375 a2.5 2.5 0 1 0 5 0 a2.5 2.5 0 1 0 -5 0zM422.5 225 a2.5 2.5 0 1 0 5 0 a2.5 2.5 0 1 0 -5 0zM442.5 15 a2.5 2.5 0 1 0 5 0 a2.5 2.5 0 1 0 -5 0zM452.5 195 a2.5 2.5 0 1 0 5 0 a2.5 2.5 0 1 0 -5 0zM432.5 95 a2.5 2.5 0 1 0 5 0 a2.5 2.5 0 1 0 -5 0z" fill="rgba(85, 255, 0, 1)"></path><path d="M355 25L345 35L345 45M355 15L345 25M355 -5L355 5L355 15L355 25L355 35L355 45L345 55L345 65L345 75L345 85L335 95L335 105L335 115L335 125L325 135" stroke="rgba(255, 38, 38, 1)" stroke-width="1.67"></path><path d="M322.5 135 a2.5 2.5 0 1 0 5 0 a2.5 2.5 0 1 0 -5 0zM342.5 45 a2.5 2.5 0 1 0 5 0 a2.5 2.5 0 1 0 -5 0zM342.5 25 a2.5 2.5 0 1 0 5 0 a2.5 2.5 0 1 0 -5 0z" fill="rgba(255, 38, 38, 1)"></path><path d="M475 305L465 315L465 325L465 335L465 345L465 355L465 365L465 375L465 385L465 395L465 405L465 415L465 425L465 435L465 445L465 455L465 465L465 475L465 485M475 195L465 205L465 215M475 295L465 305L455 315L455 325L455 335L455 345L455 355L455 365M465 145L465 155L465 165L465 175L465 185L465 195M495 465L485 475L485 485L485 495L485 505L485 515L485 525L485 535M465 35L455 45M475 315L485 325M495 495L505 505L515 515L515 525L515 535L515 545L515 555L515 565M495 435L485 445L485 455L485 465L475 475L475 485L475 495L475 505L475 515L475 525L475 535M495 385L485 395L475 405L475 415L475 425M465 135L455 145L455 155L455 165M475 235L465 245L465 255L465 265L465 275L465 285L465 295L455 305M475 285L485 295L485 305M455 -5L465 5L465 15L465 25L465 35L465 45L465 55L465 65L465 75L465 85L465 95L465 105L465 115L465 125L465 135L465 145L475 155L475 165L475 175L475 185L475 195L475 205L475 215L475 225L475 235L475 245L475 255L475 265L475 275L475 285L475 295L475 305L475 315L475 325L485 335L485 345L485 355L485 365L485 375L495 385L495 395L485 405L485 415L485 425L495 435L495 445L495 455L495 465L495 475L495 485L495 495L495 505" stroke="rgba(255, 38, 38, 1)" stroke-width="1.67"></path><path d="M492.5 505 a2.5 2.5 0 1 0 5 0 a2.5 2.5 0 1 0 -5 0zM462.5 485 a2.5 2.5 0 1 0 5 0 a2.5 2.5 0 1 0 -5 0zM462.5 215 a2.5 2.5 0 1 0 5 0 a2.5 2.5 0 1 0 -5 0zM452.5 365 a2.5 2.5 0 1 0 5 0 a2.5 2.5 0 1 0 -5 0zM462.5 195 a2.5 2.5 0 1 0 5 0 a2.5 2.5 0 1 0 -5 0zM482.5 535 a2.5 2.5 0 1 0 5 0 a2.5 2.5 0 1 0 -5 0zM452.5 45 a2.5 2.5 0 1 0 5 0 a2.5 2.5 0 1 0 -5 0zM482.5 325 a2.5 2.5 0 1 0 5 0 a2.5 2.5 0 1 0 -5 0zM512.5 565 a2.5 2.5 0 1 0 5 0 a2.5 2.5 0 1 0 -5 0zM472.5 535 a2.5 2.5 0 1 0 5 0 a2.5 2.5 0 1 0 -5 0zM472.5 425 a2.5 2.5 0 1 0 5 0 a2.5 2.5 0 1 0 -5 0zM452.5 165 a2.5 2.5 0 1 0 5 0 a2.5 2.5 0 1 0 -5 0zM452.5 305 a2.5 2.5 0 1 0 5 0 a2.5 2.5 0 1 0 -5 0zM482.5 305 a2.5 2.5 0 1 0 5 0 a2.5 2.5 0 1 0 -5 0z" fill="rgba(255, 38, 38, 1)"></path><path d="M315 165L325 175L325 185M345 5L345 15M345 -5L345 5L335 15L335 25L335 35L335 45L335 55L335 65L335 75L335 85L325 95L325 105L325 115L325 125L315 135L315 145L315 155L315 165L315 175L315 185L315 195L315 205L315 215L315 225" stroke="rgba(85, 255, 0, 1)" stroke-width="1.67"></path><path d="M312.5 225 a2.5 2.5 0 1 0 5 0 a2.5 2.5 0 1 0 -5 0zM322.5 185 a2.5 2.5 0 1 0 5 0 a2.5 2.5 0 1 0 -5 0zM342.5 15 a2.5 2.5 0 1 0 5 0 a2.5 2.5 0 1 0 -5 0z" fill="rgba(85, 255, 0, 1)"></path><path d="M495 325L505 335L505 345M495 275L485 285M505 405L515 415M505 465L515 475L515 485L515 495L515 505M505 445L515 455L515 465L525 475L525 485M495 315L505 325M505 415L495 425M485 265L485 275M475 125L485 135L485 145M505 435L515 445L525 455L525 465L535 475L535 485L535 495L525 505L525 515L525 525L535 535L535 545L535 555M505 425L515 435L525 445L535 455L535 465M495 365L505 375M465 -5L475 5L475 15L475 25L475 35L475 45L475 55L475 65L475 75L475 85L475 95L475 105L475 115L475 125L475 135L475 145L485 155L485 165L485 175L485 185L485 195L485 205L485 215L485 225L485 235L485 245L485 255L485 265L495 275L495 285L495 295L495 305L495 315L495 325L495 335L495 345L495 355L495 365L495 375L505 385L505 395L505 405L505 415L505 425L505 435L505 445L505 455L505 465L505 475L505 485" stroke="rgba(40, 255, 251, 1)" stroke-width="1.67"></path><path d="M502.5 485 a2.5 2.5 0 1 0 5 0 a2.5 2.5 0 1 0 -5 0zM502.5 345 a2.5 2.5 0 1 0 5 0 a2.5 2.5 0 1 0 -5 0zM482.5 285 a2.5 2.5 0 1 0 5 0 a2.5 2.5 0 1 0 -5 0zM512.5 415 a2.5 2.5 0 1 0 5 0 a2.5 2.5 0 1 0 -5 0zM512.5 505 a2.5 2.5 0 1 0 5 0 a2.5 2.5 0 1 0 -5 0zM522.5 485 a2.5 2.5 0 1 0 5 0 a2.5 2.5 0 1 0 -5 0zM502.5 325 a2.5 2.5 0 1 0 5 0 a2.5 2.5 0 1 0 -5 0zM492.5 425 a2.5 2.5 0 1 0 5 0 a2.5 2.5 0 1 0 -5 0zM482.5 275 a2.5 2.5 0 1 0 5 0 a2.5 2.5 0 1 0 -5 0zM482.5 145 a2.5 2.5 0 1 0 5 0 a2.5 2.5 0 1 0 -5 0zM532.5 555 a2.5 2.5 0 1 0 5 0 a2.5 2.5 0 1 0 -5 0zM532.5 465 a2.5 2.5 0 1 0 5 0 a2.5 2.5 0 1 0 -5 0zM502.5 375 a2.5 2.5 0 1 0 5 0 a2.5 2.5 0 1 0 -5 0z" fill="rgba(40, 255, 251, 1)"></path><path d="M305 225L295 235L295 245L295 255L295 265L295 275L295 285M305 215L295 225M305 205L295 215M305 185L295 195L295 205M305 175L295 185M335 -5L335 5L325 15L325 25L325 35L325 45L325 55L325 65L325 75L325 85L315 95L315 105L315 115L315 125L305 135L305 145L305 155L305 165L305 175L305 185L305 195L305 205L305 215L305 225L305 235" stroke="rgba(85, 255, 0, 1)" stroke-width="1.67"></path><path d="M302.5 235 a2.5 2.5 0 1 0 5 0 a2.5 2.5 0 1 0 -5 0zM292.5 285 a2.5 2.5 0 1 0 5 0 a2.5 2.5 0 1 0 -5 0zM292.5 225 a2.5 2.5 0 1 0 5 0 a2.5 2.5 0 1 0 -5 0zM292.5 215 a2.5 2.5 0 1 0 5 0 a2.5 2.5 0 1 0 -5 0zM292.5 205 a2.5 2.5 0 1 0 5 0 a2.5 2.5 0 1 0 -5 0zM292.5 185 a2.5 2.5 0 1 0 5 0 a2.5 2.5 0 1 0 -5 0z" fill="rgba(85, 255, 0, 1)"></path><path d="M495 185L505 195L505 205M495 105L485 115L485 125M495 115L505 125L505 135L505 145M495 175L505 185M495 225L505 235L515 245L515 255L515 265M495 215L505 225M495 255L505 265M475 -5L485 5L485 15L485 25L485 35L485 45L485 55L485 65L485 75L485 85L485 95L495 105L495 115L495 125L495 135L495 145L495 155L495 165L495 175L495 185L495 195L495 205L495 215L495 225L495 235L495 245L495 255L495 265L505 275L505 285L505 295" stroke="rgba(40, 255, 251, 1)" stroke-width="1.67"></path><path d="M502.5 295 a2.5 2.5 0 1 0 5 0 a2.5 2.5 0 1 0 -5 0zM502.5 205 a2.5 2.5 0 1 0 5 0 a2.5 2.5 0 1 0 -5 0zM482.5 125 a2.5 2.5 0 1 0 5 0 a2.5 2.5 0 1 0 -5 0zM502.5 145 a2.5 2.5 0 1 0 5 0 a2.5 2.5 0 1 0 -5 0zM502.5 185 a2.5 2.5 0 1 0 5 0 a2.5 2.5 0 1 0 -5 0zM512.5 265 a2.5 2.5 0 1 0 5 0 a2.5 2.5 0 1 0 -5 0zM502.5 225 a2.5 2.5 0 1 0 5 0 a2.5 2.5 0 1 0 -5 0zM502.5 265 a2.5 2.5 0 1 0 5 0 a2.5 2.5 0 1 0 -5 0z" fill="rgba(40, 255, 251, 1)"></path><path d="M325 -5L325 5L315 15L315 25L315 35L315 45L315 55L315 65L315 75L315 85L305 95L305 105L305 115L305 125" stroke="rgba(255, 38, 38, 1)" stroke-width="1.67"></path><path d="M302.5 125 a2.5 2.5 0 1 0 5 0 a2.5 2.5 0 1 0 -5 0z" fill="rgba(255, 38, 38, 1)"></path><path d="M305 55L295 65L295 75M305 75L305 85M305 45L295 55M305 35L295 45M315 -5L315 5L305 15L305 25L305 35L305 45L305 55L305 65L305 75L295 85L295 95L295 105L295 115L295 125L295 135L295 145L295 155" stroke="rgba(40, 255, 251, 1)" stroke-width="1.67"></path><path d="M292.5 155 a2.5 2.5 0 1 0 5 0 a2.5 2.5 0 1 0 -5 0zM292.5 75 a2.5 2.5 0 1 0 5 0 a2.5 2.5 0 1 0 -5 0zM302.5 85 a2.5 2.5 0 1 0 5 0 a2.5 2.5 0 1 0 -5 0zM292.5 55 a2.5 2.5 0 1 0 5 0 a2.5 2.5 0 1 0 -5 0zM292.5 45 a2.5 2.5 0 1 0 5 0 a2.5 2.5 0 1 0 -5 0z" fill="rgba(40, 255, 251, 1)"></path><path d="M495 -5L495 5L495 15L495 25L495 35L495 45L495 55L495 65L495 75L495 85L495 95L505 105" stroke="rgba(255, 38, 38, 1)" stroke-width="1.67"></path><path d="M502.5 105 a2.5 2.5 0 1 0 5 0 a2.5 2.5 0 1 0 -5 0z" fill="rgba(255, 38, 38, 1)"></path><path d="M285 195L275 205L275 215L275 225L275 235L275 245M285 165L275 175L275 185L275 195L265 205L265 215L265 225L265 235L265 245L265 255L265 265M285 45L275 55M285 85L275 95L275 105L275 115L275 125L275 135L275 145L275 155L275 165M285 275L275 285L275 295L275 305L275 315L275 325M285 255L275 265L275 275L265 285L265 295L265 305L265 315L265 325L265 335L265 345L265 355L265 365L265 375M295 25L295 35M305 -5L305 5L295 15L295 25L285 35L285 45L285 55L285 65L285 75L285 85L285 95L285 105L285 115L285 125L285 135L285 145L285 155L285 165L285 175L285 185L285 195L285 205L285 215L285 225L285 235L285 245L285 255L285 265L285 275L285 285L285 295" stroke="rgba(40, 255, 251, 1)" stroke-width="1.67"></path><path d="M282.5 295 a2.5 2.5 0 1 0 5 0 a2.5 2.5 0 1 0 -5 0zM272.5 245 a2.5 2.5 0 1 0 5 0 a2.5 2.5 0 1 0 -5 0zM262.5 265 a2.5 2.5 0 1 0 5 0 a2.5 2.5 0 1 0 -5 0zM272.5 55 a2.5 2.5 0 1 0 5 0 a2.5 2.5 0 1 0 -5 0zM272.5 165 a2.5 2.5 0 1 0 5 0 a2.5 2.5 0 1 0 -5 0zM272.5 325 a2.5 2.5 0 1 0 5 0 a2.5 2.5 0 1 0 -5 0zM262.5 375 a2.5 2.5 0 1 0 5 0 a2.5 2.5 0 1 0 -5 0zM292.5 35 a2.5 2.5 0 1 0 5 0 a2.5 2.5 0 1 0 -5 0z" fill="rgba(40, 255, 251, 1)"></path><path d="M515 335L525 345M515 355L505 365M515 275L525 285L525 295M515 385L525 395L525 405L525 415L525 425L525 435M525 145L515 155L505 165L505 175M515 135L515 145M515 375L525 385L535 395L535 405L535 415M515 365L525 375M525 265L525 275L535 285M515 325L525 335L535 345L535 355L535 365L535 375L535 385M505 -5L505 5L505 15L505 25L505 35L505 45L505 55L505 65L505 75L505 85L505 95L515 105L515 115L515 125L515 135L525 145L525 155L515 165L515 175L515 185L515 195L515 205L515 215L515 225L515 235L525 245L525 255L525 265L515 275L515 285L515 295L515 305L515 315L515 325L515 335L515 345L515 355L515 365L515 375L515 385L515 395" stroke="rgba(85, 255, 0, 1)" stroke-width="1.67"></path><path d="M512.5 395 a2.5 2.5 0 1 0 5 0 a2.5 2.5 0 1 0 -5 0zM522.5 345 a2.5 2.5 0 1 0 5 0 a2.5 2.5 0 1 0 -5 0zM502.5 365 a2.5 2.5 0 1 0 5 0 a2.5 2.5 0 1 0 -5 0zM522.5 295 a2.5 2.5 0 1 0 5 0 a2.5 2.5 0 1 0 -5 0zM522.5 435 a2.5 2.5 0 1 0 5 0 a2.5 2.5 0 1 0 -5 0zM502.5 175 a2.5 2.5 0 1 0 5 0 a2.5 2.5 0 1 0 -5 0zM512.5 145 a2.5 2.5 0 1 0 5 0 a2.5 2.5 0 1 0 -5 0zM532.5 415 a2.5 2.5 0 1 0 5 0 a2.5 2.5 0 1 0 -5 0zM522.5 375 a2.5 2.5 0 1 0 5 0 a2.5 2.5 0 1 0 -5 0zM532.5 285 a2.5 2.5 0 1 0 5 0 a2.5 2.5 0 1 0 -5 0zM532.5 385 a2.5 2.5 0 1 0 5 0 a2.5 2.5 0 1 0 -5 0z" fill="rgba(85, 255, 0, 1)"></path><path d="M245 235L235 245L235 255L235 265L235 275L235 285L225 295L225 305L225 315M245 205L255 215L255 225M245 225L235 235L225 245L225 255M245 135L255 145M255 105L265 115L265 125L265 135M265 95L265 105M245 125L255 135M245 215L235 225L225 235M295 -5L295 5L285 15L285 25L275 35L265 45L265 55L265 65L265 75L265 85L265 95L255 105L255 115L245 125L245 135L245 145L245 155L245 165L245 175L245 185L245 195L245 205L245 215L245 225L245 235L245 245L245 255L245 265L245 275L245 285L235 295L235 305L235 315" stroke="rgba(85, 255, 0, 1)" stroke-width="1.67"></path><path d="M232.5 315 a2.5 2.5 0 1 0 5 0 a2.5 2.5 0 1 0 -5 0zM222.5 315 a2.5 2.5 0 1 0 5 0 a2.5 2.5 0 1 0 -5 0zM252.5 225 a2.5 2.5 0 1 0 5 0 a2.5 2.5 0 1 0 -5 0zM222.5 255 a2.5 2.5 0 1 0 5 0 a2.5 2.5 0 1 0 -5 0zM252.5 145 a2.5 2.5 0 1 0 5 0 a2.5 2.5 0 1 0 -5 0zM262.5 135 a2.5 2.5 0 1 0 5 0 a2.5 2.5 0 1 0 -5 0zM262.5 105 a2.5 2.5 0 1 0 5 0 a2.5 2.5 0 1 0 -5 0zM252.5 135 a2.5 2.5 0 1 0 5 0 a2.5 2.5 0 1 0 -5 0zM222.5 235 a2.5 2.5 0 1 0 5 0 a2.5 2.5 0 1 0 -5 0z" fill="rgba(85, 255, 0, 1)"></path><path d="M535 255L535 265M515 55L525 65L525 75L525 85L525 95L535 105M515 45L525 55L535 65L535 75L535 85L535 95M545 545L555 555L555 565L565 575L575 585L575 595L575 605M515 25L525 35L525 45L535 55M545 365L555 375L555 385L555 395L565 405L565 415L575 425L575 435L575 445L575 455L575 465L575 475L575 485L575 495L575 505L575 515L575 525L575 535L575 545M545 415L545 425L545 435L555 445L555 455M545 485L555 495M545 325L535 335M545 305L535 315L535 325M545 465L555 475L555 485L565 495L565 505M515 5L525 15L525 25L535 35L535 45M545 565L545 575L545 585L545 595L545 605L545 615L545 625L535 635L535 645L535 655L535 665L535 675L535 685M545 535L555 545L565 555L565 565L575 575L585 585L585 595L585 605L585 615L585 625L585 635L585 645L585 655L585 665L585 675L585 685L585 695L585 705L585 715M515 -5L515 5L515 15L515 25L515 35L515 45L515 55L515 65L515 75L515 85L515 95L525 105L525 115L525 125L525 135L535 145L535 155L535 165L525 175L525 185L525 195L525 205L525 215L525 225L525 235L535 245L535 255L545 265L545 275L545 285L545 295L545 305L545 315L545 325L545 335L545 345L545 355L545 365L545 375L545 385L545 395L545 405L545 415L535 425L535 435L545 445L545 455L545 465L545 475L545 485L545 495L545 505L545 515L545 525L545 535L545 545L545 555L545 565L555 575" stroke="rgba(40, 255, 251, 1)" stroke-width="1.67"></path><path d="M552.5 575 a2.5 2.5 0 1 0 5 0 a2.5 2.5 0 1 0 -5 0zM532.5 265 a2.5 2.5 0 1 0 5 0 a2.5 2.5 0 1 0 -5 0zM532.5 105 a2.5 2.5 0 1 0 5 0 a2.5 2.5 0 1 0 -5 0zM532.5 95 a2.5 2.5 0 1 0 5 0 a2.5 2.5 0 1 0 -5 0zM572.5 605 a2.5 2.5 0 1 0 5 0 a2.5 2.5 0 1 0 -5 0zM532.5 55 a2.5 2.5 0 1 0 5 0 a2.5 2.5 0 1 0 -5 0zM572.5 545 a2.5 2.5 0 1 0 5 0 a2.5 2.5 0 1 0 -5 0zM552.5 455 a2.5 2.5 0 1 0 5 0 a2.5 2.5 0 1 0 -5 0zM552.5 495 a2.5 2.5 0 1 0 5 0 a2.5 2.5 0 1 0 -5 0zM532.5 335 a2.5 2.5 0 1 0 5 0 a2.5 2.5 0 1 0 -5 0zM532.5 325 a2.5 2.5 0 1 0 5 0 a2.5 2.5 0 1 0 -5 0zM562.5 505 a2.5 2.5 0 1 0 5 0 a2.5 2.5 0 1 0 -5 0zM532.5 45 a2.5 2.5 0 1 0 5 0 a2.5 2.5 0 1 0 -5 0zM532.5 685 a2.5 2.5 0 1 0 5 0 a2.5 2.5 0 1 0 -5 0zM582.5 715 a2.5 2.5 0 1 0 5 0 a2.5 2.5 0 1 0 -5 0z" fill="rgba(40, 255, 251, 1)"></path><path d="M205 265L195 275M245 95L235 105L235 115M195 225L205 235L215 245M215 165L225 175L225 185L225 195L225 205M225 155L225 165L235 175L235 185L235 195M195 335L195 345M195 205L205 215M245 75L255 85L255 95M205 285L195 295M285 -5L285 5L275 15L275 25L265 35L255 45L255 55L245 65L245 75L245 85L245 95L245 105L245 115L235 125L235 135L235 145L225 155L215 165L215 175L205 185L205 195L195 205L195 215L195 225L195 235L205 245L205 255L205 265L205 275L205 285L205 295L205 305L205 315L205 325L195 335L185 345" stroke="rgba(40, 255, 251, 1)" stroke-width="1.67"></path><path d="M182.5 345 a2.5 2.5 0 1 0 5 0 a2.5 2.5 0 1 0 -5 0zM192.5 275 a2.5 2.5 0 1 0 5 0 a2.5 2.5 0 1 0 -5 0zM232.5 115 a2.5 2.5 0 1 0 5 0 a2.5 2.5 0 1 0 -5 0zM212.5 245 a2.5 2.5 0 1 0 5 0 a2.5 2.5 0 1 0 -5 0zM222.5 205 a2.5 2.5 0 1 0 5 0 a2.5 2.5 0 1 0 -5 0zM232.5 195 a2.5 2.5 0 1 0 5 0 a2.5 2.5 0 1 0 -5 0zM192.5 345 a2.5 2.5 0 1 0 5 0 a2.5 2.5 0 1 0 -5 0zM202.5 215 a2.5 2.5 0 1 0 5 0 a2.5 2.5 0 1 0 -5 0zM252.5 95 a2.5 2.5 0 1 0 5 0 a2.5 2.5 0 1 0 -5 0zM192.5 295 a2.5 2.5 0 1 0 5 0 a2.5 2.5 0 1 0 -5 0z" fill="rgba(40, 255, 251, 1)"></path><path d="M225 85L235 95M275 -5L275 5L265 15L265 25L255 35L245 45L245 55L235 65L235 75L225 85L225 95L225 105L225 115L225 125L225 135L225 145L215 155L205 165L205 175L195 185L195 195" stroke="rgba(40, 255, 251, 1)" stroke-width="1.67"></path><path d="M192.5 195 a2.5 2.5 0 1 0 5 0 a2.5 2.5 0 1 0 -5 0zM232.5 95 a2.5 2.5 0 1 0 5 0 a2.5 2.5 0 1 0 -5 0z" fill="rgba(40, 255, 251, 1)"></path><path d="M535 5L535 15M535 125L545 135M545 175L545 185L545 195M535 115L545 125M545 105L545 115M535 -5L535 5L545 15L545 25L545 35L545 45L545 55L545 65L545 75L545 85L545 95L545 105L535 115L535 125L535 135L545 145L545 155L545 165L545 175L535 185L535 195L535 205" stroke="rgba(255, 0, 137, 1)" stroke-width="1.67"></path><path d="M532.5 205 a2.5 2.5 0 1 0 5 0 a2.5 2.5 0 1 0 -5 0zM532.5 15 a2.5 2.5 0 1 0 5 0 a2.5 2.5 0 1 0 -5 0zM542.5 135 a2.5 2.5 0 1 0 5 0 a2.5 2.5 0 1 0 -5 0zM542.5 195 a2.5 2.5 0 1 0 5 0 a2.5 2.5 0 1 0 -5 0zM542.5 125 a2.5 2.5 0 1 0 5 0 a2.5 2.5 0 1 0 -5 0zM542.5 115 a2.5 2.5 0 1 0 5 0 a2.5 2.5 0 1 0 -5 0z" fill="rgba(255, 0, 137, 1)"></path><path d="M265 -5L265 5L255 15L255 25L245 35L235 45L235 55L225 65L225 75L215 85L215 95L215 105L215 115L215 125L215 135L215 145L205 155L195 165L195 175L185 185L185 195L185 205L185 215" stroke="rgba(255, 0, 137, 1)" stroke-width="1.67"></path><path d="M182.5 215 a2.5 2.5 0 1 0 5 0 a2.5 2.5 0 1 0 -5 0z" fill="rgba(255, 0, 137, 1)"></path><path d="M555 75L565 85L565 95L565 105L565 115L565 125L565 135L565 145L565 155L565 165L565 175L565 185L575 195L575 205L575 215L575 225M555 305L555 315L555 325M535 225L545 235M555 195L555 205L555 215L555 225L555 235L555 245L555 255L565 265M555 285L565 295L565 305L575 315M555 275L565 285L575 295L575 305L585 315L585 325L585 335L585 345L585 355L575 365L575 375M565 315L565 325L565 335L565 345L565 355L565 365L565 375L565 385L565 395L575 405L575 415L585 425L585 435M535 215L545 225M545 205L545 215M545 -5L545 5L555 15L555 25L555 35L555 45L555 55L555 65L555 75L555 85L555 95L555 105L555 115L555 125L555 135L555 145L555 155L555 165L555 175L555 185L555 195L545 205L535 215L535 225L535 235L545 245L545 255L555 265L555 275L555 285L555 295L555 305L565 315L575 325L575 335L575 345" stroke="rgba(255, 0, 137, 1)" stroke-width="1.67"></path><path d="M572.5 345 a2.5 2.5 0 1 0 5 0 a2.5 2.5 0 1 0 -5 0zM572.5 225 a2.5 2.5 0 1 0 5 0 a2.5 2.5 0 1 0 -5 0zM552.5 325 a2.5 2.5 0 1 0 5 0 a2.5 2.5 0 1 0 -5 0zM542.5 235 a2.5 2.5 0 1 0 5 0 a2.5 2.5 0 1 0 -5 0zM562.5 265 a2.5 2.5 0 1 0 5 0 a2.5 2.5 0 1 0 -5 0zM572.5 315 a2.5 2.5 0 1 0 5 0 a2.5 2.5 0 1 0 -5 0zM572.5 375 a2.5 2.5 0 1 0 5 0 a2.5 2.5 0 1 0 -5 0zM582.5 435 a2.5 2.5 0 1 0 5 0 a2.5 2.5 0 1 0 -5 0zM542.5 225 a2.5 2.5 0 1 0 5 0 a2.5 2.5 0 1 0 -5 0zM542.5 215 a2.5 2.5 0 1 0 5 0 a2.5 2.5 0 1 0 -5 0z" fill="rgba(255, 0, 137, 1)"></path><path d="M175 415L185 425L185 435L185 445L185 455L185 465L185 475L195 485L205 495L205 505L215 515L215 525L215 535L215 545L215 555L215 565L225 575L225 585M175 465L175 475L175 485L175 495L175 505L175 515M175 235L185 245L185 255M175 355L185 365L185 375L185 385M165 495L155 505M175 405L185 415L195 425M175 345L165 355L165 365L165 375L165 385L165 395M175 265L185 275L185 285L185 295M175 455L165 465M175 425L165 435L165 445L165 455L155 465L155 475L155 485L155 495M175 275L175 285L175 295L175 305L175 315L185 325L185 335M165 315L155 325L155 335L155 345L155 355M165 545L155 555L155 565L155 575L155 585M175 395L185 405L195 415L205 425L205 435M255 -5L245 5L245 15L245 25L235 35L225 45L225 55L215 65L215 75L205 85L205 95L205 105L205 115L205 125L205 135L205 145L195 155L185 165L185 175L175 185L175 195L175 205L175 215L175 225L175 235L175 245L175 255L175 265L175 275L165 285L165 295L165 305L165 315L175 325L175 335L175 345L175 355L175 365L175 375L175 385L175 395L175 405L175 415L175 425L175 435L175 445L175 455L175 465L165 475L165 485L165 495L165 505L165 515L165 525L165 535L165 545L165 555" stroke="rgba(255, 0, 137, 1)" stroke-width="1.67"></path><path d="M162.5 555 a2.5 2.5 0 1 0 5 0 a2.5 2.5 0 1 0 -5 0zM222.5 585 a2.5 2.5 0 1 0 5 0 a2.5 2.5 0 1 0 -5 0zM172.5 515 a2.5 2.5 0 1 0 5 0 a2.5 2.5 0 1 0 -5 0zM182.5 255 a2.5 2.5 0 1 0 5 0 a2.5 2.5 0 1 0 -5 0zM182.5 385 a2.5 2.5 0 1 0 5 0 a2.5 2.5 0 1 0 -5 0zM152.5 505 a2.5 2.5 0 1 0 5 0 a2.5 2.5 0 1 0 -5 0zM192.5 425 a2.5 2.5 0 1 0 5 0 a2.5 2.5 0 1 0 -5 0zM162.5 395 a2.5 2.5 0 1 0 5 0 a2.5 2.5 0 1 0 -5 0zM182.5 295 a2.5 2.5 0 1 0 5 0 a2.5 2.5 0 1 0 -5 0zM162.5 465 a2.5 2.5 0 1 0 5 0 a2.5 2.5 0 1 0 -5 0zM152.5 495 a2.5 2.5 0 1 0 5 0 a2.5 2.5 0 1 0 -5 0zM182.5 335 a2.5 2.5 0 1 0 5 0 a2.5 2.5 0 1 0 -5 0zM152.5 355 a2.5 2.5 0 1 0 5 0 a2.5 2.5 0 1 0 -5 0zM152.5 585 a2.5 2.5 0 1 0 5 0 a2.5 2.5 0 1 0 -5 0zM202.5 435 a2.5 2.5 0 1 0 5 0 a2.5 2.5 0 1 0 -5 0z" fill="rgba(255, 0, 137, 1)"></path><path d="M585 165L575 175L575 185M595 485L585 495L585 505L585 515L585 525L585 535L585 545L585 555L585 565L585 575L595 585L595 595L595 605L595 615M595 675L605 685L605 695L605 705L605 715M585 155L575 165M595 315L605 325L605 335L605 345L605 355L605 365M595 505L605 515L615 525L615 535L615 545L615 555L615 565M605 635L615 645L615 655L615 665L615 675L615 685L615 695L615 705L615 715M605 395L595 405L595 415L595 425L595 435L595 445L595 455L595 465L595 475L585 485M595 265L585 275L575 285M595 515L595 525M605 555L595 565M585 245L575 255L575 265L575 275M605 625L615 635M595 275L605 285L605 295L605 305M585 115L575 125L575 135L575 145L575 155M575 65L565 75M595 665L605 675M555 -5L555 5L565 15L565 25L565 35L565 45L565 55L575 65L575 75L575 85L575 95L575 105L585 115L585 125L585 135L585 145L585 155L585 165L585 175L585 185L585 195L585 205L585 215L585 225L585 235L585 245L585 255L595 265L595 275L595 285L595 295L595 305L595 315L595 325L595 335L595 345L595 355L595 365L605 375L605 385L605 395L605 405L605 415L605 425L605 435L615 445L615 455L615 465L605 475L595 485L595 495L595 505L595 515L605 525L605 535L605 545L605 555L605 565L605 575L605 585L605 595L605 605L605 615L605 625L605 635L605 645L595 655L595 665L595 675L595 685L595 695" stroke="rgba(255, 0, 137, 1)" stroke-width="1.67"></path><path d="M592.5 695 a2.5 2.5 0 1 0 5 0 a2.5 2.5 0 1 0 -5 0zM572.5 185 a2.5 2.5 0 1 0 5 0 a2.5 2.5 0 1 0 -5 0zM592.5 615 a2.5 2.5 0 1 0 5 0 a2.5 2.5 0 1 0 -5 0zM602.5 715 a2.5 2.5 0 1 0 5 0 a2.5 2.5 0 1 0 -5 0zM572.5 165 a2.5 2.5 0 1 0 5 0 a2.5 2.5 0 1 0 -5 0zM602.5 365 a2.5 2.5 0 1 0 5 0 a2.5 2.5 0 1 0 -5 0zM612.5 565 a2.5 2.5 0 1 0 5 0 a2.5 2.5 0 1 0 -5 0zM612.5 715 a2.5 2.5 0 1 0 5 0 a2.5 2.5 0 1 0 -5 0zM582.5 485 a2.5 2.5 0 1 0 5 0 a2.5 2.5 0 1 0 -5 0zM572.5 285 a2.5 2.5 0 1 0 5 0 a2.5 2.5 0 1 0 -5 0zM592.5 525 a2.5 2.5 0 1 0 5 0 a2.5 2.5 0 1 0 -5 0zM592.5 565 a2.5 2.5 0 1 0 5 0 a2.5 2.5 0 1 0 -5 0zM572.5 275 a2.5 2.5 0 1 0 5 0 a2.5 2.5 0 1 0 -5 0zM612.5 635 a2.5 2.5 0 1 0 5 0 a2.5 2.5 0 1 0 -5 0zM602.5 305 a2.5 2.5 0 1 0 5 0 a2.5 2.5 0 1 0 -5 0zM572.5 155 a2.5 2.5 0 1 0 5 0 a2.5 2.5 0 1 0 -5 0zM562.5 75 a2.5 2.5 0 1 0 5 0 a2.5 2.5 0 1 0 -5 0zM602.5 675 a2.5 2.5 0 1 0 5 0 a2.5 2.5 0 1 0 -5 0z" fill="rgba(255, 0, 137, 1)"></path><path d="M145 475L135 485L135 495L135 505L135 515L135 525L135 535L135 545L135 555L135 565L135 575L135 585L135 595M165 235L155 245M145 365L155 375L155 385L155 395L155 405L155 415L155 425L155 435L155 445L155 455M145 385L135 395L135 405M145 465L135 475M165 255L155 265L155 275M145 355L135 365M145 455L135 465M145 375L135 385M195 135L195 145M145 445L135 455M245 -5L235 5L235 15L235 25L225 35L215 45L215 55L205 65L205 75L195 85L195 95L195 105L195 115L195 125L195 135L185 145L185 155L175 165L175 175L165 185L165 195L165 205L165 215L165 225L165 235L165 245L165 255L165 265L165 275L155 285L155 295L155 305L155 315L145 325L145 335L145 345L145 355L145 365L145 375L145 385L145 395L145 405L145 415L145 425L145 435L145 445L145 455L145 465L145 475L145 485L145 495L145 505L145 515L145 525" stroke="rgba(255, 0, 137, 1)" stroke-width="1.67"></path><path d="M142.5 525 a2.5 2.5 0 1 0 5 0 a2.5 2.5 0 1 0 -5 0zM132.5 595 a2.5 2.5 0 1 0 5 0 a2.5 2.5 0 1 0 -5 0zM152.5 245 a2.5 2.5 0 1 0 5 0 a2.5 2.5 0 1 0 -5 0zM152.5 455 a2.5 2.5 0 1 0 5 0 a2.5 2.5 0 1 0 -5 0zM132.5 405 a2.5 2.5 0 1 0 5 0 a2.5 2.5 0 1 0 -5 0zM132.5 475 a2.5 2.5 0 1 0 5 0 a2.5 2.5 0 1 0 -5 0zM152.5 275 a2.5 2.5 0 1 0 5 0 a2.5 2.5 0 1 0 -5 0zM132.5 365 a2.5 2.5 0 1 0 5 0 a2.5 2.5 0 1 0 -5 0zM132.5 465 a2.5 2.5 0 1 0 5 0 a2.5 2.5 0 1 0 -5 0zM132.5 385 a2.5 2.5 0 1 0 5 0 a2.5 2.5 0 1 0 -5 0zM192.5 145 a2.5 2.5 0 1 0 5 0 a2.5 2.5 0 1 0 -5 0zM132.5 455 a2.5 2.5 0 1 0 5 0 a2.5 2.5 0 1 0 -5 0z" fill="rgba(255, 0, 137, 1)"></path><path d="M615 395L625 405L625 415L635 425L635 435L635 445M625 665L625 675L625 685L625 695L625 705L625 715M575 45L575 55M595 185L605 195L605 205M615 585L625 595L625 605L625 615L635 625L635 635L635 645L635 655L635 665L645 675L645 685L645 695M625 545L635 555L645 565L645 575L645 585L645 595L645 605L645 615L645 625L645 635L645 645L645 655L645 665L655 675L655 685L655 695L655 705L655 715M615 315L625 325L625 335L625 345L625 355L625 365L625 375L625 385L625 395L635 405L635 415M605 265L605 275M625 475L615 485L615 495L615 505L615 515M595 245L605 255M595 235L605 245M595 175L605 185M625 505L635 515L635 525L635 535L635 545L645 555L655 565L655 575L655 585L665 595L665 605L665 615L665 625L665 635L665 645L665 655M625 495L635 505M625 565L635 575L635 585L635 595L635 605L635 615M625 485L635 495L645 505L645 515L645 525L645 535L655 545L655 555L665 565L665 575M595 155L605 165L605 175M625 455L635 465L635 475L635 485L645 495L655 505L655 515L655 525L655 535L665 545L665 555L675 565L675 575L675 585L675 595L675 605L675 615L675 625L675 635L675 645L675 655L675 665L675 675L675 685L675 695L675 705M565 -5L575 5L575 15L575 25L575 35L575 45L585 55L585 65L585 75L585 85L585 95L585 105L595 115L595 125L595 135L595 145L595 155L595 165L595 175L595 185L595 195L595 205L595 215L595 225L595 235L595 245L595 255L605 265L615 275L615 285L615 295L615 305L615 315L615 325L615 335L615 345L615 355L615 365L615 375L615 385L615 395L615 405L615 415L625 425L625 435L625 445L625 455L625 465L625 475L625 485L625 495L625 505L625 515L625 525L625 535L625 545L625 555L625 565L625 575L615 585L615 595L615 605L615 615L625 625L625 635L625 645L625 655L625 665L635 675L635 685L635 695L635 705L635 715" stroke="rgba(255, 38, 38, 1)" stroke-width="1.67"></path><path d="M632.5 715 a2.5 2.5 0 1 0 5 0 a2.5 2.5 0 1 0 -5 0zM632.5 445 a2.5 2.5 0 1 0 5 0 a2.5 2.5 0 1 0 -5 0zM622.5 715 a2.5 2.5 0 1 0 5 0 a2.5 2.5 0 1 0 -5 0zM572.5 55 a2.5 2.5 0 1 0 5 0 a2.5 2.5 0 1 0 -5 0zM602.5 205 a2.5 2.5 0 1 0 5 0 a2.5 2.5 0 1 0 -5 0zM642.5 695 a2.5 2.5 0 1 0 5 0 a2.5 2.5 0 1 0 -5 0zM652.5 715 a2.5 2.5 0 1 0 5 0 a2.5 2.5 0 1 0 -5 0zM632.5 415 a2.5 2.5 0 1 0 5 0 a2.5 2.5 0 1 0 -5 0zM602.5 275 a2.5 2.5 0 1 0 5 0 a2.5 2.5 0 1 0 -5 0zM612.5 515 a2.5 2.5 0 1 0 5 0 a2.5 2.5 0 1 0 -5 0zM602.5 255 a2.5 2.5 0 1 0 5 0 a2.5 2.5 0 1 0 -5 0zM602.5 245 a2.5 2.5 0 1 0 5 0 a2.5 2.5 0 1 0 -5 0zM602.5 185 a2.5 2.5 0 1 0 5 0 a2.5 2.5 0 1 0 -5 0zM662.5 655 a2.5 2.5 0 1 0 5 0 a2.5 2.5 0 1 0 -5 0zM632.5 505 a2.5 2.5 0 1 0 5 0 a2.5 2.5 0 1 0 -5 0zM632.5 615 a2.5 2.5 0 1 0 5 0 a2.5 2.5 0 1 0 -5 0zM662.5 575 a2.5 2.5 0 1 0 5 0 a2.5 2.5 0 1 0 -5 0zM602.5 175 a2.5 2.5 0 1 0 5 0 a2.5 2.5 0 1 0 -5 0zM672.5 705 a2.5 2.5 0 1 0 5 0 a2.5 2.5 0 1 0 -5 0z" fill="rgba(255, 38, 38, 1)"></path><path d="M125 485L115 495L115 505L115 515M125 445L115 455L115 465L115 475L115 485L105 495M145 285L135 295L135 305L135 315M135 435L135 445M125 515L125 525L125 535L125 545L125 555L125 565L125 575L125 585M135 415L125 425L125 435L115 445L105 455L105 465L105 475L105 485M105 565L115 575L115 585L115 595M105 555L115 565M135 345L135 355M155 225L155 235M115 545L115 555M165 165L165 175M235 -5L225 5L225 15L225 25L215 35L205 45L205 55L195 65L195 75L185 85L185 95L185 105L185 115L185 125L185 135L175 145L175 155L165 165L155 175L155 185L155 195L155 205L155 215L155 225L145 235L145 245L145 255L145 265L145 275L145 285L145 295L145 305L145 315L135 325L135 335L135 345L125 355L125 365L125 375L125 385L125 395L125 405L135 415L135 425L135 435L125 445L125 455L125 465L125 475L125 485L125 495L125 505L125 515L115 525L115 535L115 545L105 555L105 565L105 575" stroke="rgba(255, 0, 137, 1)" stroke-width="1.67"></path><path d="M102.5 575 a2.5 2.5 0 1 0 5 0 a2.5 2.5 0 1 0 -5 0zM112.5 515 a2.5 2.5 0 1 0 5 0 a2.5 2.5 0 1 0 -5 0zM102.5 495 a2.5 2.5 0 1 0 5 0 a2.5 2.5 0 1 0 -5 0zM132.5 315 a2.5 2.5 0 1 0 5 0 a2.5 2.5 0 1 0 -5 0zM132.5 445 a2.5 2.5 0 1 0 5 0 a2.5 2.5 0 1 0 -5 0zM122.5 585 a2.5 2.5 0 1 0 5 0 a2.5 2.5 0 1 0 -5 0zM102.5 485 a2.5 2.5 0 1 0 5 0 a2.5 2.5 0 1 0 -5 0zM112.5 595 a2.5 2.5 0 1 0 5 0 a2.5 2.5 0 1 0 -5 0zM112.5 565 a2.5 2.5 0 1 0 5 0 a2.5 2.5 0 1 0 -5 0zM132.5 355 a2.5 2.5 0 1 0 5 0 a2.5 2.5 0 1 0 -5 0zM152.5 235 a2.5 2.5 0 1 0 5 0 a2.5 2.5 0 1 0 -5 0zM112.5 555 a2.5 2.5 0 1 0 5 0 a2.5 2.5 0 1 0 -5 0zM162.5 175 a2.5 2.5 0 1 0 5 0 a2.5 2.5 0 1 0 -5 0z" fill="rgba(255, 0, 137, 1)"></path><path d="M595 85L605 95L605 105M605 135L605 145M615 255L625 265L635 275L635 285L635 295L635 305L645 315L645 325L645 335L645 345L645 355L645 365L645 375L655 385M645 425L655 435L655 445L655 455L655 465L655 475L655 485M645 395L655 405L655 415L655 425M595 75L605 85M615 235L625 245L625 255L635 265M615 225L605 235M615 215L605 225M645 385L635 395M575 -5L585 5L585 15L585 25L585 35L595 45L595 55L595 65L595 75L595 85L595 95L595 105L605 115L605 125L605 135L615 145L615 155L615 165L615 175L615 185L615 195L615 205L615 215L615 225L615 235L615 245L615 255L615 265L625 275L625 285L625 295L625 305L635 315L635 325L635 335L635 345L635 355L635 365L635 375L645 385L645 395L645 405L645 415L645 425L645 435" stroke="rgba(40, 255, 251, 1)" stroke-width="1.67"></path><path d="M642.5 435 a2.5 2.5 0 1 0 5 0 a2.5 2.5 0 1 0 -5 0zM602.5 105 a2.5 2.5 0 1 0 5 0 a2.5 2.5 0 1 0 -5 0zM602.5 145 a2.5 2.5 0 1 0 5 0 a2.5 2.5 0 1 0 -5 0zM652.5 385 a2.5 2.5 0 1 0 5 0 a2.5 2.5 0 1 0 -5 0zM652.5 485 a2.5 2.5 0 1 0 5 0 a2.5 2.5 0 1 0 -5 0zM652.5 425 a2.5 2.5 0 1 0 5 0 a2.5 2.5 0 1 0 -5 0zM602.5 85 a2.5 2.5 0 1 0 5 0 a2.5 2.5 0 1 0 -5 0zM632.5 265 a2.5 2.5 0 1 0 5 0 a2.5 2.5 0 1 0 -5 0zM602.5 235 a2.5 2.5 0 1 0 5 0 a2.5 2.5 0 1 0 -5 0zM602.5 225 a2.5 2.5 0 1 0 5 0 a2.5 2.5 0 1 0 -5 0zM632.5 395 a2.5 2.5 0 1 0 5 0 a2.5 2.5 0 1 0 -5 0z" fill="rgba(40, 255, 251, 1)"></path><path d="M195 45L195 55M225 -5L215 5L215 15L215 25L205 35L195 45L185 55L185 65" stroke="rgba(85, 255, 0, 1)" stroke-width="1.67"></path><path d="M182.5 65 a2.5 2.5 0 1 0 5 0 a2.5 2.5 0 1 0 -5 0zM192.5 55 a2.5 2.5 0 1 0 5 0 a2.5 2.5 0 1 0 -5 0z" fill="rgba(85, 255, 0, 1)"></path><path d="M605 45L615 55L615 65L625 75L625 85L625 95M625 185L635 195L635 205L635 215L645 225L645 235L645 245L645 255L645 265M615 105L625 115M625 155L635 165L635 175L635 185M625 145L635 155M615 125L625 135L635 145L645 155M585 -5L595 5L595 15L595 25L595 35L605 45L605 55L605 65L615 75L615 85L615 95L615 105L615 115L615 125L615 135L625 145L625 155L625 165L625 175L625 185L625 195L625 205L625 215L635 225" stroke="rgba(255, 38, 38, 1)" stroke-width="1.67"></path><path d="M632.5 225 a2.5 2.5 0 1 0 5 0 a2.5 2.5 0 1 0 -5 0zM622.5 95 a2.5 2.5 0 1 0 5 0 a2.5 2.5 0 1 0 -5 0zM642.5 265 a2.5 2.5 0 1 0 5 0 a2.5 2.5 0 1 0 -5 0zM622.5 115 a2.5 2.5 0 1 0 5 0 a2.5 2.5 0 1 0 -5 0zM632.5 185 a2.5 2.5 0 1 0 5 0 a2.5 2.5 0 1 0 -5 0zM632.5 155 a2.5 2.5 0 1 0 5 0 a2.5 2.5 0 1 0 -5 0zM642.5 155 a2.5 2.5 0 1 0 5 0 a2.5 2.5 0 1 0 -5 0z" fill="rgba(255, 38, 38, 1)"></path><path d="M175 115L165 125L165 135L155 145M115 385L105 395M165 145L165 155M135 275L135 285M175 95L165 105L165 115M125 335L115 345M205 15L195 25M175 85L165 95M115 375L105 385M175 75L165 85M215 -5L205 5L205 15L205 25L195 35L185 45L175 55L175 65L175 75L175 85L175 95L175 105L175 115L175 125L175 135L165 145L155 155L155 165L145 175L145 185L145 195L145 205L145 215L145 225L135 235L135 245L135 255L135 265L135 275L125 285L125 295L125 305L125 315L125 325L125 335L125 345L115 355L115 365L115 375L115 385L115 395L115 405L115 415" stroke="rgba(85, 255, 0, 1)" stroke-width="1.67"></path><path d="M112.5 415 a2.5 2.5 0 1 0 5 0 a2.5 2.5 0 1 0 -5 0zM152.5 145 a2.5 2.5 0 1 0 5 0 a2.5 2.5 0 1 0 -5 0zM102.5 395 a2.5 2.5 0 1 0 5 0 a2.5 2.5 0 1 0 -5 0zM162.5 155 a2.5 2.5 0 1 0 5 0 a2.5 2.5 0 1 0 -5 0zM132.5 285 a2.5 2.5 0 1 0 5 0 a2.5 2.5 0 1 0 -5 0zM162.5 115 a2.5 2.5 0 1 0 5 0 a2.5 2.5 0 1 0 -5 0zM112.5 345 a2.5 2.5 0 1 0 5 0 a2.5 2.5 0 1 0 -5 0zM192.5 25 a2.5 2.5 0 1 0 5 0 a2.5 2.5 0 1 0 -5 0zM162.5 95 a2.5 2.5 0 1 0 5 0 a2.5 2.5 0 1 0 -5 0zM102.5 385 a2.5 2.5 0 1 0 5 0 a2.5 2.5 0 1 0 -5 0zM162.5 85 a2.5 2.5 0 1 0 5 0 a2.5 2.5 0 1 0 -5 0z" fill="rgba(85, 255, 0, 1)"></path><path d="M605 25L615 35L615 45L625 55L625 65M605 5L615 15L615 25L625 35L625 45M595 -5L605 5L605 15L605 25L605 35" stroke="rgba(255, 38, 38, 1)" stroke-width="1.67"></path><path d="M602.5 35 a2.5 2.5 0 1 0 5 0 a2.5 2.5 0 1 0 -5 0zM622.5 65 a2.5 2.5 0 1 0 5 0 a2.5 2.5 0 1 0 -5 0zM622.5 45 a2.5 2.5 0 1 0 5 0 a2.5 2.5 0 1 0 -5 0z" fill="rgba(255, 38, 38, 1)"></path><path d="M145 155L135 165L125 175M155 115L155 125L155 135M115 285L105 295M155 95L145 105L135 115L125 125L125 135L125 145L125 155L125 165L115 175L115 185L115 195L115 205L115 215M185 15L175 25L175 35L165 45L155 55L145 65L145 75L145 85M105 415L105 425L105 435L105 445M95 385L85 395L85 405L85 415L85 425L85 435L85 445L85 455L85 465L85 475M145 145L135 155M85 585L95 595L95 605L95 615M95 495L95 505L95 515L95 525L95 535L95 545L85 555L75 565L75 575L75 585L75 595L75 605L75 615L75 625L75 635L85 645L85 655L85 665M145 135L135 145M115 305L105 315L95 325L95 335L95 345L95 355L95 365L85 375L85 385L75 395L75 405M165 55L165 65L165 75M125 255L115 265L115 275L105 285L95 295L95 305L95 315L85 325L85 335L85 345L85 355L85 365L75 375L75 385L65 395L65 405L65 415M85 625L95 635L95 645L95 655L95 665L95 675L95 685L95 695L105 705L115 715M105 365L105 375M205 -5L195 5L185 15L185 25L185 35L175 45L165 55L155 65L155 75L155 85L155 95L155 105L155 115L145 125L145 135L145 145L145 155L145 165L135 175L135 185L135 195L135 205L135 215L135 225L125 235L125 245L125 255L125 265L125 275L115 285L115 295L115 305L115 315L105 325L105 335L105 345L105 355L105 365L95 375L95 385L95 395L105 405L105 415L95 425L95 435L95 445L95 455L95 465L95 475L95 485L95 495L105 505L105 515L105 525L105 535L105 545L95 555L95 565L95 575L85 585L85 595L85 605L85 615L85 625L85 635" stroke="rgba(255, 38, 38, 1)" stroke-width="1.67"></path><path d="M82.5 635 a2.5 2.5 0 1 0 5 0 a2.5 2.5 0 1 0 -5 0zM122.5 175 a2.5 2.5 0 1 0 5 0 a2.5 2.5 0 1 0 -5 0zM152.5 135 a2.5 2.5 0 1 0 5 0 a2.5 2.5 0 1 0 -5 0zM102.5 295 a2.5 2.5 0 1 0 5 0 a2.5 2.5 0 1 0 -5 0zM112.5 215 a2.5 2.5 0 1 0 5 0 a2.5 2.5 0 1 0 -5 0zM142.5 85 a2.5 2.5 0 1 0 5 0 a2.5 2.5 0 1 0 -5 0zM102.5 445 a2.5 2.5 0 1 0 5 0 a2.5 2.5 0 1 0 -5 0zM82.5 475 a2.5 2.5 0 1 0 5 0 a2.5 2.5 0 1 0 -5 0zM132.5 155 a2.5 2.5 0 1 0 5 0 a2.5 2.5 0 1 0 -5 0zM92.5 615 a2.5 2.5 0 1 0 5 0 a2.5 2.5 0 1 0 -5 0zM82.5 665 a2.5 2.5 0 1 0 5 0 a2.5 2.5 0 1 0 -5 0zM132.5 145 a2.5 2.5 0 1 0 5 0 a2.5 2.5 0 1 0 -5 0zM72.5 405 a2.5 2.5 0 1 0 5 0 a2.5 2.5 0 1 0 -5 0zM162.5 75 a2.5 2.5 0 1 0 5 0 a2.5 2.5 0 1 0 -5 0zM62.5 415 a2.5 2.5 0 1 0 5 0 a2.5 2.5 0 1 0 -5 0zM112.5 715 a2.5 2.5 0 1 0 5 0 a2.5 2.5 0 1 0 -5 0zM102.5 375 a2.5 2.5 0 1 0 5 0 a2.5 2.5 0 1 0 -5 0z" fill="rgba(255, 38, 38, 1)"></path></g></g><defs><mask id="SvgjsMask3010"><rect width="800" height="800" fill="#ffffff"></rect></mask><linearGradient x1="0%" y1="0%" x2="100%" y2="100%" gradientUnits="userSpaceOnUse" id="SvgjsLinearGradient3011"><stop stop-color="rgba(3, 14, 140, 1)" offset="0.29"></stop><stop stop-color="rgba(211, 0, 0, 1)" offset="1"></stop></linearGradient><mask id="SvgjsMask3012"><rect width="800" height="800" fill="white"></rect><path d="M373.75 595 a1.25 1.25 0 1 0 2.5 0 a1.25 1.25 0 1 0 -2.5 0zM413.75 285 a1.25 1.25 0 1 0 2.5 0 a1.25 1.25 0 1 0 -2.5 0zM393.75 255 a1.25 1.25 0 1 0 2.5 0 a1.25 1.25 0 1 0 -2.5 0zM383.75 535 a1.25 1.25 0 1 0 2.5 0 a1.25 1.25 0 1 0 -2.5 0zM383.75 595 a1.25 1.25 0 1 0 2.5 0 a1.25 1.25 0 1 0 -2.5 0zM393.75 585 a1.25 1.25 0 1 0 2.5 0 a1.25 1.25 0 1 0 -2.5 0zM393.75 335 a1.25 1.25 0 1 0 2.5 0 a1.25 1.25 0 1 0 -2.5 0zM363.75 525 a1.25 1.25 0 1 0 2.5 0 a1.25 1.25 0 1 0 -2.5 0zM393.75 475 a1.25 1.25 0 1 0 2.5 0 a1.25 1.25 0 1 0 -2.5 0zM353.75 515 a1.25 1.25 0 1 0 2.5 0 a1.25 1.25 0 1 0 -2.5 0zM363.75 575 a1.25 1.25 0 1 0 2.5 0 a1.25 1.25 0 1 0 -2.5 0zM393.75 445 a1.25 1.25 0 1 0 2.5 0 a1.25 1.25 0 1 0 -2.5 0zM413.75 265 a1.25 1.25 0 1 0 2.5 0 a1.25 1.25 0 1 0 -2.5 0zM373.75 405 a1.25 1.25 0 1 0 2.5 0 a1.25 1.25 0 1 0 -2.5 0zM393.75 365 a1.25 1.25 0 1 0 2.5 0 a1.25 1.25 0 1 0 -2.5 0zM393.75 195 a1.25 1.25 0 1 0 2.5 0 a1.25 1.25 0 1 0 -2.5 0z" fill="black"></path><path d="M383.75 265 a1.25 1.25 0 1 0 2.5 0 a1.25 1.25 0 1 0 -2.5 0zM363.75 255 a1.25 1.25 0 1 0 2.5 0 a1.25 1.25 0 1 0 -2.5 0zM363.75 195 a1.25 1.25 0 1 0 2.5 0 a1.25 1.25 0 1 0 -2.5 0zM373.75 265 a1.25 1.25 0 1 0 2.5 0 a1.25 1.25 0 1 0 -2.5 0zM373.75 115 a1.25 1.25 0 1 0 2.5 0 a1.25 1.25 0 1 0 -2.5 0zM373.75 105 a1.25 1.25 0 1 0 2.5 0 a1.25 1.25 0 1 0 -2.5 0zM363.75 245 a1.25 1.25 0 1 0 2.5 0 a1.25 1.25 0 1 0 -2.5 0zM373.75 215 a1.25 1.25 0 1 0 2.5 0 a1.25 1.25 0 1 0 -2.5 0z" fill="black"></path><path d="M413.75 185 a1.25 1.25 0 1 0 2.5 0 a1.25 1.25 0 1 0 -2.5 0zM413.75 145 a1.25 1.25 0 1 0 2.5 0 a1.25 1.25 0 1 0 -2.5 0zM423.75 35 a1.25 1.25 0 1 0 2.5 0 a1.25 1.25 0 1 0 -2.5 0zM413.75 135 a1.25 1.25 0 1 0 2.5 0 a1.25 1.25 0 1 0 -2.5 0zM423.75 15 a1.25 1.25 0 1 0 2.5 0 a1.25 1.25 0 1 0 -2.5 0zM413.75 95 a1.25 1.25 0 1 0 2.5 0 a1.25 1.25 0 1 0 -2.5 0z" fill="black"></path><path d="M353.75 325 a1.25 1.25 0 1 0 2.5 0 a1.25 1.25 0 1 0 -2.5 0zM363.75 225 a1.25 1.25 0 1 0 2.5 0 a1.25 1.25 0 1 0 -2.5 0zM363.75 175 a1.25 1.25 0 1 0 2.5 0 a1.25 1.25 0 1 0 -2.5 0zM363.75 315 a1.25 1.25 0 1 0 2.5 0 a1.25 1.25 0 1 0 -2.5 0zM363.75 285 a1.25 1.25 0 1 0 2.5 0 a1.25 1.25 0 1 0 -2.5 0zM373.75 95 a1.25 1.25 0 1 0 2.5 0 a1.25 1.25 0 1 0 -2.5 0zM363.75 155 a1.25 1.25 0 1 0 2.5 0 a1.25 1.25 0 1 0 -2.5 0zM363.75 215 a1.25 1.25 0 1 0 2.5 0 a1.25 1.25 0 1 0 -2.5 0z" fill="black"></path><path d="M323.75 635 a1.25 1.25 0 1 0 2.5 0 a1.25 1.25 0 1 0 -2.5 0zM313.75 605 a1.25 1.25 0 1 0 2.5 0 a1.25 1.25 0 1 0 -2.5 0zM333.75 495 a1.25 1.25 0 1 0 2.5 0 a1.25 1.25 0 1 0 -2.5 0zM323.75 715 a1.25 1.25 0 1 0 2.5 0 a1.25 1.25 0 1 0 -2.5 0zM333.75 595 a1.25 1.25 0 1 0 2.5 0 a1.25 1.25 0 1 0 -2.5 0zM343.75 675 a1.25 1.25 0 1 0 2.5 0 a1.25 1.25 0 1 0 -2.5 0zM323.75 335 a1.25 1.25 0 1 0 2.5 0 a1.25 1.25 0 1 0 -2.5 0zM343.75 355 a1.25 1.25 0 1 0 2.5 0 a1.25 1.25 0 1 0 -2.5 0zM353.75 425 a1.25 1.25 0 1 0 2.5 0 a1.25 1.25 0 1 0 -2.5 0zM343.75 375 a1.25 1.25 0 1 0 2.5 0 a1.25 1.25 0 1 0 -2.5 0zM333.75 555 a1.25 1.25 0 1 0 2.5 0 a1.25 1.25 0 1 0 -2.5 0zM333.75 545 a1.25 1.25 0 1 0 2.5 0 a1.25 1.25 0 1 0 -2.5 0zM303.75 595 a1.25 1.25 0 1 0 2.5 0 a1.25 1.25 0 1 0 -2.5 0zM293.75 685 a1.25 1.25 0 1 0 2.5 0 a1.25 1.25 0 1 0 -2.5 0zM343.75 385 a1.25 1.25 0 1 0 2.5 0 a1.25 1.25 0 1 0 -2.5 0zM373.75 65 a1.25 1.25 0 1 0 2.5 0 a1.25 1.25 0 1 0 -2.5 0z" fill="black"></path><path d="M423.75 155 a1.25 1.25 0 1 0 2.5 0 a1.25 1.25 0 1 0 -2.5 0zM433.75 65 a1.25 1.25 0 1 0 2.5 0 a1.25 1.25 0 1 0 -2.5 0zM413.75 85 a1.25 1.25 0 1 0 2.5 0 a1.25 1.25 0 1 0 -2.5 0zM433.75 55 a1.25 1.25 0 1 0 2.5 0 a1.25 1.25 0 1 0 -2.5 0zM433.75 45 a1.25 1.25 0 1 0 2.5 0 a1.25 1.25 0 1 0 -2.5 0z" fill="black"></path><path d="M313.75 495 a1.25 1.25 0 1 0 2.5 0 a1.25 1.25 0 1 0 -2.5 0zM293.75 475 a1.25 1.25 0 1 0 2.5 0 a1.25 1.25 0 1 0 -2.5 0zM363.75 55 a1.25 1.25 0 1 0 2.5 0 a1.25 1.25 0 1 0 -2.5 0zM293.75 575 a1.25 1.25 0 1 0 2.5 0 a1.25 1.25 0 1 0 -2.5 0zM303.75 305 a1.25 1.25 0 1 0 2.5 0 a1.25 1.25 0 1 0 -2.5 0zM323.75 155 a1.25 1.25 0 1 0 2.5 0 a1.25 1.25 0 1 0 -2.5 0zM273.75 395 a1.25 1.25 0 1 0 2.5 0 a1.25 1.25 0 1 0 -2.5 0zM323.75 215 a1.25 1.25 0 1 0 2.5 0 a1.25 1.25 0 1 0 -2.5 0zM323.75 325 a1.25 1.25 0 1 0 2.5 0 a1.25 1.25 0 1 0 -2.5 0zM323.75 415 a1.25 1.25 0 1 0 2.5 0 a1.25 1.25 0 1 0 -2.5 0zM303.75 355 a1.25 1.25 0 1 0 2.5 0 a1.25 1.25 0 1 0 -2.5 0zM283.75 425 a1.25 1.25 0 1 0 2.5 0 a1.25 1.25 0 1 0 -2.5 0zM323.75 195 a1.25 1.25 0 1 0 2.5 0 a1.25 1.25 0 1 0 -2.5 0z" fill="black"></path><path d="M413.75 355 a1.25 1.25 0 1 0 2.5 0 a1.25 1.25 0 1 0 -2.5 0zM443.75 325 a1.25 1.25 0 1 0 2.5 0 a1.25 1.25 0 1 0 -2.5 0zM433.75 335 a1.25 1.25 0 1 0 2.5 0 a1.25 1.25 0 1 0 -2.5 0zM443.75 175 a1.25 1.25 0 1 0 2.5 0 a1.25 1.25 0 1 0 -2.5 0zM433.75 415 a1.25 1.25 0 1 0 2.5 0 a1.25 1.25 0 1 0 -2.5 0zM433.75 375 a1.25 1.25 0 1 0 2.5 0 a1.25 1.25 0 1 0 -2.5 0zM423.75 225 a1.25 1.25 0 1 0 2.5 0 a1.25 1.25 0 1 0 -2.5 0zM443.75 15 a1.25 1.25 0 1 0 2.5 0 a1.25 1.25 0 1 0 -2.5 0zM453.75 195 a1.25 1.25 0 1 0 2.5 0 a1.25 1.25 0 1 0 -2.5 0zM433.75 95 a1.25 1.25 0 1 0 2.5 0 a1.25 1.25 0 1 0 -2.5 0z" fill="black"></path><path d="M323.75 135 a1.25 1.25 0 1 0 2.5 0 a1.25 1.25 0 1 0 -2.5 0zM343.75 45 a1.25 1.25 0 1 0 2.5 0 a1.25 1.25 0 1 0 -2.5 0zM343.75 25 a1.25 1.25 0 1 0 2.5 0 a1.25 1.25 0 1 0 -2.5 0z" fill="black"></path><path d="M493.75 505 a1.25 1.25 0 1 0 2.5 0 a1.25 1.25 0 1 0 -2.5 0zM463.75 485 a1.25 1.25 0 1 0 2.5 0 a1.25 1.25 0 1 0 -2.5 0zM463.75 215 a1.25 1.25 0 1 0 2.5 0 a1.25 1.25 0 1 0 -2.5 0zM453.75 365 a1.25 1.25 0 1 0 2.5 0 a1.25 1.25 0 1 0 -2.5 0zM463.75 195 a1.25 1.25 0 1 0 2.5 0 a1.25 1.25 0 1 0 -2.5 0zM483.75 535 a1.25 1.25 0 1 0 2.5 0 a1.25 1.25 0 1 0 -2.5 0zM453.75 45 a1.25 1.25 0 1 0 2.5 0 a1.25 1.25 0 1 0 -2.5 0zM483.75 325 a1.25 1.25 0 1 0 2.5 0 a1.25 1.25 0 1 0 -2.5 0zM513.75 565 a1.25 1.25 0 1 0 2.5 0 a1.25 1.25 0 1 0 -2.5 0zM473.75 535 a1.25 1.25 0 1 0 2.5 0 a1.25 1.25 0 1 0 -2.5 0zM473.75 425 a1.25 1.25 0 1 0 2.5 0 a1.25 1.25 0 1 0 -2.5 0zM453.75 165 a1.25 1.25 0 1 0 2.5 0 a1.25 1.25 0 1 0 -2.5 0zM453.75 305 a1.25 1.25 0 1 0 2.5 0 a1.25 1.25 0 1 0 -2.5 0zM483.75 305 a1.25 1.25 0 1 0 2.5 0 a1.25 1.25 0 1 0 -2.5 0z" fill="black"></path><path d="M313.75 225 a1.25 1.25 0 1 0 2.5 0 a1.25 1.25 0 1 0 -2.5 0zM323.75 185 a1.25 1.25 0 1 0 2.5 0 a1.25 1.25 0 1 0 -2.5 0zM343.75 15 a1.25 1.25 0 1 0 2.5 0 a1.25 1.25 0 1 0 -2.5 0z" fill="black"></path><path d="M503.75 485 a1.25 1.25 0 1 0 2.5 0 a1.25 1.25 0 1 0 -2.5 0zM503.75 345 a1.25 1.25 0 1 0 2.5 0 a1.25 1.25 0 1 0 -2.5 0zM483.75 285 a1.25 1.25 0 1 0 2.5 0 a1.25 1.25 0 1 0 -2.5 0zM513.75 415 a1.25 1.25 0 1 0 2.5 0 a1.25 1.25 0 1 0 -2.5 0zM513.75 505 a1.25 1.25 0 1 0 2.5 0 a1.25 1.25 0 1 0 -2.5 0zM523.75 485 a1.25 1.25 0 1 0 2.5 0 a1.25 1.25 0 1 0 -2.5 0zM503.75 325 a1.25 1.25 0 1 0 2.5 0 a1.25 1.25 0 1 0 -2.5 0zM493.75 425 a1.25 1.25 0 1 0 2.5 0 a1.25 1.25 0 1 0 -2.5 0zM483.75 275 a1.25 1.25 0 1 0 2.5 0 a1.25 1.25 0 1 0 -2.5 0zM483.75 145 a1.25 1.25 0 1 0 2.5 0 a1.25 1.25 0 1 0 -2.5 0zM533.75 555 a1.25 1.25 0 1 0 2.5 0 a1.25 1.25 0 1 0 -2.5 0zM533.75 465 a1.25 1.25 0 1 0 2.5 0 a1.25 1.25 0 1 0 -2.5 0zM503.75 375 a1.25 1.25 0 1 0 2.5 0 a1.25 1.25 0 1 0 -2.5 0z" fill="black"></path><path d="M303.75 235 a1.25 1.25 0 1 0 2.5 0 a1.25 1.25 0 1 0 -2.5 0zM293.75 285 a1.25 1.25 0 1 0 2.5 0 a1.25 1.25 0 1 0 -2.5 0zM293.75 225 a1.25 1.25 0 1 0 2.5 0 a1.25 1.25 0 1 0 -2.5 0zM293.75 215 a1.25 1.25 0 1 0 2.5 0 a1.25 1.25 0 1 0 -2.5 0zM293.75 205 a1.25 1.25 0 1 0 2.5 0 a1.25 1.25 0 1 0 -2.5 0zM293.75 185 a1.25 1.25 0 1 0 2.5 0 a1.25 1.25 0 1 0 -2.5 0z" fill="black"></path><path d="M503.75 295 a1.25 1.25 0 1 0 2.5 0 a1.25 1.25 0 1 0 -2.5 0zM503.75 205 a1.25 1.25 0 1 0 2.5 0 a1.25 1.25 0 1 0 -2.5 0zM483.75 125 a1.25 1.25 0 1 0 2.5 0 a1.25 1.25 0 1 0 -2.5 0zM503.75 145 a1.25 1.25 0 1 0 2.5 0 a1.25 1.25 0 1 0 -2.5 0zM503.75 185 a1.25 1.25 0 1 0 2.5 0 a1.25 1.25 0 1 0 -2.5 0zM513.75 265 a1.25 1.25 0 1 0 2.5 0 a1.25 1.25 0 1 0 -2.5 0zM503.75 225 a1.25 1.25 0 1 0 2.5 0 a1.25 1.25 0 1 0 -2.5 0zM503.75 265 a1.25 1.25 0 1 0 2.5 0 a1.25 1.25 0 1 0 -2.5 0z" fill="black"></path><path d="M303.75 125 a1.25 1.25 0 1 0 2.5 0 a1.25 1.25 0 1 0 -2.5 0z" fill="black"></path><path d="M293.75 155 a1.25 1.25 0 1 0 2.5 0 a1.25 1.25 0 1 0 -2.5 0zM293.75 75 a1.25 1.25 0 1 0 2.5 0 a1.25 1.25 0 1 0 -2.5 0zM303.75 85 a1.25 1.25 0 1 0 2.5 0 a1.25 1.25 0 1 0 -2.5 0zM293.75 55 a1.25 1.25 0 1 0 2.5 0 a1.25 1.25 0 1 0 -2.5 0zM293.75 45 a1.25 1.25 0 1 0 2.5 0 a1.25 1.25 0 1 0 -2.5 0z" fill="black"></path><path d="M503.75 105 a1.25 1.25 0 1 0 2.5 0 a1.25 1.25 0 1 0 -2.5 0z" fill="black"></path><path d="M283.75 295 a1.25 1.25 0 1 0 2.5 0 a1.25 1.25 0 1 0 -2.5 0zM273.75 245 a1.25 1.25 0 1 0 2.5 0 a1.25 1.25 0 1 0 -2.5 0zM263.75 265 a1.25 1.25 0 1 0 2.5 0 a1.25 1.25 0 1 0 -2.5 0zM273.75 55 a1.25 1.25 0 1 0 2.5 0 a1.25 1.25 0 1 0 -2.5 0zM273.75 165 a1.25 1.25 0 1 0 2.5 0 a1.25 1.25 0 1 0 -2.5 0zM273.75 325 a1.25 1.25 0 1 0 2.5 0 a1.25 1.25 0 1 0 -2.5 0zM263.75 375 a1.25 1.25 0 1 0 2.5 0 a1.25 1.25 0 1 0 -2.5 0zM293.75 35 a1.25 1.25 0 1 0 2.5 0 a1.25 1.25 0 1 0 -2.5 0z" fill="black"></path><path d="M513.75 395 a1.25 1.25 0 1 0 2.5 0 a1.25 1.25 0 1 0 -2.5 0zM523.75 345 a1.25 1.25 0 1 0 2.5 0 a1.25 1.25 0 1 0 -2.5 0zM503.75 365 a1.25 1.25 0 1 0 2.5 0 a1.25 1.25 0 1 0 -2.5 0zM523.75 295 a1.25 1.25 0 1 0 2.5 0 a1.25 1.25 0 1 0 -2.5 0zM523.75 435 a1.25 1.25 0 1 0 2.5 0 a1.25 1.25 0 1 0 -2.5 0zM503.75 175 a1.25 1.25 0 1 0 2.5 0 a1.25 1.25 0 1 0 -2.5 0zM513.75 145 a1.25 1.25 0 1 0 2.5 0 a1.25 1.25 0 1 0 -2.5 0zM533.75 415 a1.25 1.25 0 1 0 2.5 0 a1.25 1.25 0 1 0 -2.5 0zM523.75 375 a1.25 1.25 0 1 0 2.5 0 a1.25 1.25 0 1 0 -2.5 0zM533.75 285 a1.25 1.25 0 1 0 2.5 0 a1.25 1.25 0 1 0 -2.5 0zM533.75 385 a1.25 1.25 0 1 0 2.5 0 a1.25 1.25 0 1 0 -2.5 0z" fill="black"></path><path d="M233.75 315 a1.25 1.25 0 1 0 2.5 0 a1.25 1.25 0 1 0 -2.5 0zM223.75 315 a1.25 1.25 0 1 0 2.5 0 a1.25 1.25 0 1 0 -2.5 0zM253.75 225 a1.25 1.25 0 1 0 2.5 0 a1.25 1.25 0 1 0 -2.5 0zM223.75 255 a1.25 1.25 0 1 0 2.5 0 a1.25 1.25 0 1 0 -2.5 0zM253.75 145 a1.25 1.25 0 1 0 2.5 0 a1.25 1.25 0 1 0 -2.5 0zM263.75 135 a1.25 1.25 0 1 0 2.5 0 a1.25 1.25 0 1 0 -2.5 0zM263.75 105 a1.25 1.25 0 1 0 2.5 0 a1.25 1.25 0 1 0 -2.5 0zM253.75 135 a1.25 1.25 0 1 0 2.5 0 a1.25 1.25 0 1 0 -2.5 0zM223.75 235 a1.25 1.25 0 1 0 2.5 0 a1.25 1.25 0 1 0 -2.5 0z" fill="black"></path><path d="M553.75 575 a1.25 1.25 0 1 0 2.5 0 a1.25 1.25 0 1 0 -2.5 0zM533.75 265 a1.25 1.25 0 1 0 2.5 0 a1.25 1.25 0 1 0 -2.5 0zM533.75 105 a1.25 1.25 0 1 0 2.5 0 a1.25 1.25 0 1 0 -2.5 0zM533.75 95 a1.25 1.25 0 1 0 2.5 0 a1.25 1.25 0 1 0 -2.5 0zM573.75 605 a1.25 1.25 0 1 0 2.5 0 a1.25 1.25 0 1 0 -2.5 0zM533.75 55 a1.25 1.25 0 1 0 2.5 0 a1.25 1.25 0 1 0 -2.5 0zM573.75 545 a1.25 1.25 0 1 0 2.5 0 a1.25 1.25 0 1 0 -2.5 0zM553.75 455 a1.25 1.25 0 1 0 2.5 0 a1.25 1.25 0 1 0 -2.5 0zM553.75 495 a1.25 1.25 0 1 0 2.5 0 a1.25 1.25 0 1 0 -2.5 0zM533.75 335 a1.25 1.25 0 1 0 2.5 0 a1.25 1.25 0 1 0 -2.5 0zM533.75 325 a1.25 1.25 0 1 0 2.5 0 a1.25 1.25 0 1 0 -2.5 0zM563.75 505 a1.25 1.25 0 1 0 2.5 0 a1.25 1.25 0 1 0 -2.5 0zM533.75 45 a1.25 1.25 0 1 0 2.5 0 a1.25 1.25 0 1 0 -2.5 0zM533.75 685 a1.25 1.25 0 1 0 2.5 0 a1.25 1.25 0 1 0 -2.5 0zM583.75 715 a1.25 1.25 0 1 0 2.5 0 a1.25 1.25 0 1 0 -2.5 0z" fill="black"></path><path d="M183.75 345 a1.25 1.25 0 1 0 2.5 0 a1.25 1.25 0 1 0 -2.5 0zM193.75 275 a1.25 1.25 0 1 0 2.5 0 a1.25 1.25 0 1 0 -2.5 0zM233.75 115 a1.25 1.25 0 1 0 2.5 0 a1.25 1.25 0 1 0 -2.5 0zM213.75 245 a1.25 1.25 0 1 0 2.5 0 a1.25 1.25 0 1 0 -2.5 0zM223.75 205 a1.25 1.25 0 1 0 2.5 0 a1.25 1.25 0 1 0 -2.5 0zM233.75 195 a1.25 1.25 0 1 0 2.5 0 a1.25 1.25 0 1 0 -2.5 0zM193.75 345 a1.25 1.25 0 1 0 2.5 0 a1.25 1.25 0 1 0 -2.5 0zM203.75 215 a1.25 1.25 0 1 0 2.5 0 a1.25 1.25 0 1 0 -2.5 0zM253.75 95 a1.25 1.25 0 1 0 2.5 0 a1.25 1.25 0 1 0 -2.5 0zM193.75 295 a1.25 1.25 0 1 0 2.5 0 a1.25 1.25 0 1 0 -2.5 0z" fill="black"></path><path d="M193.75 195 a1.25 1.25 0 1 0 2.5 0 a1.25 1.25 0 1 0 -2.5 0zM233.75 95 a1.25 1.25 0 1 0 2.5 0 a1.25 1.25 0 1 0 -2.5 0z" fill="black"></path><path d="M533.75 205 a1.25 1.25 0 1 0 2.5 0 a1.25 1.25 0 1 0 -2.5 0zM533.75 15 a1.25 1.25 0 1 0 2.5 0 a1.25 1.25 0 1 0 -2.5 0zM543.75 135 a1.25 1.25 0 1 0 2.5 0 a1.25 1.25 0 1 0 -2.5 0zM543.75 195 a1.25 1.25 0 1 0 2.5 0 a1.25 1.25 0 1 0 -2.5 0zM543.75 125 a1.25 1.25 0 1 0 2.5 0 a1.25 1.25 0 1 0 -2.5 0zM543.75 115 a1.25 1.25 0 1 0 2.5 0 a1.25 1.25 0 1 0 -2.5 0z" fill="black"></path><path d="M183.75 215 a1.25 1.25 0 1 0 2.5 0 a1.25 1.25 0 1 0 -2.5 0z" fill="black"></path><path d="M573.75 345 a1.25 1.25 0 1 0 2.5 0 a1.25 1.25 0 1 0 -2.5 0zM573.75 225 a1.25 1.25 0 1 0 2.5 0 a1.25 1.25 0 1 0 -2.5 0zM553.75 325 a1.25 1.25 0 1 0 2.5 0 a1.25 1.25 0 1 0 -2.5 0zM543.75 235 a1.25 1.25 0 1 0 2.5 0 a1.25 1.25 0 1 0 -2.5 0zM563.75 265 a1.25 1.25 0 1 0 2.5 0 a1.25 1.25 0 1 0 -2.5 0zM573.75 315 a1.25 1.25 0 1 0 2.5 0 a1.25 1.25 0 1 0 -2.5 0zM573.75 375 a1.25 1.25 0 1 0 2.5 0 a1.25 1.25 0 1 0 -2.5 0zM583.75 435 a1.25 1.25 0 1 0 2.5 0 a1.25 1.25 0 1 0 -2.5 0zM543.75 225 a1.25 1.25 0 1 0 2.5 0 a1.25 1.25 0 1 0 -2.5 0zM543.75 215 a1.25 1.25 0 1 0 2.5 0 a1.25 1.25 0 1 0 -2.5 0z" fill="black"></path><path d="M163.75 555 a1.25 1.25 0 1 0 2.5 0 a1.25 1.25 0 1 0 -2.5 0zM223.75 585 a1.25 1.25 0 1 0 2.5 0 a1.25 1.25 0 1 0 -2.5 0zM173.75 515 a1.25 1.25 0 1 0 2.5 0 a1.25 1.25 0 1 0 -2.5 0zM183.75 255 a1.25 1.25 0 1 0 2.5 0 a1.25 1.25 0 1 0 -2.5 0zM183.75 385 a1.25 1.25 0 1 0 2.5 0 a1.25 1.25 0 1 0 -2.5 0zM153.75 505 a1.25 1.25 0 1 0 2.5 0 a1.25 1.25 0 1 0 -2.5 0zM193.75 425 a1.25 1.25 0 1 0 2.5 0 a1.25 1.25 0 1 0 -2.5 0zM163.75 395 a1.25 1.25 0 1 0 2.5 0 a1.25 1.25 0 1 0 -2.5 0zM183.75 295 a1.25 1.25 0 1 0 2.5 0 a1.25 1.25 0 1 0 -2.5 0zM163.75 465 a1.25 1.25 0 1 0 2.5 0 a1.25 1.25 0 1 0 -2.5 0zM153.75 495 a1.25 1.25 0 1 0 2.5 0 a1.25 1.25 0 1 0 -2.5 0zM183.75 335 a1.25 1.25 0 1 0 2.5 0 a1.25 1.25 0 1 0 -2.5 0zM153.75 355 a1.25 1.25 0 1 0 2.5 0 a1.25 1.25 0 1 0 -2.5 0zM153.75 585 a1.25 1.25 0 1 0 2.5 0 a1.25 1.25 0 1 0 -2.5 0zM203.75 435 a1.25 1.25 0 1 0 2.5 0 a1.25 1.25 0 1 0 -2.5 0z" fill="black"></path><path d="M593.75 695 a1.25 1.25 0 1 0 2.5 0 a1.25 1.25 0 1 0 -2.5 0zM573.75 185 a1.25 1.25 0 1 0 2.5 0 a1.25 1.25 0 1 0 -2.5 0zM593.75 615 a1.25 1.25 0 1 0 2.5 0 a1.25 1.25 0 1 0 -2.5 0zM603.75 715 a1.25 1.25 0 1 0 2.5 0 a1.25 1.25 0 1 0 -2.5 0zM573.75 165 a1.25 1.25 0 1 0 2.5 0 a1.25 1.25 0 1 0 -2.5 0zM603.75 365 a1.25 1.25 0 1 0 2.5 0 a1.25 1.25 0 1 0 -2.5 0zM613.75 565 a1.25 1.25 0 1 0 2.5 0 a1.25 1.25 0 1 0 -2.5 0zM613.75 715 a1.25 1.25 0 1 0 2.5 0 a1.25 1.25 0 1 0 -2.5 0zM583.75 485 a1.25 1.25 0 1 0 2.5 0 a1.25 1.25 0 1 0 -2.5 0zM573.75 285 a1.25 1.25 0 1 0 2.5 0 a1.25 1.25 0 1 0 -2.5 0zM593.75 525 a1.25 1.25 0 1 0 2.5 0 a1.25 1.25 0 1 0 -2.5 0zM593.75 565 a1.25 1.25 0 1 0 2.5 0 a1.25 1.25 0 1 0 -2.5 0zM573.75 275 a1.25 1.25 0 1 0 2.5 0 a1.25 1.25 0 1 0 -2.5 0zM613.75 635 a1.25 1.25 0 1 0 2.5 0 a1.25 1.25 0 1 0 -2.5 0zM603.75 305 a1.25 1.25 0 1 0 2.5 0 a1.25 1.25 0 1 0 -2.5 0zM573.75 155 a1.25 1.25 0 1 0 2.5 0 a1.25 1.25 0 1 0 -2.5 0zM563.75 75 a1.25 1.25 0 1 0 2.5 0 a1.25 1.25 0 1 0 -2.5 0zM603.75 675 a1.25 1.25 0 1 0 2.5 0 a1.25 1.25 0 1 0 -2.5 0z" fill="black"></path><path d="M143.75 525 a1.25 1.25 0 1 0 2.5 0 a1.25 1.25 0 1 0 -2.5 0zM133.75 595 a1.25 1.25 0 1 0 2.5 0 a1.25 1.25 0 1 0 -2.5 0zM153.75 245 a1.25 1.25 0 1 0 2.5 0 a1.25 1.25 0 1 0 -2.5 0zM153.75 455 a1.25 1.25 0 1 0 2.5 0 a1.25 1.25 0 1 0 -2.5 0zM133.75 405 a1.25 1.25 0 1 0 2.5 0 a1.25 1.25 0 1 0 -2.5 0zM133.75 475 a1.25 1.25 0 1 0 2.5 0 a1.25 1.25 0 1 0 -2.5 0zM153.75 275 a1.25 1.25 0 1 0 2.5 0 a1.25 1.25 0 1 0 -2.5 0zM133.75 365 a1.25 1.25 0 1 0 2.5 0 a1.25 1.25 0 1 0 -2.5 0zM133.75 465 a1.25 1.25 0 1 0 2.5 0 a1.25 1.25 0 1 0 -2.5 0zM133.75 385 a1.25 1.25 0 1 0 2.5 0 a1.25 1.25 0 1 0 -2.5 0zM193.75 145 a1.25 1.25 0 1 0 2.5 0 a1.25 1.25 0 1 0 -2.5 0zM133.75 455 a1.25 1.25 0 1 0 2.5 0 a1.25 1.25 0 1 0 -2.5 0z" fill="black"></path><path d="M633.75 715 a1.25 1.25 0 1 0 2.5 0 a1.25 1.25 0 1 0 -2.5 0zM633.75 445 a1.25 1.25 0 1 0 2.5 0 a1.25 1.25 0 1 0 -2.5 0zM623.75 715 a1.25 1.25 0 1 0 2.5 0 a1.25 1.25 0 1 0 -2.5 0zM573.75 55 a1.25 1.25 0 1 0 2.5 0 a1.25 1.25 0 1 0 -2.5 0zM603.75 205 a1.25 1.25 0 1 0 2.5 0 a1.25 1.25 0 1 0 -2.5 0zM643.75 695 a1.25 1.25 0 1 0 2.5 0 a1.25 1.25 0 1 0 -2.5 0zM653.75 715 a1.25 1.25 0 1 0 2.5 0 a1.25 1.25 0 1 0 -2.5 0zM633.75 415 a1.25 1.25 0 1 0 2.5 0 a1.25 1.25 0 1 0 -2.5 0zM603.75 275 a1.25 1.25 0 1 0 2.5 0 a1.25 1.25 0 1 0 -2.5 0zM613.75 515 a1.25 1.25 0 1 0 2.5 0 a1.25 1.25 0 1 0 -2.5 0zM603.75 255 a1.25 1.25 0 1 0 2.5 0 a1.25 1.25 0 1 0 -2.5 0zM603.75 245 a1.25 1.25 0 1 0 2.5 0 a1.25 1.25 0 1 0 -2.5 0zM603.75 185 a1.25 1.25 0 1 0 2.5 0 a1.25 1.25 0 1 0 -2.5 0zM663.75 655 a1.25 1.25 0 1 0 2.5 0 a1.25 1.25 0 1 0 -2.5 0zM633.75 505 a1.25 1.25 0 1 0 2.5 0 a1.25 1.25 0 1 0 -2.5 0zM633.75 615 a1.25 1.25 0 1 0 2.5 0 a1.25 1.25 0 1 0 -2.5 0zM663.75 575 a1.25 1.25 0 1 0 2.5 0 a1.25 1.25 0 1 0 -2.5 0zM603.75 175 a1.25 1.25 0 1 0 2.5 0 a1.25 1.25 0 1 0 -2.5 0zM673.75 705 a1.25 1.25 0 1 0 2.5 0 a1.25 1.25 0 1 0 -2.5 0z" fill="black"></path><path d="M103.75 575 a1.25 1.25 0 1 0 2.5 0 a1.25 1.25 0 1 0 -2.5 0zM113.75 515 a1.25 1.25 0 1 0 2.5 0 a1.25 1.25 0 1 0 -2.5 0zM103.75 495 a1.25 1.25 0 1 0 2.5 0 a1.25 1.25 0 1 0 -2.5 0zM133.75 315 a1.25 1.25 0 1 0 2.5 0 a1.25 1.25 0 1 0 -2.5 0zM133.75 445 a1.25 1.25 0 1 0 2.5 0 a1.25 1.25 0 1 0 -2.5 0zM123.75 585 a1.25 1.25 0 1 0 2.5 0 a1.25 1.25 0 1 0 -2.5 0zM103.75 485 a1.25 1.25 0 1 0 2.5 0 a1.25 1.25 0 1 0 -2.5 0zM113.75 595 a1.25 1.25 0 1 0 2.5 0 a1.25 1.25 0 1 0 -2.5 0zM113.75 565 a1.25 1.25 0 1 0 2.5 0 a1.25 1.25 0 1 0 -2.5 0zM133.75 355 a1.25 1.25 0 1 0 2.5 0 a1.25 1.25 0 1 0 -2.5 0zM153.75 235 a1.25 1.25 0 1 0 2.5 0 a1.25 1.25 0 1 0 -2.5 0zM113.75 555 a1.25 1.25 0 1 0 2.5 0 a1.25 1.25 0 1 0 -2.5 0zM163.75 175 a1.25 1.25 0 1 0 2.5 0 a1.25 1.25 0 1 0 -2.5 0z" fill="black"></path><path d="M643.75 435 a1.25 1.25 0 1 0 2.5 0 a1.25 1.25 0 1 0 -2.5 0zM603.75 105 a1.25 1.25 0 1 0 2.5 0 a1.25 1.25 0 1 0 -2.5 0zM603.75 145 a1.25 1.25 0 1 0 2.5 0 a1.25 1.25 0 1 0 -2.5 0zM653.75 385 a1.25 1.25 0 1 0 2.5 0 a1.25 1.25 0 1 0 -2.5 0zM653.75 485 a1.25 1.25 0 1 0 2.5 0 a1.25 1.25 0 1 0 -2.5 0zM653.75 425 a1.25 1.25 0 1 0 2.5 0 a1.25 1.25 0 1 0 -2.5 0zM603.75 85 a1.25 1.25 0 1 0 2.5 0 a1.25 1.25 0 1 0 -2.5 0zM633.75 265 a1.25 1.25 0 1 0 2.5 0 a1.25 1.25 0 1 0 -2.5 0zM603.75 235 a1.25 1.25 0 1 0 2.5 0 a1.25 1.25 0 1 0 -2.5 0zM603.75 225 a1.25 1.25 0 1 0 2.5 0 a1.25 1.25 0 1 0 -2.5 0zM633.75 395 a1.25 1.25 0 1 0 2.5 0 a1.25 1.25 0 1 0 -2.5 0z" fill="black"></path><path d="M183.75 65 a1.25 1.25 0 1 0 2.5 0 a1.25 1.25 0 1 0 -2.5 0zM193.75 55 a1.25 1.25 0 1 0 2.5 0 a1.25 1.25 0 1 0 -2.5 0z" fill="black"></path><path d="M633.75 225 a1.25 1.25 0 1 0 2.5 0 a1.25 1.25 0 1 0 -2.5 0zM623.75 95 a1.25 1.25 0 1 0 2.5 0 a1.25 1.25 0 1 0 -2.5 0zM643.75 265 a1.25 1.25 0 1 0 2.5 0 a1.25 1.25 0 1 0 -2.5 0zM623.75 115 a1.25 1.25 0 1 0 2.5 0 a1.25 1.25 0 1 0 -2.5 0zM633.75 185 a1.25 1.25 0 1 0 2.5 0 a1.25 1.25 0 1 0 -2.5 0zM633.75 155 a1.25 1.25 0 1 0 2.5 0 a1.25 1.25 0 1 0 -2.5 0zM643.75 155 a1.25 1.25 0 1 0 2.5 0 a1.25 1.25 0 1 0 -2.5 0z" fill="black"></path><path d="M113.75 415 a1.25 1.25 0 1 0 2.5 0 a1.25 1.25 0 1 0 -2.5 0zM153.75 145 a1.25 1.25 0 1 0 2.5 0 a1.25 1.25 0 1 0 -2.5 0zM103.75 395 a1.25 1.25 0 1 0 2.5 0 a1.25 1.25 0 1 0 -2.5 0zM163.75 155 a1.25 1.25 0 1 0 2.5 0 a1.25 1.25 0 1 0 -2.5 0zM133.75 285 a1.25 1.25 0 1 0 2.5 0 a1.25 1.25 0 1 0 -2.5 0zM163.75 115 a1.25 1.25 0 1 0 2.5 0 a1.25 1.25 0 1 0 -2.5 0zM113.75 345 a1.25 1.25 0 1 0 2.5 0 a1.25 1.25 0 1 0 -2.5 0zM193.75 25 a1.25 1.25 0 1 0 2.5 0 a1.25 1.25 0 1 0 -2.5 0zM163.75 95 a1.25 1.25 0 1 0 2.5 0 a1.25 1.25 0 1 0 -2.5 0zM103.75 385 a1.25 1.25 0 1 0 2.5 0 a1.25 1.25 0 1 0 -2.5 0zM163.75 85 a1.25 1.25 0 1 0 2.5 0 a1.25 1.25 0 1 0 -2.5 0z" fill="black"></path><path d="M603.75 35 a1.25 1.25 0 1 0 2.5 0 a1.25 1.25 0 1 0 -2.5 0zM623.75 65 a1.25 1.25 0 1 0 2.5 0 a1.25 1.25 0 1 0 -2.5 0zM623.75 45 a1.25 1.25 0 1 0 2.5 0 a1.25 1.25 0 1 0 -2.5 0z" fill="black"></path><path d="M83.75 635 a1.25 1.25 0 1 0 2.5 0 a1.25 1.25 0 1 0 -2.5 0zM123.75 175 a1.25 1.25 0 1 0 2.5 0 a1.25 1.25 0 1 0 -2.5 0zM153.75 135 a1.25 1.25 0 1 0 2.5 0 a1.25 1.25 0 1 0 -2.5 0zM103.75 295 a1.25 1.25 0 1 0 2.5 0 a1.25 1.25 0 1 0 -2.5 0zM113.75 215 a1.25 1.25 0 1 0 2.5 0 a1.25 1.25 0 1 0 -2.5 0zM143.75 85 a1.25 1.25 0 1 0 2.5 0 a1.25 1.25 0 1 0 -2.5 0zM103.75 445 a1.25 1.25 0 1 0 2.5 0 a1.25 1.25 0 1 0 -2.5 0zM83.75 475 a1.25 1.25 0 1 0 2.5 0 a1.25 1.25 0 1 0 -2.5 0zM133.75 155 a1.25 1.25 0 1 0 2.5 0 a1.25 1.25 0 1 0 -2.5 0zM93.75 615 a1.25 1.25 0 1 0 2.5 0 a1.25 1.25 0 1 0 -2.5 0zM83.75 665 a1.25 1.25 0 1 0 2.5 0 a1.25 1.25 0 1 0 -2.5 0zM133.75 145 a1.25 1.25 0 1 0 2.5 0 a1.25 1.25 0 1 0 -2.5 0zM73.75 405 a1.25 1.25 0 1 0 2.5 0 a1.25 1.25 0 1 0 -2.5 0zM163.75 75 a1.25 1.25 0 1 0 2.5 0 a1.25 1.25 0 1 0 -2.5 0zM63.75 415 a1.25 1.25 0 1 0 2.5 0 a1.25 1.25 0 1 0 -2.5 0zM113.75 715 a1.25 1.25 0 1 0 2.5 0 a1.25 1.25 0 1 0 -2.5 0zM103.75 375 a1.25 1.25 0 1 0 2.5 0 a1.25 1.25 0 1 0 -2.5 0z" fill="black"></path></mask></defs></svg>