<svg xmlns="http://www.w3.org/2000/svg" version="1.1" xmlns:xlink="http://www.w3.org/1999/xlink" xmlns:svgjs="http://svgjs.com/svgjs" width="800" height="200" preserveAspectRatio="none" viewBox="0 0 800 200"><g mask="url(&quot;#SvgjsMask2038&quot;)" fill="none"><rect width="800" height="200" x="0" y="0" fill="url(#SvgjsLinearGradient2039)"></rect><g mask="url(&quot;#SvgjsMask2040&quot;)"><path d="M395 55L405 65L405 75L405 85L405 95M395 95L385 105L385 115M395 75L385 85L385 95M395 -5L395 5L395 15L395 25L395 35L395 45L395 55L395 65L395 75L395 85L395 95L395 105L395 115" stroke="rgba(40, 255, 251, 1)" stroke-width="1.67"></path><path d="M392.5 115 a2.5 2.5 0 1 0 5 0 a2.5 2.5 0 1 0 -5 0zM402.5 95 a2.5 2.5 0 1 0 5 0 a2.5 2.5 0 1 0 -5 0zM382.5 115 a2.5 2.5 0 1 0 5 0 a2.5 2.5 0 1 0 -5 0zM382.5 95 a2.5 2.5 0 1 0 5 0 a2.5 2.5 0 1 0 -5 0z" fill="rgba(40, 255, 251, 1)"></path><path d="M415 5L415 15M415 -5L415 5L405 15L405 25L405 35L405 45" stroke="rgba(40, 255, 251, 1)" stroke-width="1.67"></path><path d="M402.5 45 a2.5 2.5 0 1 0 5 0 a2.5 2.5 0 1 0 -5 0zM412.5 15 a2.5 2.5 0 1 0 5 0 a2.5 2.5 0 1 0 -5 0z" fill="rgba(40, 255, 251, 1)"></path><path d="M375 95L365 105L355 115M385 65L385 75M385 25L375 35L375 45L375 55M385 -5L385 5L385 15L385 25L385 35L385 45L385 55L385 65L375 75L375 85L375 95L375 105L365 115L365 125" stroke="rgba(255, 38, 38, 1)" stroke-width="1.67"></path><path d="M362.5 125 a2.5 2.5 0 1 0 5 0 a2.5 2.5 0 1 0 -5 0zM352.5 115 a2.5 2.5 0 1 0 5 0 a2.5 2.5 0 1 0 -5 0zM382.5 75 a2.5 2.5 0 1 0 5 0 a2.5 2.5 0 1 0 -5 0zM372.5 55 a2.5 2.5 0 1 0 5 0 a2.5 2.5 0 1 0 -5 0z" fill="rgba(255, 38, 38, 1)"></path><path d="M415 115L425 125L425 135M415 65L425 75L425 85L425 95L425 105M415 105L405 115L405 125M425 -5L425 5L425 15L415 25L415 35L415 45L415 55L415 65L415 75L415 85L415 95L415 105L415 115L415 125" stroke="rgba(255, 0, 137, 1)" stroke-width="1.67"></path><path d="M412.5 125 a2.5 2.5 0 1 0 5 0 a2.5 2.5 0 1 0 -5 0zM422.5 135 a2.5 2.5 0 1 0 5 0 a2.5 2.5 0 1 0 -5 0zM422.5 105 a2.5 2.5 0 1 0 5 0 a2.5 2.5 0 1 0 -5 0zM402.5 125 a2.5 2.5 0 1 0 5 0 a2.5 2.5 0 1 0 -5 0z" fill="rgba(255, 0, 137, 1)"></path><path d="M375 -5L375 5" stroke="rgba(255, 38, 38, 1)" stroke-width="1.67"></path><path d="M372.5 5 a2.5 2.5 0 1 0 5 0 a2.5 2.5 0 1 0 -5 0z" fill="rgba(255, 38, 38, 1)"></path><path d="M355 35L355 45M355 15L365 25L365 35L365 45L365 55M365 -5L355 5L355 15L355 25L355 35L345 45" stroke="rgba(40, 255, 251, 1)" stroke-width="1.67"></path><path d="M342.5 45 a2.5 2.5 0 1 0 5 0 a2.5 2.5 0 1 0 -5 0zM352.5 45 a2.5 2.5 0 1 0 5 0 a2.5 2.5 0 1 0 -5 0zM362.5 55 a2.5 2.5 0 1 0 5 0 a2.5 2.5 0 1 0 -5 0z" fill="rgba(40, 255, 251, 1)"></path><path d="M445 25L435 35L435 45L435 55L425 65M445 15L435 25M445 5L435 15M445 -5L445 5L445 15L445 25L445 35L445 45" stroke="rgba(40, 255, 251, 1)" stroke-width="1.67"></path><path d="M442.5 45 a2.5 2.5 0 1 0 5 0 a2.5 2.5 0 1 0 -5 0zM422.5 65 a2.5 2.5 0 1 0 5 0 a2.5 2.5 0 1 0 -5 0zM432.5 25 a2.5 2.5 0 1 0 5 0 a2.5 2.5 0 1 0 -5 0zM432.5 15 a2.5 2.5 0 1 0 5 0 a2.5 2.5 0 1 0 -5 0z" fill="rgba(40, 255, 251, 1)"></path><path d="M345 15L335 25L335 35M355 -5L345 5L345 15L345 25L345 35L335 45L335 55" stroke="rgba(255, 38, 38, 1)" stroke-width="1.67"></path><path d="M332.5 55 a2.5 2.5 0 1 0 5 0 a2.5 2.5 0 1 0 -5 0zM332.5 35 a2.5 2.5 0 1 0 5 0 a2.5 2.5 0 1 0 -5 0z" fill="rgba(255, 38, 38, 1)"></path><path d="M445 55L455 65L455 75L455 85M445 85L435 95M445 65L435 75M455 -5L455 5L455 15L455 25L455 35L455 45L445 55L445 65L445 75L445 85L445 95L455 105" stroke="rgba(40, 255, 251, 1)" stroke-width="1.67"></path><path d="M452.5 105 a2.5 2.5 0 1 0 5 0 a2.5 2.5 0 1 0 -5 0zM452.5 85 a2.5 2.5 0 1 0 5 0 a2.5 2.5 0 1 0 -5 0zM432.5 95 a2.5 2.5 0 1 0 5 0 a2.5 2.5 0 1 0 -5 0zM432.5 75 a2.5 2.5 0 1 0 5 0 a2.5 2.5 0 1 0 -5 0z" fill="rgba(40, 255, 251, 1)"></path><path d="M345 -5L335 5" stroke="rgba(255, 38, 38, 1)" stroke-width="1.67"></path><path d="M332.5 5 a2.5 2.5 0 1 0 5 0 a2.5 2.5 0 1 0 -5 0z" fill="rgba(255, 38, 38, 1)"></path><path d="M465 25L475 35L475 45L475 55L475 65M465 5L475 15L475 25L485 35M465 -5L465 5L465 15L465 25L465 35" stroke="rgba(40, 255, 251, 1)" stroke-width="1.67"></path><path d="M462.5 35 a2.5 2.5 0 1 0 5 0 a2.5 2.5 0 1 0 -5 0zM472.5 65 a2.5 2.5 0 1 0 5 0 a2.5 2.5 0 1 0 -5 0zM482.5 35 a2.5 2.5 0 1 0 5 0 a2.5 2.5 0 1 0 -5 0z" fill="rgba(40, 255, 251, 1)"></path><path d="M325 55L315 65L315 75M325 35L315 45L315 55M325 65L335 75L335 85L335 95L335 105M335 -5L325 5L325 15L325 25L325 35L325 45L325 55L325 65L325 75" stroke="rgba(85, 255, 0, 1)" stroke-width="1.67"></path><path d="M322.5 75 a2.5 2.5 0 1 0 5 0 a2.5 2.5 0 1 0 -5 0zM312.5 75 a2.5 2.5 0 1 0 5 0 a2.5 2.5 0 1 0 -5 0zM312.5 55 a2.5 2.5 0 1 0 5 0 a2.5 2.5 0 1 0 -5 0zM332.5 105 a2.5 2.5 0 1 0 5 0 a2.5 2.5 0 1 0 -5 0z" fill="rgba(85, 255, 0, 1)"></path><path d="M495 35L495 45L485 55L485 65L485 75M485 5L485 15L485 25M505 75L495 85L495 95L495 105L495 115M475 -5L485 5L495 15L495 25L495 35L505 45L505 55L505 65L505 75L505 85" stroke="rgba(255, 0, 137, 1)" stroke-width="1.67"></path><path d="M502.5 85 a2.5 2.5 0 1 0 5 0 a2.5 2.5 0 1 0 -5 0zM482.5 75 a2.5 2.5 0 1 0 5 0 a2.5 2.5 0 1 0 -5 0zM482.5 25 a2.5 2.5 0 1 0 5 0 a2.5 2.5 0 1 0 -5 0zM492.5 115 a2.5 2.5 0 1 0 5 0 a2.5 2.5 0 1 0 -5 0z" fill="rgba(255, 0, 137, 1)"></path><path d="M305 95L305 105M315 105L325 115L335 125L335 135M315 125L325 135L325 145L315 155L315 165M325 -5L315 5L315 15L315 25L305 35L305 45L305 55L305 65L305 75L305 85L305 95L315 105L315 115L315 125L315 135" stroke="rgba(40, 255, 251, 1)" stroke-width="1.67"></path><path d="M312.5 135 a2.5 2.5 0 1 0 5 0 a2.5 2.5 0 1 0 -5 0zM302.5 105 a2.5 2.5 0 1 0 5 0 a2.5 2.5 0 1 0 -5 0zM332.5 135 a2.5 2.5 0 1 0 5 0 a2.5 2.5 0 1 0 -5 0zM312.5 165 a2.5 2.5 0 1 0 5 0 a2.5 2.5 0 1 0 -5 0z" fill="rgba(40, 255, 251, 1)"></path><path d="M515 65L525 75L525 85M515 55L525 65L535 75M525 95L535 105L535 115M485 -5L495 5L505 15L505 25L505 35L515 45L515 55L515 65L515 75L515 85L525 95L525 105" stroke="rgba(255, 0, 137, 1)" stroke-width="1.67"></path><path d="M522.5 105 a2.5 2.5 0 1 0 5 0 a2.5 2.5 0 1 0 -5 0zM522.5 85 a2.5 2.5 0 1 0 5 0 a2.5 2.5 0 1 0 -5 0zM532.5 75 a2.5 2.5 0 1 0 5 0 a2.5 2.5 0 1 0 -5 0zM532.5 115 a2.5 2.5 0 1 0 5 0 a2.5 2.5 0 1 0 -5 0z" fill="rgba(255, 0, 137, 1)"></path><path d="M315 -5L305 5L305 15L305 25L295 35L295 45L295 55L295 65L295 75" stroke="rgba(40, 255, 251, 1)" stroke-width="1.67"></path><path d="M292.5 75 a2.5 2.5 0 1 0 5 0 a2.5 2.5 0 1 0 -5 0z" fill="rgba(40, 255, 251, 1)"></path><path d="M495 -5L505 5L515 15L515 25" stroke="rgba(40, 255, 251, 1)" stroke-width="1.67"></path><path d="M512.5 25 a2.5 2.5 0 1 0 5 0 a2.5 2.5 0 1 0 -5 0z" fill="rgba(40, 255, 251, 1)"></path><path d="M295 95L285 105M295 85L285 95L275 105L275 115M305 145L295 155L295 165M295 115L305 125M305 -5L295 5L295 15L295 25L285 35L285 45L285 55L285 65L285 75L295 85L295 95L295 105L295 115L295 125L295 135L305 145L305 155" stroke="rgba(85, 255, 0, 1)" stroke-width="1.67"></path><path d="M302.5 155 a2.5 2.5 0 1 0 5 0 a2.5 2.5 0 1 0 -5 0zM282.5 105 a2.5 2.5 0 1 0 5 0 a2.5 2.5 0 1 0 -5 0zM272.5 115 a2.5 2.5 0 1 0 5 0 a2.5 2.5 0 1 0 -5 0zM292.5 165 a2.5 2.5 0 1 0 5 0 a2.5 2.5 0 1 0 -5 0zM302.5 125 a2.5 2.5 0 1 0 5 0 a2.5 2.5 0 1 0 -5 0z" fill="rgba(85, 255, 0, 1)"></path><path d="M505 -5L515 5L525 15L525 25" stroke="rgba(255, 0, 137, 1)" stroke-width="1.67"></path><path d="M522.5 25 a2.5 2.5 0 1 0 5 0 a2.5 2.5 0 1 0 -5 0z" fill="rgba(255, 0, 137, 1)"></path><path d="M275 65L275 75L275 85L275 95M265 125L275 135L275 145M275 55L265 65L255 75M295 -5L285 5L285 15L285 25L275 35L275 45L275 55L275 65L265 75L265 85L265 95L265 105L265 115L265 125L265 135" stroke="rgba(255, 0, 137, 1)" stroke-width="1.67"></path><path d="M262.5 135 a2.5 2.5 0 1 0 5 0 a2.5 2.5 0 1 0 -5 0zM272.5 95 a2.5 2.5 0 1 0 5 0 a2.5 2.5 0 1 0 -5 0zM272.5 145 a2.5 2.5 0 1 0 5 0 a2.5 2.5 0 1 0 -5 0zM252.5 75 a2.5 2.5 0 1 0 5 0 a2.5 2.5 0 1 0 -5 0z" fill="rgba(255, 0, 137, 1)"></path><path d="M535 35L525 45L525 55L535 65L545 75M515 -5L525 5L535 15L535 25L535 35L535 45" stroke="rgba(255, 0, 137, 1)" stroke-width="1.67"></path><path d="M532.5 45 a2.5 2.5 0 1 0 5 0 a2.5 2.5 0 1 0 -5 0zM542.5 75 a2.5 2.5 0 1 0 5 0 a2.5 2.5 0 1 0 -5 0z" fill="rgba(255, 0, 137, 1)"></path><path d="M265 15L275 25M275 5L275 15M285 -5L275 5L265 15L265 25L265 35L265 45" stroke="rgba(255, 38, 38, 1)" stroke-width="1.67"></path><path d="M262.5 45 a2.5 2.5 0 1 0 5 0 a2.5 2.5 0 1 0 -5 0zM272.5 25 a2.5 2.5 0 1 0 5 0 a2.5 2.5 0 1 0 -5 0zM272.5 15 a2.5 2.5 0 1 0 5 0 a2.5 2.5 0 1 0 -5 0z" fill="rgba(255, 38, 38, 1)"></path><path d="M555 105L545 115M555 55L545 65M545 45L545 55M525 -5L535 5L545 15L545 25L545 35L545 45L555 55L555 65L555 75L555 85L555 95L555 105L555 115" stroke="rgba(85, 255, 0, 1)" stroke-width="1.67"></path><path d="M552.5 115 a2.5 2.5 0 1 0 5 0 a2.5 2.5 0 1 0 -5 0zM542.5 115 a2.5 2.5 0 1 0 5 0 a2.5 2.5 0 1 0 -5 0zM542.5 65 a2.5 2.5 0 1 0 5 0 a2.5 2.5 0 1 0 -5 0zM542.5 55 a2.5 2.5 0 1 0 5 0 a2.5 2.5 0 1 0 -5 0z" fill="rgba(85, 255, 0, 1)"></path><path d="M555 35L565 45M535 -5L545 5L555 15L555 25L555 35L555 45L565 55L565 65L565 75L565 85L565 95L565 105L565 115" stroke="rgba(40, 255, 251, 1)" stroke-width="1.67"></path><path d="M562.5 115 a2.5 2.5 0 1 0 5 0 a2.5 2.5 0 1 0 -5 0zM562.5 45 a2.5 2.5 0 1 0 5 0 a2.5 2.5 0 1 0 -5 0z" fill="rgba(40, 255, 251, 1)"></path><path d="M255 25L245 35M255 15L245 25L235 35M265 -5L265 5L255 15L255 25L255 35" stroke="rgba(40, 255, 251, 1)" stroke-width="1.67"></path><path d="M252.5 35 a2.5 2.5 0 1 0 5 0 a2.5 2.5 0 1 0 -5 0zM242.5 35 a2.5 2.5 0 1 0 5 0 a2.5 2.5 0 1 0 -5 0zM232.5 35 a2.5 2.5 0 1 0 5 0 a2.5 2.5 0 1 0 -5 0z" fill="rgba(40, 255, 251, 1)"></path><path d="M565 25L565 35M545 -5L555 5L565 15L565 25L575 35L575 45L575 55L575 65L575 75L575 85L575 95" stroke="rgba(40, 255, 251, 1)" stroke-width="1.67"></path><path d="M572.5 95 a2.5 2.5 0 1 0 5 0 a2.5 2.5 0 1 0 -5 0zM562.5 35 a2.5 2.5 0 1 0 5 0 a2.5 2.5 0 1 0 -5 0z" fill="rgba(40, 255, 251, 1)"></path><path d="M585 65L595 75M585 95L595 105L595 115M575 135L565 145L555 155L555 165M575 145L585 155L585 165M555 -5L565 5L575 15L575 25L585 35L585 45L585 55L585 65L585 75L585 85L585 95L585 105L585 115L575 125L575 135L575 145L575 155L575 165" stroke="rgba(40, 255, 251, 1)" stroke-width="1.67"></path><path d="M572.5 165 a2.5 2.5 0 1 0 5 0 a2.5 2.5 0 1 0 -5 0zM592.5 75 a2.5 2.5 0 1 0 5 0 a2.5 2.5 0 1 0 -5 0zM592.5 115 a2.5 2.5 0 1 0 5 0 a2.5 2.5 0 1 0 -5 0zM552.5 165 a2.5 2.5 0 1 0 5 0 a2.5 2.5 0 1 0 -5 0zM582.5 165 a2.5 2.5 0 1 0 5 0 a2.5 2.5 0 1 0 -5 0z" fill="rgba(40, 255, 251, 1)"></path><path d="M245 -5L245 5" stroke="rgba(255, 38, 38, 1)" stroke-width="1.67"></path><path d="M242.5 5 a2.5 2.5 0 1 0 5 0 a2.5 2.5 0 1 0 -5 0z" fill="rgba(255, 38, 38, 1)"></path><path d="M595 35L595 45M565 -5L575 5L585 15L585 25L595 35L605 45" stroke="rgba(255, 38, 38, 1)" stroke-width="1.67"></path><path d="M602.5 45 a2.5 2.5 0 1 0 5 0 a2.5 2.5 0 1 0 -5 0zM592.5 45 a2.5 2.5 0 1 0 5 0 a2.5 2.5 0 1 0 -5 0z" fill="rgba(255, 38, 38, 1)"></path><path d="M235 -5L235 5L235 15" stroke="rgba(40, 255, 251, 1)" stroke-width="1.67"></path><path d="M232.5 15 a2.5 2.5 0 1 0 5 0 a2.5 2.5 0 1 0 -5 0z" fill="rgba(40, 255, 251, 1)"></path><path d="M605 85L595 95M605 125L615 135L615 145M605 115L615 125L625 135L625 145L625 155M605 135L595 145L595 155L595 165M575 -5L585 5L595 15L595 25L605 35L615 45L615 55L615 65L605 75L605 85L605 95L605 105L605 115L605 125L605 135L605 145L605 155L605 165" stroke="rgba(40, 255, 251, 1)" stroke-width="1.67"></path><path d="M602.5 165 a2.5 2.5 0 1 0 5 0 a2.5 2.5 0 1 0 -5 0zM592.5 95 a2.5 2.5 0 1 0 5 0 a2.5 2.5 0 1 0 -5 0zM612.5 145 a2.5 2.5 0 1 0 5 0 a2.5 2.5 0 1 0 -5 0zM622.5 155 a2.5 2.5 0 1 0 5 0 a2.5 2.5 0 1 0 -5 0zM592.5 165 a2.5 2.5 0 1 0 5 0 a2.5 2.5 0 1 0 -5 0z" fill="rgba(40, 255, 251, 1)"></path><path d="M235 85L245 95L245 105L245 115M225 55L225 65M235 65L245 75M225 -5L225 5L225 15L225 25L225 35L225 45L225 55L235 65L235 75L235 85L235 95" stroke="rgba(255, 38, 38, 1)" stroke-width="1.67"></path><path d="M232.5 95 a2.5 2.5 0 1 0 5 0 a2.5 2.5 0 1 0 -5 0zM242.5 115 a2.5 2.5 0 1 0 5 0 a2.5 2.5 0 1 0 -5 0zM222.5 65 a2.5 2.5 0 1 0 5 0 a2.5 2.5 0 1 0 -5 0zM242.5 75 a2.5 2.5 0 1 0 5 0 a2.5 2.5 0 1 0 -5 0z" fill="rgba(255, 38, 38, 1)"></path><path d="M585 -5L595 5L605 15L605 25L615 35L625 45L625 55" stroke="rgba(255, 38, 38, 1)" stroke-width="1.67"></path><path d="M622.5 55 a2.5 2.5 0 1 0 5 0 a2.5 2.5 0 1 0 -5 0z" fill="rgba(255, 38, 38, 1)"></path><path d="M225 135L215 145L215 155M225 105L235 115L235 125L235 135M225 125L215 135L205 145L205 155M225 115L215 125L205 135L195 145L185 155M215 -5L215 5L215 15L215 25L215 35L215 45L215 55L215 65L225 75L225 85L225 95L225 105L225 115L225 125L225 135L225 145" stroke="rgba(40, 255, 251, 1)" stroke-width="1.67"></path><path d="M222.5 145 a2.5 2.5 0 1 0 5 0 a2.5 2.5 0 1 0 -5 0zM212.5 155 a2.5 2.5 0 1 0 5 0 a2.5 2.5 0 1 0 -5 0zM232.5 135 a2.5 2.5 0 1 0 5 0 a2.5 2.5 0 1 0 -5 0zM202.5 155 a2.5 2.5 0 1 0 5 0 a2.5 2.5 0 1 0 -5 0zM182.5 155 a2.5 2.5 0 1 0 5 0 a2.5 2.5 0 1 0 -5 0z" fill="rgba(40, 255, 251, 1)"></path><path d="M645 105L655 115M645 65L655 75L655 85L655 95M635 55L635 65L635 75L635 85M595 -5L605 5L615 15L615 25L625 35L635 45L635 55L645 65L645 75L645 85L645 95L645 105L645 115L635 125" stroke="rgba(255, 0, 137, 1)" stroke-width="1.67"></path><path d="M632.5 125 a2.5 2.5 0 1 0 5 0 a2.5 2.5 0 1 0 -5 0zM652.5 115 a2.5 2.5 0 1 0 5 0 a2.5 2.5 0 1 0 -5 0zM652.5 95 a2.5 2.5 0 1 0 5 0 a2.5 2.5 0 1 0 -5 0zM632.5 85 a2.5 2.5 0 1 0 5 0 a2.5 2.5 0 1 0 -5 0z" fill="rgba(255, 0, 137, 1)"></path><path d="M205 35L195 45M205 25L195 35L185 45L185 55M215 75L205 85L205 95M205 -5L205 5L205 15L205 25L205 35L205 45L205 55L205 65L215 75L215 85L215 95L215 105" stroke="rgba(255, 38, 38, 1)" stroke-width="1.67"></path><path d="M212.5 105 a2.5 2.5 0 1 0 5 0 a2.5 2.5 0 1 0 -5 0zM192.5 45 a2.5 2.5 0 1 0 5 0 a2.5 2.5 0 1 0 -5 0zM182.5 55 a2.5 2.5 0 1 0 5 0 a2.5 2.5 0 1 0 -5 0zM202.5 95 a2.5 2.5 0 1 0 5 0 a2.5 2.5 0 1 0 -5 0z" fill="rgba(255, 38, 38, 1)"></path></g></g><defs><mask id="SvgjsMask2038"><rect width="800" height="200" fill="#ffffff"></rect></mask><linearGradient x1="18.75%" y1="-75%" x2="81.25%" y2="175%" gradientUnits="userSpaceOnUse" id="SvgjsLinearGradient2039"><stop stop-color="rgba(3, 14, 140, 1)" offset="0"></stop><stop stop-color="rgba(211, 0, 0, 1)" offset="0.95"></stop></linearGradient><mask id="SvgjsMask2040"><rect width="800" height="200" fill="white"></rect><path d="M393.75 115 a1.25 1.25 0 1 0 2.5 0 a1.25 1.25 0 1 0 -2.5 0zM403.75 95 a1.25 1.25 0 1 0 2.5 0 a1.25 1.25 0 1 0 -2.5 0zM383.75 115 a1.25 1.25 0 1 0 2.5 0 a1.25 1.25 0 1 0 -2.5 0zM383.75 95 a1.25 1.25 0 1 0 2.5 0 a1.25 1.25 0 1 0 -2.5 0z" fill="black"></path><path d="M403.75 45 a1.25 1.25 0 1 0 2.5 0 a1.25 1.25 0 1 0 -2.5 0zM413.75 15 a1.25 1.25 0 1 0 2.5 0 a1.25 1.25 0 1 0 -2.5 0z" fill="black"></path><path d="M363.75 125 a1.25 1.25 0 1 0 2.5 0 a1.25 1.25 0 1 0 -2.5 0zM353.75 115 a1.25 1.25 0 1 0 2.5 0 a1.25 1.25 0 1 0 -2.5 0zM383.75 75 a1.25 1.25 0 1 0 2.5 0 a1.25 1.25 0 1 0 -2.5 0zM373.75 55 a1.25 1.25 0 1 0 2.5 0 a1.25 1.25 0 1 0 -2.5 0z" fill="black"></path><path d="M413.75 125 a1.25 1.25 0 1 0 2.5 0 a1.25 1.25 0 1 0 -2.5 0zM423.75 135 a1.25 1.25 0 1 0 2.5 0 a1.25 1.25 0 1 0 -2.5 0zM423.75 105 a1.25 1.25 0 1 0 2.5 0 a1.25 1.25 0 1 0 -2.5 0zM403.75 125 a1.25 1.25 0 1 0 2.5 0 a1.25 1.25 0 1 0 -2.5 0z" fill="black"></path><path d="M373.75 5 a1.25 1.25 0 1 0 2.5 0 a1.25 1.25 0 1 0 -2.5 0z" fill="black"></path><path d="M343.75 45 a1.25 1.25 0 1 0 2.5 0 a1.25 1.25 0 1 0 -2.5 0zM353.75 45 a1.25 1.25 0 1 0 2.5 0 a1.25 1.25 0 1 0 -2.5 0zM363.75 55 a1.25 1.25 0 1 0 2.5 0 a1.25 1.25 0 1 0 -2.5 0z" fill="black"></path><path d="M443.75 45 a1.25 1.25 0 1 0 2.5 0 a1.25 1.25 0 1 0 -2.5 0zM423.75 65 a1.25 1.25 0 1 0 2.5 0 a1.25 1.25 0 1 0 -2.5 0zM433.75 25 a1.25 1.25 0 1 0 2.5 0 a1.25 1.25 0 1 0 -2.5 0zM433.75 15 a1.25 1.25 0 1 0 2.5 0 a1.25 1.25 0 1 0 -2.5 0z" fill="black"></path><path d="M333.75 55 a1.25 1.25 0 1 0 2.5 0 a1.25 1.25 0 1 0 -2.5 0zM333.75 35 a1.25 1.25 0 1 0 2.5 0 a1.25 1.25 0 1 0 -2.5 0z" fill="black"></path><path d="M453.75 105 a1.25 1.25 0 1 0 2.5 0 a1.25 1.25 0 1 0 -2.5 0zM453.75 85 a1.25 1.25 0 1 0 2.5 0 a1.25 1.25 0 1 0 -2.5 0zM433.75 95 a1.25 1.25 0 1 0 2.5 0 a1.25 1.25 0 1 0 -2.5 0zM433.75 75 a1.25 1.25 0 1 0 2.5 0 a1.25 1.25 0 1 0 -2.5 0z" fill="black"></path><path d="M333.75 5 a1.25 1.25 0 1 0 2.5 0 a1.25 1.25 0 1 0 -2.5 0z" fill="black"></path><path d="M463.75 35 a1.25 1.25 0 1 0 2.5 0 a1.25 1.25 0 1 0 -2.5 0zM473.75 65 a1.25 1.25 0 1 0 2.5 0 a1.25 1.25 0 1 0 -2.5 0zM483.75 35 a1.25 1.25 0 1 0 2.5 0 a1.25 1.25 0 1 0 -2.5 0z" fill="black"></path><path d="M323.75 75 a1.25 1.25 0 1 0 2.5 0 a1.25 1.25 0 1 0 -2.5 0zM313.75 75 a1.25 1.25 0 1 0 2.5 0 a1.25 1.25 0 1 0 -2.5 0zM313.75 55 a1.25 1.25 0 1 0 2.5 0 a1.25 1.25 0 1 0 -2.5 0zM333.75 105 a1.25 1.25 0 1 0 2.5 0 a1.25 1.25 0 1 0 -2.5 0z" fill="black"></path><path d="M503.75 85 a1.25 1.25 0 1 0 2.5 0 a1.25 1.25 0 1 0 -2.5 0zM483.75 75 a1.25 1.25 0 1 0 2.5 0 a1.25 1.25 0 1 0 -2.5 0zM483.75 25 a1.25 1.25 0 1 0 2.5 0 a1.25 1.25 0 1 0 -2.5 0zM493.75 115 a1.25 1.25 0 1 0 2.5 0 a1.25 1.25 0 1 0 -2.5 0z" fill="black"></path><path d="M313.75 135 a1.25 1.25 0 1 0 2.5 0 a1.25 1.25 0 1 0 -2.5 0zM303.75 105 a1.25 1.25 0 1 0 2.5 0 a1.25 1.25 0 1 0 -2.5 0zM333.75 135 a1.25 1.25 0 1 0 2.5 0 a1.25 1.25 0 1 0 -2.5 0zM313.75 165 a1.25 1.25 0 1 0 2.5 0 a1.25 1.25 0 1 0 -2.5 0z" fill="black"></path><path d="M523.75 105 a1.25 1.25 0 1 0 2.5 0 a1.25 1.25 0 1 0 -2.5 0zM523.75 85 a1.25 1.25 0 1 0 2.5 0 a1.25 1.25 0 1 0 -2.5 0zM533.75 75 a1.25 1.25 0 1 0 2.5 0 a1.25 1.25 0 1 0 -2.5 0zM533.75 115 a1.25 1.25 0 1 0 2.5 0 a1.25 1.25 0 1 0 -2.5 0z" fill="black"></path><path d="M293.75 75 a1.25 1.25 0 1 0 2.5 0 a1.25 1.25 0 1 0 -2.5 0z" fill="black"></path><path d="M513.75 25 a1.25 1.25 0 1 0 2.5 0 a1.25 1.25 0 1 0 -2.5 0z" fill="black"></path><path d="M303.75 155 a1.25 1.25 0 1 0 2.5 0 a1.25 1.25 0 1 0 -2.5 0zM283.75 105 a1.25 1.25 0 1 0 2.5 0 a1.25 1.25 0 1 0 -2.5 0zM273.75 115 a1.25 1.25 0 1 0 2.5 0 a1.25 1.25 0 1 0 -2.5 0zM293.75 165 a1.25 1.25 0 1 0 2.5 0 a1.25 1.25 0 1 0 -2.5 0zM303.75 125 a1.25 1.25 0 1 0 2.5 0 a1.25 1.25 0 1 0 -2.5 0z" fill="black"></path><path d="M523.75 25 a1.25 1.25 0 1 0 2.5 0 a1.25 1.25 0 1 0 -2.5 0z" fill="black"></path><path d="M263.75 135 a1.25 1.25 0 1 0 2.5 0 a1.25 1.25 0 1 0 -2.5 0zM273.75 95 a1.25 1.25 0 1 0 2.5 0 a1.25 1.25 0 1 0 -2.5 0zM273.75 145 a1.25 1.25 0 1 0 2.5 0 a1.25 1.25 0 1 0 -2.5 0zM253.75 75 a1.25 1.25 0 1 0 2.5 0 a1.25 1.25 0 1 0 -2.5 0z" fill="black"></path><path d="M533.75 45 a1.25 1.25 0 1 0 2.5 0 a1.25 1.25 0 1 0 -2.5 0zM543.75 75 a1.25 1.25 0 1 0 2.5 0 a1.25 1.25 0 1 0 -2.5 0z" fill="black"></path><path d="M263.75 45 a1.25 1.25 0 1 0 2.5 0 a1.25 1.25 0 1 0 -2.5 0zM273.75 25 a1.25 1.25 0 1 0 2.5 0 a1.25 1.25 0 1 0 -2.5 0zM273.75 15 a1.25 1.25 0 1 0 2.5 0 a1.25 1.25 0 1 0 -2.5 0z" fill="black"></path><path d="M553.75 115 a1.25 1.25 0 1 0 2.5 0 a1.25 1.25 0 1 0 -2.5 0zM543.75 115 a1.25 1.25 0 1 0 2.5 0 a1.25 1.25 0 1 0 -2.5 0zM543.75 65 a1.25 1.25 0 1 0 2.5 0 a1.25 1.25 0 1 0 -2.5 0zM543.75 55 a1.25 1.25 0 1 0 2.5 0 a1.25 1.25 0 1 0 -2.5 0z" fill="black"></path><path d="M563.75 115 a1.25 1.25 0 1 0 2.5 0 a1.25 1.25 0 1 0 -2.5 0zM563.75 45 a1.25 1.25 0 1 0 2.5 0 a1.25 1.25 0 1 0 -2.5 0z" fill="black"></path><path d="M253.75 35 a1.25 1.25 0 1 0 2.5 0 a1.25 1.25 0 1 0 -2.5 0zM243.75 35 a1.25 1.25 0 1 0 2.5 0 a1.25 1.25 0 1 0 -2.5 0zM233.75 35 a1.25 1.25 0 1 0 2.5 0 a1.25 1.25 0 1 0 -2.5 0z" fill="black"></path><path d="M573.75 95 a1.25 1.25 0 1 0 2.5 0 a1.25 1.25 0 1 0 -2.5 0zM563.75 35 a1.25 1.25 0 1 0 2.5 0 a1.25 1.25 0 1 0 -2.5 0z" fill="black"></path><path d="M573.75 165 a1.25 1.25 0 1 0 2.5 0 a1.25 1.25 0 1 0 -2.5 0zM593.75 75 a1.25 1.25 0 1 0 2.5 0 a1.25 1.25 0 1 0 -2.5 0zM593.75 115 a1.25 1.25 0 1 0 2.5 0 a1.25 1.25 0 1 0 -2.5 0zM553.75 165 a1.25 1.25 0 1 0 2.5 0 a1.25 1.25 0 1 0 -2.5 0zM583.75 165 a1.25 1.25 0 1 0 2.5 0 a1.25 1.25 0 1 0 -2.5 0z" fill="black"></path><path d="M243.75 5 a1.25 1.25 0 1 0 2.5 0 a1.25 1.25 0 1 0 -2.5 0z" fill="black"></path><path d="M603.75 45 a1.25 1.25 0 1 0 2.5 0 a1.25 1.25 0 1 0 -2.5 0zM593.75 45 a1.25 1.25 0 1 0 2.5 0 a1.25 1.25 0 1 0 -2.5 0z" fill="black"></path><path d="M233.75 15 a1.25 1.25 0 1 0 2.5 0 a1.25 1.25 0 1 0 -2.5 0z" fill="black"></path><path d="M603.75 165 a1.25 1.25 0 1 0 2.5 0 a1.25 1.25 0 1 0 -2.5 0zM593.75 95 a1.25 1.25 0 1 0 2.5 0 a1.25 1.25 0 1 0 -2.5 0zM613.75 145 a1.25 1.25 0 1 0 2.5 0 a1.25 1.25 0 1 0 -2.5 0zM623.75 155 a1.25 1.25 0 1 0 2.5 0 a1.25 1.25 0 1 0 -2.5 0zM593.75 165 a1.25 1.25 0 1 0 2.5 0 a1.25 1.25 0 1 0 -2.5 0z" fill="black"></path><path d="M233.75 95 a1.25 1.25 0 1 0 2.5 0 a1.25 1.25 0 1 0 -2.5 0zM243.75 115 a1.25 1.25 0 1 0 2.5 0 a1.25 1.25 0 1 0 -2.5 0zM223.75 65 a1.25 1.25 0 1 0 2.5 0 a1.25 1.25 0 1 0 -2.5 0zM243.75 75 a1.25 1.25 0 1 0 2.5 0 a1.25 1.25 0 1 0 -2.5 0z" fill="black"></path><path d="M623.75 55 a1.25 1.25 0 1 0 2.5 0 a1.25 1.25 0 1 0 -2.5 0z" fill="black"></path><path d="M223.75 145 a1.25 1.25 0 1 0 2.5 0 a1.25 1.25 0 1 0 -2.5 0zM213.75 155 a1.25 1.25 0 1 0 2.5 0 a1.25 1.25 0 1 0 -2.5 0zM233.75 135 a1.25 1.25 0 1 0 2.5 0 a1.25 1.25 0 1 0 -2.5 0zM203.75 155 a1.25 1.25 0 1 0 2.5 0 a1.25 1.25 0 1 0 -2.5 0zM183.75 155 a1.25 1.25 0 1 0 2.5 0 a1.25 1.25 0 1 0 -2.5 0z" fill="black"></path><path d="M633.75 125 a1.25 1.25 0 1 0 2.5 0 a1.25 1.25 0 1 0 -2.5 0zM653.75 115 a1.25 1.25 0 1 0 2.5 0 a1.25 1.25 0 1 0 -2.5 0zM653.75 95 a1.25 1.25 0 1 0 2.5 0 a1.25 1.25 0 1 0 -2.5 0zM633.75 85 a1.25 1.25 0 1 0 2.5 0 a1.25 1.25 0 1 0 -2.5 0z" fill="black"></path><path d="M213.75 105 a1.25 1.25 0 1 0 2.5 0 a1.25 1.25 0 1 0 -2.5 0zM193.75 45 a1.25 1.25 0 1 0 2.5 0 a1.25 1.25 0 1 0 -2.5 0zM183.75 55 a1.25 1.25 0 1 0 2.5 0 a1.25 1.25 0 1 0 -2.5 0zM203.75 95 a1.25 1.25 0 1 0 2.5 0 a1.25 1.25 0 1 0 -2.5 0z" fill="black"></path></mask></defs></svg>