<svg xmlns="http://www.w3.org/2000/svg" version="1.1" xmlns:xlink="http://www.w3.org/1999/xlink" xmlns:svgjs="http://svgjs.com/svgjs" width="600" height="1200" preserveAspectRatio="none" viewBox="0 0 600 1200"><g mask="url(&quot;#SvgjsMask1030&quot;)" fill="none"><rect width="600" height="1200" x="0" y="0" fill="url(#SvgjsLinearGradient1031)"></rect><g mask="url(&quot;#SvgjsMask1032&quot;)"><path d="M305 -5L305 5L305 15L305 25" stroke="rgba(85, 255, 0, 1)" stroke-width="1.67"></path><path d="M302.5 25 a2.5 2.5 0 1 0 5 0 a2.5 2.5 0 1 0 -5 0z" fill="rgba(85, 255, 0, 1)"></path><path d="M275 235L275 245L275 255L275 265L275 275L275 285M265 305L275 315L275 325L275 335L275 345L265 355M275 185L285 195L285 205L285 215L285 225L285 235L285 245L285 255M295 85L295 95L295 105M285 175L285 185M265 295L275 305L285 315M295 35L305 45M295 -5L295 5L295 15L295 25L295 35L295 45L295 55L295 65L295 75L295 85L285 95L285 105L285 115L285 125L285 135L285 145L285 155L285 165L285 175L275 185L275 195L275 205L275 215L275 225L275 235L265 245L265 255L265 265L265 275L265 285L265 295L265 305L265 315" stroke="rgba(255, 0, 137, 1)" stroke-width="1.67"></path><path d="M262.5 315 a2.5 2.5 0 1 0 5 0 a2.5 2.5 0 1 0 -5 0zM272.5 285 a2.5 2.5 0 1 0 5 0 a2.5 2.5 0 1 0 -5 0zM262.5 355 a2.5 2.5 0 1 0 5 0 a2.5 2.5 0 1 0 -5 0zM282.5 255 a2.5 2.5 0 1 0 5 0 a2.5 2.5 0 1 0 -5 0zM292.5 105 a2.5 2.5 0 1 0 5 0 a2.5 2.5 0 1 0 -5 0zM282.5 185 a2.5 2.5 0 1 0 5 0 a2.5 2.5 0 1 0 -5 0zM282.5 315 a2.5 2.5 0 1 0 5 0 a2.5 2.5 0 1 0 -5 0zM302.5 45 a2.5 2.5 0 1 0 5 0 a2.5 2.5 0 1 0 -5 0z" fill="rgba(255, 0, 137, 1)"></path><path d="M305 85L315 95L315 105L315 115L315 125L315 135L315 145L315 155L315 165L315 175L315 185L315 195L315 205L315 215L315 225L315 235M305 485L315 495L315 505L325 515L325 525L325 535L325 545L325 555L325 565L325 575L325 585L325 595L325 605L325 615L325 625L325 635L325 645L325 655L325 665L335 675L335 685L335 695L335 705L335 715L335 725L335 735L335 745L335 755L325 765L325 775L325 785L325 795L325 805L325 815M275 825L275 835L275 845L275 855L275 865L275 875L275 885L285 895L285 905L285 915L285 925L285 935L285 945L285 955L285 965L285 975L295 985L295 995L295 1005L295 1015L295 1025L305 1035L305 1045L305 1055L305 1065L305 1075L305 1085M265 995L275 1005L275 1015L275 1025L275 1035L275 1045L275 1055L275 1065L275 1075L275 1085M295 655L305 665L305 675L315 685L315 695L315 705L315 715L315 725L315 735L315 745L315 755L315 765L315 775L315 785L315 795L315 805L315 815L315 825M295 775L305 785L305 795L305 805L305 815L305 825L305 835L305 845L305 855L305 865L305 875L305 885L305 895L305 905L305 915L305 925L315 935L325 945M315 535L305 545L305 555L305 565L295 575L285 585L285 595L285 605L285 615L285 625L285 635L275 645L275 655L275 665L275 675L275 685L275 695L275 705L285 715L285 725L285 735L285 745L285 755L285 765L285 775L285 785L275 795L265 805L265 815L265 825M295 435L295 445L295 455L295 465L295 475L295 485L285 495L285 505L285 515L285 525L285 535L285 545L285 555L285 565L285 575L275 585L265 595L255 605M295 665L285 675L285 685L285 695L285 705M255 915L265 925M295 385L305 395L305 405L305 415L305 425M315 525L305 535L295 545L295 555L295 565M255 945L245 955L245 965L245 975L245 985M265 965L255 975L255 985M285 795L285 805L285 815L285 825L285 835L285 845L285 855L285 865L285 875M255 865L265 875L265 885L265 895L265 905L265 915L275 925M295 595L305 605M315 515L305 525L295 535M295 335L305 345L305 355L305 365L305 375M305 445L315 455L325 465L325 475L325 485L325 495L325 505M305 115L305 125L305 135L305 145L305 155M295 215L305 225L305 235L305 245L305 255L305 265L305 275L305 285L305 295L305 305L305 315L305 325L305 335L315 345L315 355L315 365L315 375L305 385M265 1005L265 1015L265 1025L265 1035L265 1045L265 1055L265 1065L265 1075L265 1085M255 955L255 965M295 265L285 275L285 285L285 295L285 305M295 735L305 745L305 755L305 765L305 775M315 -5L315 5L315 15L315 25L315 35L315 45L305 55L305 65L305 75L305 85L305 95L305 105L305 115L295 125L295 135L295 145L295 155L295 165L295 175L295 185L295 195L295 205L295 215L295 225L295 235L295 245L295 255L295 265L295 275L295 285L295 295L295 305L295 315L295 325L295 335L295 345L295 355L295 365L295 375L295 385L295 395L295 405L295 415L295 425L295 435L305 445L305 455L305 465L305 475L305 485L305 495L305 505L315 515L315 525L315 535L315 545L315 555L315 565L305 575L295 585L295 595L295 605L295 615L295 625L295 635L295 645L295 655L295 665L295 675L295 685L295 695L295 705L295 715L295 725L295 735L295 745L295 755L295 765L295 775L295 785L285 795L275 805L275 815L275 825L265 835L265 845L255 855L255 865L255 875L255 885L255 895L255 905L255 915L255 925L255 935L255 945L255 955L265 965L265 975L265 985L265 995L265 1005L255 1015L255 1025" stroke="rgba(85, 255, 0, 1)" stroke-width="1.67"></path><path d="M252.5 1025 a2.5 2.5 0 1 0 5 0 a2.5 2.5 0 1 0 -5 0zM312.5 235 a2.5 2.5 0 1 0 5 0 a2.5 2.5 0 1 0 -5 0zM322.5 815 a2.5 2.5 0 1 0 5 0 a2.5 2.5 0 1 0 -5 0zM302.5 1085 a2.5 2.5 0 1 0 5 0 a2.5 2.5 0 1 0 -5 0zM272.5 1085 a2.5 2.5 0 1 0 5 0 a2.5 2.5 0 1 0 -5 0zM312.5 825 a2.5 2.5 0 1 0 5 0 a2.5 2.5 0 1 0 -5 0zM322.5 945 a2.5 2.5 0 1 0 5 0 a2.5 2.5 0 1 0 -5 0zM262.5 825 a2.5 2.5 0 1 0 5 0 a2.5 2.5 0 1 0 -5 0zM252.5 605 a2.5 2.5 0 1 0 5 0 a2.5 2.5 0 1 0 -5 0zM282.5 705 a2.5 2.5 0 1 0 5 0 a2.5 2.5 0 1 0 -5 0zM262.5 925 a2.5 2.5 0 1 0 5 0 a2.5 2.5 0 1 0 -5 0zM302.5 425 a2.5 2.5 0 1 0 5 0 a2.5 2.5 0 1 0 -5 0zM292.5 565 a2.5 2.5 0 1 0 5 0 a2.5 2.5 0 1 0 -5 0zM242.5 985 a2.5 2.5 0 1 0 5 0 a2.5 2.5 0 1 0 -5 0zM252.5 985 a2.5 2.5 0 1 0 5 0 a2.5 2.5 0 1 0 -5 0zM282.5 875 a2.5 2.5 0 1 0 5 0 a2.5 2.5 0 1 0 -5 0zM272.5 925 a2.5 2.5 0 1 0 5 0 a2.5 2.5 0 1 0 -5 0zM302.5 605 a2.5 2.5 0 1 0 5 0 a2.5 2.5 0 1 0 -5 0zM292.5 535 a2.5 2.5 0 1 0 5 0 a2.5 2.5 0 1 0 -5 0zM302.5 375 a2.5 2.5 0 1 0 5 0 a2.5 2.5 0 1 0 -5 0zM322.5 505 a2.5 2.5 0 1 0 5 0 a2.5 2.5 0 1 0 -5 0zM302.5 155 a2.5 2.5 0 1 0 5 0 a2.5 2.5 0 1 0 -5 0zM302.5 385 a2.5 2.5 0 1 0 5 0 a2.5 2.5 0 1 0 -5 0zM262.5 1085 a2.5 2.5 0 1 0 5 0 a2.5 2.5 0 1 0 -5 0zM252.5 965 a2.5 2.5 0 1 0 5 0 a2.5 2.5 0 1 0 -5 0zM282.5 305 a2.5 2.5 0 1 0 5 0 a2.5 2.5 0 1 0 -5 0zM302.5 775 a2.5 2.5 0 1 0 5 0 a2.5 2.5 0 1 0 -5 0z" fill="rgba(85, 255, 0, 1)"></path><path d="M245 415L255 425M255 735L245 745L245 755M255 795L245 805L245 815L245 825L245 835L245 845M255 265L245 275L245 285M265 205L255 215M275 115L265 125L265 135L265 145M245 515L235 525M255 785L265 795M245 915L235 925M255 765L245 775L245 785L245 795M255 685L265 695L265 705L265 715L265 725L265 735L265 745L265 755L265 765M245 505L235 515M245 565L255 575L255 585L255 595M245 865L235 875L235 885L235 895L235 905L235 915L225 925L225 935L225 945L225 955L225 965L225 975L225 985L225 995L225 1005L225 1015L225 1025L225 1035L225 1045L225 1055L225 1065L225 1075L225 1085M245 855L235 865L225 875L225 885L225 895L225 905L225 915L215 925L215 935L215 945L215 955L215 965L215 975L215 985L215 995L215 1005L215 1015L215 1025L215 1035L215 1045L215 1055L215 1065L215 1075L215 1085M255 335L255 345L255 355L255 365L265 375L265 385L265 395M255 675L265 685M245 395L255 405L255 415L265 425L265 435L265 445L265 455L265 465L265 475L265 485L265 495L265 505L265 515L265 525L265 535L265 545M245 545L255 555L255 565L265 575L265 585M245 375L255 385L255 395M245 495L255 505L255 515L255 525L255 535L255 545M245 455L255 465L255 475L255 485L255 495M245 615L255 625L265 635L265 645L265 655L265 665L265 675M285 -5L285 5L285 15L285 25L285 35L285 45L285 55L285 65L285 75L285 85L275 95L275 105L275 115L275 125L275 135L275 145L275 155L275 165L275 175L265 185L265 195L265 205L265 215L265 225L265 235L255 245L255 255L255 265L255 275L255 285L255 295L255 305L255 315L255 325L255 335L245 345L245 355L245 365L245 375L245 385L245 395L245 405L245 415L245 425L245 435L245 445L245 455L245 465L245 475L245 485L245 495L245 505L245 515L245 525L245 535L245 545L245 555L245 565L245 575L245 585L245 595L245 605L245 615L245 625L255 635L255 645L255 655L255 665L255 675L255 685L255 695L255 705L255 715L255 725L255 735L255 745L255 755L255 765L255 775L255 785L255 795L255 805L255 815L255 825L255 835L255 845L245 855L245 865L245 875L245 885L245 895L245 905L245 915L245 925" stroke="rgba(85, 255, 0, 1)" stroke-width="1.67"></path><path d="M242.5 925 a2.5 2.5 0 1 0 5 0 a2.5 2.5 0 1 0 -5 0zM252.5 425 a2.5 2.5 0 1 0 5 0 a2.5 2.5 0 1 0 -5 0zM242.5 755 a2.5 2.5 0 1 0 5 0 a2.5 2.5 0 1 0 -5 0zM242.5 845 a2.5 2.5 0 1 0 5 0 a2.5 2.5 0 1 0 -5 0zM242.5 285 a2.5 2.5 0 1 0 5 0 a2.5 2.5 0 1 0 -5 0zM252.5 215 a2.5 2.5 0 1 0 5 0 a2.5 2.5 0 1 0 -5 0zM262.5 145 a2.5 2.5 0 1 0 5 0 a2.5 2.5 0 1 0 -5 0zM232.5 525 a2.5 2.5 0 1 0 5 0 a2.5 2.5 0 1 0 -5 0zM262.5 795 a2.5 2.5 0 1 0 5 0 a2.5 2.5 0 1 0 -5 0zM232.5 925 a2.5 2.5 0 1 0 5 0 a2.5 2.5 0 1 0 -5 0zM242.5 795 a2.5 2.5 0 1 0 5 0 a2.5 2.5 0 1 0 -5 0zM262.5 765 a2.5 2.5 0 1 0 5 0 a2.5 2.5 0 1 0 -5 0zM232.5 515 a2.5 2.5 0 1 0 5 0 a2.5 2.5 0 1 0 -5 0zM252.5 595 a2.5 2.5 0 1 0 5 0 a2.5 2.5 0 1 0 -5 0zM222.5 1085 a2.5 2.5 0 1 0 5 0 a2.5 2.5 0 1 0 -5 0zM212.5 1085 a2.5 2.5 0 1 0 5 0 a2.5 2.5 0 1 0 -5 0zM262.5 395 a2.5 2.5 0 1 0 5 0 a2.5 2.5 0 1 0 -5 0zM262.5 685 a2.5 2.5 0 1 0 5 0 a2.5 2.5 0 1 0 -5 0zM262.5 545 a2.5 2.5 0 1 0 5 0 a2.5 2.5 0 1 0 -5 0zM262.5 585 a2.5 2.5 0 1 0 5 0 a2.5 2.5 0 1 0 -5 0zM252.5 395 a2.5 2.5 0 1 0 5 0 a2.5 2.5 0 1 0 -5 0zM252.5 545 a2.5 2.5 0 1 0 5 0 a2.5 2.5 0 1 0 -5 0zM252.5 495 a2.5 2.5 0 1 0 5 0 a2.5 2.5 0 1 0 -5 0zM262.5 675 a2.5 2.5 0 1 0 5 0 a2.5 2.5 0 1 0 -5 0z" fill="rgba(85, 255, 0, 1)"></path><path d="M355 905L345 915L335 925L335 935L335 945M355 675L345 685L345 695L345 705L345 715L345 725M355 805L345 815L345 825L345 835L345 845L335 855L335 865L335 875L325 885L325 895L325 905L325 915L325 925L325 935M345 795L345 805L335 815L335 825L335 835L335 845L325 855L325 865L325 875L315 885L315 895L315 905L315 915L315 925M345 435L355 445L355 455L355 465L355 475L355 485L355 495L355 505L355 515L355 525L355 535L355 545L355 555L345 565L345 575L345 585L345 595L345 605M355 665L365 675L365 685L365 695L365 705L365 715L365 725L365 735L355 745L355 755L355 765L355 775L355 785L355 795L365 805L365 815L365 825L365 835L365 845L365 855M325 75L335 85L335 95L335 105L345 115L345 125L345 135L345 145L345 155L345 165L345 175M335 375L345 385L345 395L355 405L355 415L355 425L355 435M345 635L355 645L355 655M355 875L365 885L365 895L365 905L365 915L365 925M325 185L335 195L335 205L335 215M335 325L345 335L345 345L345 355M325 225L335 235L335 245L335 255L345 265L345 275L345 285L345 295L345 305M325 145L335 155L335 165L335 175L335 185L345 195L345 205L345 215L345 225L345 235L345 245L345 255L355 265L355 275L355 285L355 295L355 305L355 315L355 325L355 335L355 345L355 355M345 785L335 795L335 805M345 935L355 945L355 955L355 965L355 975L355 985L355 995L355 1005L345 1015L345 1025L345 1035L345 1045L335 1055L335 1065L335 1075L335 1085M345 655L345 665L345 675M335 385L325 395L325 405L325 415L335 425L335 435L335 445L335 455L335 465M335 395L335 405L335 415M335 545L345 555M335 275L325 285L325 295L325 305L325 315L325 325M345 645L335 655L335 665M335 525L345 535L345 545M335 1015L325 1025L315 1035L315 1045L315 1055M325 115L335 125L335 135M345 965L335 975L335 985L335 995L325 1005L325 1015L315 1025M325 -5L325 5L325 15L325 25L325 35L325 45L325 55L325 65L325 75L325 85L325 95L325 105L325 115L325 125L325 135L325 145L325 155L325 165L325 175L325 185L325 195L325 205L325 215L325 225L325 235L325 245L325 255L335 265L335 275L335 285L335 295L335 305L335 315L335 325L335 335L335 345L335 355L335 365L335 375L335 385L335 395L345 405L345 415L345 425L345 435L345 445L345 455L345 465L335 475L335 485L335 495L335 505L335 515L335 525L335 535L335 545L335 555L335 565L335 575L335 585L335 595L335 605L335 615L345 625L345 635L345 645L345 655L355 665L355 675L355 685L355 695L355 705L355 715L355 725L345 735L345 745L345 755L345 765L345 775L345 785L345 795L355 805L355 815L355 825L355 835L355 845L355 855L355 865L355 875L355 885L355 895L355 905L355 915L345 925L345 935L345 945L345 955L345 965L345 975L345 985L345 995L335 1005L335 1015L335 1025L325 1035" stroke="rgba(40, 255, 251, 1)" stroke-width="1.67"></path><path d="M322.5 1035 a2.5 2.5 0 1 0 5 0 a2.5 2.5 0 1 0 -5 0zM332.5 945 a2.5 2.5 0 1 0 5 0 a2.5 2.5 0 1 0 -5 0zM342.5 725 a2.5 2.5 0 1 0 5 0 a2.5 2.5 0 1 0 -5 0zM322.5 935 a2.5 2.5 0 1 0 5 0 a2.5 2.5 0 1 0 -5 0zM312.5 925 a2.5 2.5 0 1 0 5 0 a2.5 2.5 0 1 0 -5 0zM342.5 605 a2.5 2.5 0 1 0 5 0 a2.5 2.5 0 1 0 -5 0zM362.5 855 a2.5 2.5 0 1 0 5 0 a2.5 2.5 0 1 0 -5 0zM342.5 175 a2.5 2.5 0 1 0 5 0 a2.5 2.5 0 1 0 -5 0zM352.5 435 a2.5 2.5 0 1 0 5 0 a2.5 2.5 0 1 0 -5 0zM352.5 655 a2.5 2.5 0 1 0 5 0 a2.5 2.5 0 1 0 -5 0zM362.5 925 a2.5 2.5 0 1 0 5 0 a2.5 2.5 0 1 0 -5 0zM332.5 215 a2.5 2.5 0 1 0 5 0 a2.5 2.5 0 1 0 -5 0zM342.5 355 a2.5 2.5 0 1 0 5 0 a2.5 2.5 0 1 0 -5 0zM342.5 305 a2.5 2.5 0 1 0 5 0 a2.5 2.5 0 1 0 -5 0zM352.5 355 a2.5 2.5 0 1 0 5 0 a2.5 2.5 0 1 0 -5 0zM332.5 805 a2.5 2.5 0 1 0 5 0 a2.5 2.5 0 1 0 -5 0zM332.5 1085 a2.5 2.5 0 1 0 5 0 a2.5 2.5 0 1 0 -5 0zM342.5 675 a2.5 2.5 0 1 0 5 0 a2.5 2.5 0 1 0 -5 0zM332.5 465 a2.5 2.5 0 1 0 5 0 a2.5 2.5 0 1 0 -5 0zM332.5 415 a2.5 2.5 0 1 0 5 0 a2.5 2.5 0 1 0 -5 0zM342.5 555 a2.5 2.5 0 1 0 5 0 a2.5 2.5 0 1 0 -5 0zM322.5 325 a2.5 2.5 0 1 0 5 0 a2.5 2.5 0 1 0 -5 0zM332.5 665 a2.5 2.5 0 1 0 5 0 a2.5 2.5 0 1 0 -5 0zM342.5 545 a2.5 2.5 0 1 0 5 0 a2.5 2.5 0 1 0 -5 0zM312.5 1055 a2.5 2.5 0 1 0 5 0 a2.5 2.5 0 1 0 -5 0zM332.5 135 a2.5 2.5 0 1 0 5 0 a2.5 2.5 0 1 0 -5 0zM312.5 1025 a2.5 2.5 0 1 0 5 0 a2.5 2.5 0 1 0 -5 0z" fill="rgba(40, 255, 251, 1)"></path><path d="M255 225L245 235M235 345L225 355L225 365L225 375L225 385L225 395L225 405L225 415L225 425L225 435M245 185L255 195L255 205M245 315L235 325L225 335L225 345L215 355L215 365M245 665L235 675L235 685L225 695L215 705L215 715L215 725L215 735L225 745L225 755L225 765L225 775L225 785L225 795M235 565L225 575L225 585L225 595L225 605L225 615L225 625L225 635M235 825L225 835L225 845L225 855L225 865L215 875L215 885L215 895L215 905L215 915L205 925L205 935L205 945L205 955L205 965M235 485L225 495M235 545L225 555L225 565L215 575L215 585L215 595L215 605L215 615L215 625L215 635M235 475L225 485M235 465L225 475M235 815L225 825L215 835L215 845L215 855L215 865L205 875L205 885L205 895L205 905L205 915L195 925L195 935L195 945L195 955L195 965L195 975L195 985L195 995L195 1005L195 1015M235 705L245 715L245 725L245 735M245 215L245 225M245 155L255 165L255 175M235 455L225 465M245 305L235 315L225 325M235 445L225 455M235 805L225 815L215 825L205 835M265 105L265 115M235 535L225 545L215 555L215 565L205 575L205 585L205 595M275 -5L275 5L275 15L275 25L275 35L275 45L275 55L275 65L275 75L275 85L265 95L265 105L255 115L255 125L255 135L255 145L245 155L245 165L245 175L245 185L245 195L245 205L245 215L255 225L255 235L245 245L235 255L235 265L235 275L235 285L245 295L245 305L245 315L245 325L245 335L235 345L235 355L235 365L235 375L235 385L235 395L235 405L235 415L235 425L235 435L235 445L235 455L235 465L235 475L235 485L235 495L225 505L225 515L225 525L235 535L235 545L235 555L235 565L235 575L235 585L235 595L235 605L235 615L235 625L235 635L235 645L245 655L245 665L245 675L245 685L235 695L235 705L235 715L235 725L235 735L235 745L235 755L235 765L235 775L235 785L235 795L235 805L235 815L235 825L235 835L235 845" stroke="rgba(85, 255, 0, 1)" stroke-width="1.67"></path><path d="M232.5 845 a2.5 2.5 0 1 0 5 0 a2.5 2.5 0 1 0 -5 0zM242.5 235 a2.5 2.5 0 1 0 5 0 a2.5 2.5 0 1 0 -5 0zM222.5 435 a2.5 2.5 0 1 0 5 0 a2.5 2.5 0 1 0 -5 0zM252.5 205 a2.5 2.5 0 1 0 5 0 a2.5 2.5 0 1 0 -5 0zM212.5 365 a2.5 2.5 0 1 0 5 0 a2.5 2.5 0 1 0 -5 0zM222.5 795 a2.5 2.5 0 1 0 5 0 a2.5 2.5 0 1 0 -5 0zM222.5 635 a2.5 2.5 0 1 0 5 0 a2.5 2.5 0 1 0 -5 0zM202.5 965 a2.5 2.5 0 1 0 5 0 a2.5 2.5 0 1 0 -5 0zM222.5 495 a2.5 2.5 0 1 0 5 0 a2.5 2.5 0 1 0 -5 0zM212.5 635 a2.5 2.5 0 1 0 5 0 a2.5 2.5 0 1 0 -5 0zM222.5 485 a2.5 2.5 0 1 0 5 0 a2.5 2.5 0 1 0 -5 0zM222.5 475 a2.5 2.5 0 1 0 5 0 a2.5 2.5 0 1 0 -5 0zM192.5 1015 a2.5 2.5 0 1 0 5 0 a2.5 2.5 0 1 0 -5 0zM242.5 735 a2.5 2.5 0 1 0 5 0 a2.5 2.5 0 1 0 -5 0zM242.5 225 a2.5 2.5 0 1 0 5 0 a2.5 2.5 0 1 0 -5 0zM252.5 175 a2.5 2.5 0 1 0 5 0 a2.5 2.5 0 1 0 -5 0zM222.5 465 a2.5 2.5 0 1 0 5 0 a2.5 2.5 0 1 0 -5 0zM222.5 325 a2.5 2.5 0 1 0 5 0 a2.5 2.5 0 1 0 -5 0zM222.5 455 a2.5 2.5 0 1 0 5 0 a2.5 2.5 0 1 0 -5 0zM202.5 835 a2.5 2.5 0 1 0 5 0 a2.5 2.5 0 1 0 -5 0zM262.5 115 a2.5 2.5 0 1 0 5 0 a2.5 2.5 0 1 0 -5 0zM202.5 595 a2.5 2.5 0 1 0 5 0 a2.5 2.5 0 1 0 -5 0z" fill="rgba(85, 255, 0, 1)"></path><path d="M365 445L375 455L375 465L375 475L375 485L375 495M365 435L375 445M355 85L345 95L345 105M355 585L365 595M365 545L375 555L375 565L375 575L375 585L375 595L375 605L375 615L375 625L375 635L375 645L375 655L375 665L375 675L375 685L375 695L375 705M375 175L365 185L355 195L355 205L355 215L355 225L355 235L355 245L355 255M375 325L365 335L365 345L365 355M365 125L355 135L355 145L355 155L355 165L355 175L355 185M355 75L345 85M365 515L375 525L375 535L375 545M355 115L355 125M355 575L365 585M355 65L345 75M375 195L365 205L365 215L365 225L365 235L365 245M335 45L335 55L335 65M335 -5L335 5L335 15L335 25L335 35L335 45L345 55L355 65L355 75L355 85L355 95L355 105L355 115L365 125L365 135L365 145L375 155L375 165L375 175L375 185L375 195L375 205L375 215L375 225L375 235L375 245L365 255L365 265L365 275L365 285L365 295L365 305L365 315L375 325L375 335L375 345L375 355L375 365L375 375L375 385L375 395L375 405L365 415L365 425L365 435L365 445L365 455L365 465L365 475L365 485L365 495L365 505L365 515L365 525L365 535L365 545L365 555L355 565L355 575L355 585L355 595" stroke="rgba(255, 38, 38, 1)" stroke-width="1.67"></path><path d="M352.5 595 a2.5 2.5 0 1 0 5 0 a2.5 2.5 0 1 0 -5 0zM372.5 495 a2.5 2.5 0 1 0 5 0 a2.5 2.5 0 1 0 -5 0zM372.5 445 a2.5 2.5 0 1 0 5 0 a2.5 2.5 0 1 0 -5 0zM342.5 105 a2.5 2.5 0 1 0 5 0 a2.5 2.5 0 1 0 -5 0zM362.5 595 a2.5 2.5 0 1 0 5 0 a2.5 2.5 0 1 0 -5 0zM372.5 705 a2.5 2.5 0 1 0 5 0 a2.5 2.5 0 1 0 -5 0zM352.5 255 a2.5 2.5 0 1 0 5 0 a2.5 2.5 0 1 0 -5 0zM362.5 355 a2.5 2.5 0 1 0 5 0 a2.5 2.5 0 1 0 -5 0zM352.5 185 a2.5 2.5 0 1 0 5 0 a2.5 2.5 0 1 0 -5 0zM342.5 85 a2.5 2.5 0 1 0 5 0 a2.5 2.5 0 1 0 -5 0zM372.5 545 a2.5 2.5 0 1 0 5 0 a2.5 2.5 0 1 0 -5 0zM352.5 125 a2.5 2.5 0 1 0 5 0 a2.5 2.5 0 1 0 -5 0zM362.5 585 a2.5 2.5 0 1 0 5 0 a2.5 2.5 0 1 0 -5 0zM342.5 75 a2.5 2.5 0 1 0 5 0 a2.5 2.5 0 1 0 -5 0zM362.5 245 a2.5 2.5 0 1 0 5 0 a2.5 2.5 0 1 0 -5 0zM332.5 65 a2.5 2.5 0 1 0 5 0 a2.5 2.5 0 1 0 -5 0z" fill="rgba(255, 38, 38, 1)"></path><path d="M215 335L215 345M215 415L205 425L205 435L205 445L205 455M225 295L225 305L225 315M265 75L255 85L245 95L245 105M215 475L205 485M215 465L205 475M265 65L255 75L245 85M215 405L205 415M265 35L255 45L255 55M215 375L205 385L205 395L205 405M265 25L255 35L245 45M265 -5L265 5L265 15L265 25L265 35L265 45L265 55L265 65L265 75L265 85L255 95L255 105L245 115L245 125L245 135L245 145L235 155L235 165L235 175L235 185L235 195L235 205L235 215L235 225L235 235L235 245L225 255L225 265L225 275L225 285L225 295L215 305L215 315L215 325L215 335L205 345L205 355L205 365L215 375L215 385L215 395L215 405L215 415L215 425L215 435L215 445L215 455L215 465L215 475L215 485L215 495L215 505L215 515L215 525" stroke="rgba(40, 255, 251, 1)" stroke-width="1.67"></path><path d="M212.5 525 a2.5 2.5 0 1 0 5 0 a2.5 2.5 0 1 0 -5 0zM212.5 345 a2.5 2.5 0 1 0 5 0 a2.5 2.5 0 1 0 -5 0zM202.5 455 a2.5 2.5 0 1 0 5 0 a2.5 2.5 0 1 0 -5 0zM222.5 315 a2.5 2.5 0 1 0 5 0 a2.5 2.5 0 1 0 -5 0zM242.5 105 a2.5 2.5 0 1 0 5 0 a2.5 2.5 0 1 0 -5 0zM202.5 485 a2.5 2.5 0 1 0 5 0 a2.5 2.5 0 1 0 -5 0zM202.5 475 a2.5 2.5 0 1 0 5 0 a2.5 2.5 0 1 0 -5 0zM242.5 85 a2.5 2.5 0 1 0 5 0 a2.5 2.5 0 1 0 -5 0zM202.5 415 a2.5 2.5 0 1 0 5 0 a2.5 2.5 0 1 0 -5 0zM252.5 55 a2.5 2.5 0 1 0 5 0 a2.5 2.5 0 1 0 -5 0zM202.5 405 a2.5 2.5 0 1 0 5 0 a2.5 2.5 0 1 0 -5 0zM242.5 45 a2.5 2.5 0 1 0 5 0 a2.5 2.5 0 1 0 -5 0z" fill="rgba(40, 255, 251, 1)"></path><path d="M345 -5L345 5L345 15L345 25L345 35L345 45L355 55L365 65L365 75L365 85L365 95L365 105L365 115L375 125" stroke="rgba(255, 38, 38, 1)" stroke-width="1.67"></path><path d="M372.5 125 a2.5 2.5 0 1 0 5 0 a2.5 2.5 0 1 0 -5 0z" fill="rgba(255, 38, 38, 1)"></path><path d="M255 15L255 25M255 -5L255 5L255 15L245 25" stroke="rgba(85, 255, 0, 1)" stroke-width="1.67"></path><path d="M242.5 25 a2.5 2.5 0 1 0 5 0 a2.5 2.5 0 1 0 -5 0zM252.5 25 a2.5 2.5 0 1 0 5 0 a2.5 2.5 0 1 0 -5 0z" fill="rgba(85, 255, 0, 1)"></path><path d="M375 825L385 835L385 845L395 855L405 865L405 875L405 885L405 895L405 905L405 915L415 925L415 935L415 945L415 955L415 965L415 975L415 985M385 415L375 425L375 435M395 875L385 885L385 895L385 905L385 915M375 95L385 105L385 115M375 765L365 775L365 785M395 615L385 625L385 635M385 665L395 675L395 685L395 695L395 705L395 715L395 725M375 745L365 755L365 765M395 625L405 635L405 645M375 1045L365 1055L365 1065L365 1075L365 1085M385 445L395 455M385 355L395 365L395 375M375 805L385 815L385 825L395 835L395 845L405 855L415 865L415 875M385 335L395 345M375 785L385 795L385 805L395 815L395 825L405 835L405 845L415 855L425 865L425 875M385 655L395 665L405 675L405 685L405 695L405 705L405 715L405 725L405 735L405 745L405 755L405 765L405 775L405 785L405 795L405 805L405 815L405 825M395 965L405 975L405 985L405 995L405 1005L415 1015L415 1025L415 1035L415 1045L415 1055L405 1065L405 1075L405 1085M375 1035L365 1045L355 1055L355 1065L355 1075L355 1085M375 85L385 95M395 295L385 305L385 315L385 325M385 855L385 865L385 875L375 885L375 895L375 905L375 915L375 925M395 575L385 585L385 595L385 605L385 615M385 545L385 555L385 565L385 575M395 595L405 605L405 615L415 625L415 635L415 645L415 655L415 665L415 675L415 685L415 695L415 705L415 715L415 725L415 735M395 975L385 985M395 945L405 955L405 965M395 285L385 295L375 305L375 315M355 -5L355 5L355 15L355 25L355 35L355 45L365 55L375 65L375 75L375 85L375 95L375 105L375 115L385 125L385 135L385 145L385 155L385 165L385 175L385 185L385 195L385 205L385 215L385 225L385 235L385 245L385 255L385 265L395 275L395 285L395 295L395 305L395 315L395 325L385 335L385 345L385 355L385 365L385 375L385 385L385 395L385 405L385 415L385 425L385 435L385 445L385 455L385 465L385 475L385 485L385 495L385 505L385 515L385 525L385 535L385 545L395 555L395 565L395 575L395 585L395 595L395 605L395 615L395 625L395 635L385 645L385 655L385 665L385 675L385 685L385 695L385 705L385 715L385 725L385 735L375 745L375 755L375 765L375 775L375 785L375 795L375 805L375 815L375 825L375 835L375 845L385 855L395 865L395 875L395 885L395 895L395 905L395 915L395 925L395 935L395 945L395 955L395 965L395 975L395 985L395 995L395 1005L395 1015L385 1025L375 1035L375 1045L375 1055L375 1065" stroke="rgba(255, 0, 137, 1)" stroke-width="1.67"></path><path d="M372.5 1065 a2.5 2.5 0 1 0 5 0 a2.5 2.5 0 1 0 -5 0zM412.5 985 a2.5 2.5 0 1 0 5 0 a2.5 2.5 0 1 0 -5 0zM372.5 435 a2.5 2.5 0 1 0 5 0 a2.5 2.5 0 1 0 -5 0zM382.5 915 a2.5 2.5 0 1 0 5 0 a2.5 2.5 0 1 0 -5 0zM382.5 115 a2.5 2.5 0 1 0 5 0 a2.5 2.5 0 1 0 -5 0zM362.5 785 a2.5 2.5 0 1 0 5 0 a2.5 2.5 0 1 0 -5 0zM382.5 635 a2.5 2.5 0 1 0 5 0 a2.5 2.5 0 1 0 -5 0zM392.5 725 a2.5 2.5 0 1 0 5 0 a2.5 2.5 0 1 0 -5 0zM362.5 765 a2.5 2.5 0 1 0 5 0 a2.5 2.5 0 1 0 -5 0zM402.5 645 a2.5 2.5 0 1 0 5 0 a2.5 2.5 0 1 0 -5 0zM362.5 1085 a2.5 2.5 0 1 0 5 0 a2.5 2.5 0 1 0 -5 0zM392.5 455 a2.5 2.5 0 1 0 5 0 a2.5 2.5 0 1 0 -5 0zM392.5 375 a2.5 2.5 0 1 0 5 0 a2.5 2.5 0 1 0 -5 0zM412.5 875 a2.5 2.5 0 1 0 5 0 a2.5 2.5 0 1 0 -5 0zM392.5 345 a2.5 2.5 0 1 0 5 0 a2.5 2.5 0 1 0 -5 0zM422.5 875 a2.5 2.5 0 1 0 5 0 a2.5 2.5 0 1 0 -5 0zM402.5 825 a2.5 2.5 0 1 0 5 0 a2.5 2.5 0 1 0 -5 0zM402.5 1085 a2.5 2.5 0 1 0 5 0 a2.5 2.5 0 1 0 -5 0zM352.5 1085 a2.5 2.5 0 1 0 5 0 a2.5 2.5 0 1 0 -5 0zM382.5 95 a2.5 2.5 0 1 0 5 0 a2.5 2.5 0 1 0 -5 0zM382.5 325 a2.5 2.5 0 1 0 5 0 a2.5 2.5 0 1 0 -5 0zM372.5 925 a2.5 2.5 0 1 0 5 0 a2.5 2.5 0 1 0 -5 0zM382.5 615 a2.5 2.5 0 1 0 5 0 a2.5 2.5 0 1 0 -5 0zM382.5 575 a2.5 2.5 0 1 0 5 0 a2.5 2.5 0 1 0 -5 0zM412.5 735 a2.5 2.5 0 1 0 5 0 a2.5 2.5 0 1 0 -5 0zM382.5 985 a2.5 2.5 0 1 0 5 0 a2.5 2.5 0 1 0 -5 0zM402.5 965 a2.5 2.5 0 1 0 5 0 a2.5 2.5 0 1 0 -5 0zM372.5 315 a2.5 2.5 0 1 0 5 0 a2.5 2.5 0 1 0 -5 0z" fill="rgba(255, 0, 137, 1)"></path><path d="M235 55L245 65L245 75M245 -5L245 5L245 15L235 25L235 35L235 45L235 55L235 65L235 75L235 85L235 95L235 105L235 115L235 125L235 135" stroke="rgba(40, 255, 251, 1)" stroke-width="1.67"></path><path d="M232.5 135 a2.5 2.5 0 1 0 5 0 a2.5 2.5 0 1 0 -5 0zM242.5 75 a2.5 2.5 0 1 0 5 0 a2.5 2.5 0 1 0 -5 0z" fill="rgba(40, 255, 251, 1)"></path><path d="M365 -5L365 5L365 15L365 25L365 35L365 45L375 55L385 65L385 75" stroke="rgba(85, 255, 0, 1)" stroke-width="1.67"></path><path d="M382.5 75 a2.5 2.5 0 1 0 5 0 a2.5 2.5 0 1 0 -5 0z" fill="rgba(85, 255, 0, 1)"></path><path d="M195 675L185 685M205 645L205 655L205 665L215 675L215 685M215 265L205 275M195 445L185 455M225 145L215 155L215 165L205 175L205 185L205 195L205 205L205 215L205 225L205 235L205 245L205 255L205 265L195 275L195 285L195 295L195 305L195 315L195 325L195 335M225 225L215 235L215 245M205 725L195 735L195 745M225 115L215 125L215 135L215 145L205 155L205 165M215 765L205 775L205 785L205 795M195 415L185 425L185 435L185 445M215 745L205 755L205 765L195 775L195 785L195 795L195 805L195 815L195 825M195 685L205 695L205 705L205 715M195 525L205 535L205 545L205 555L205 565M195 665L185 675M205 605L195 615L195 625M195 715L195 725M225 195L215 205L215 215M225 105L215 115L205 125L205 135L205 145M215 285L205 295M195 385L185 395L185 405L185 415M235 -5L235 5L235 15L225 25L225 35L225 45L225 55L225 65L225 75L225 85L225 95L225 105L225 115L225 125L225 135L225 145L225 155L225 165L225 175L225 185L225 195L225 205L225 215L225 225L225 235L225 245L215 255L215 265L215 275L215 285L215 295L205 305L205 315L205 325L205 335L195 345L195 355L195 365L195 375L195 385L195 395L195 405L195 415L195 425L195 435L195 445L195 455L195 465L195 475L195 485L205 495L205 505L205 515L195 525L195 535L195 545L195 555L195 565L195 575L195 585L195 595L205 605L205 615L205 625L205 635L205 645L195 655L195 665L195 675L195 685L195 695L195 705L195 715L205 725L205 735L215 745L215 755L215 765L215 775L215 785" stroke="rgba(255, 38, 38, 1)" stroke-width="1.67"></path><path d="M212.5 785 a2.5 2.5 0 1 0 5 0 a2.5 2.5 0 1 0 -5 0zM182.5 685 a2.5 2.5 0 1 0 5 0 a2.5 2.5 0 1 0 -5 0zM212.5 685 a2.5 2.5 0 1 0 5 0 a2.5 2.5 0 1 0 -5 0zM202.5 275 a2.5 2.5 0 1 0 5 0 a2.5 2.5 0 1 0 -5 0zM182.5 455 a2.5 2.5 0 1 0 5 0 a2.5 2.5 0 1 0 -5 0zM192.5 335 a2.5 2.5 0 1 0 5 0 a2.5 2.5 0 1 0 -5 0zM212.5 245 a2.5 2.5 0 1 0 5 0 a2.5 2.5 0 1 0 -5 0zM192.5 745 a2.5 2.5 0 1 0 5 0 a2.5 2.5 0 1 0 -5 0zM202.5 165 a2.5 2.5 0 1 0 5 0 a2.5 2.5 0 1 0 -5 0zM202.5 795 a2.5 2.5 0 1 0 5 0 a2.5 2.5 0 1 0 -5 0zM182.5 445 a2.5 2.5 0 1 0 5 0 a2.5 2.5 0 1 0 -5 0zM192.5 825 a2.5 2.5 0 1 0 5 0 a2.5 2.5 0 1 0 -5 0zM202.5 715 a2.5 2.5 0 1 0 5 0 a2.5 2.5 0 1 0 -5 0zM202.5 565 a2.5 2.5 0 1 0 5 0 a2.5 2.5 0 1 0 -5 0zM182.5 675 a2.5 2.5 0 1 0 5 0 a2.5 2.5 0 1 0 -5 0zM192.5 625 a2.5 2.5 0 1 0 5 0 a2.5 2.5 0 1 0 -5 0zM192.5 725 a2.5 2.5 0 1 0 5 0 a2.5 2.5 0 1 0 -5 0zM212.5 215 a2.5 2.5 0 1 0 5 0 a2.5 2.5 0 1 0 -5 0zM202.5 145 a2.5 2.5 0 1 0 5 0 a2.5 2.5 0 1 0 -5 0zM202.5 295 a2.5 2.5 0 1 0 5 0 a2.5 2.5 0 1 0 -5 0zM182.5 415 a2.5 2.5 0 1 0 5 0 a2.5 2.5 0 1 0 -5 0z" fill="rgba(255, 38, 38, 1)"></path><path d="M375 -5L375 5L375 15L375 25L375 35L375 45L385 55L395 65" stroke="rgba(255, 0, 137, 1)" stroke-width="1.67"></path><path d="M392.5 65 a2.5 2.5 0 1 0 5 0 a2.5 2.5 0 1 0 -5 0z" fill="rgba(255, 0, 137, 1)"></path><path d="M215 75L215 85M225 5L215 15M225 -5L225 5L225 15L215 25L215 35L215 45L215 55L215 65L215 75L205 85" stroke="rgba(255, 38, 38, 1)" stroke-width="1.67"></path><path d="M202.5 85 a2.5 2.5 0 1 0 5 0 a2.5 2.5 0 1 0 -5 0zM212.5 85 a2.5 2.5 0 1 0 5 0 a2.5 2.5 0 1 0 -5 0zM212.5 15 a2.5 2.5 0 1 0 5 0 a2.5 2.5 0 1 0 -5 0z" fill="rgba(255, 38, 38, 1)"></path><path d="M395 465L405 475L405 485L405 495L405 505L405 515L405 525L405 535M395 395L405 405L405 415L405 425L415 435L415 445L415 455L415 465L415 475L415 485L415 495L415 505L415 515L415 525L415 535L415 545L415 555M415 585L405 595M425 715L435 725M395 215L405 225L405 235L405 245L405 255L405 265L415 275L415 285L415 295L425 305L425 315L425 325L435 335L435 345L435 355L435 365L435 375L435 385L435 395M395 85L405 95M415 305L405 315L405 325L405 335M425 635L435 645L435 655L435 665L435 675L435 685L435 695M415 765L425 775M425 735L425 745L425 755M405 455L405 465M395 145L405 155L405 165L405 175L405 185L405 195L405 205L405 215M395 425L395 435L395 445M395 125L405 135L405 145M415 335L425 345L425 355L425 365L425 375L425 385L425 395L425 405L425 415L425 425L425 435L425 445L425 455L425 465L425 475M425 625L435 635L445 645L445 655M405 75L405 85M405 565L415 575L425 585L425 595L425 605M415 785L425 795L425 805L425 815L425 825L425 835L425 845L425 855M405 295L405 305M385 -5L385 5L385 15L385 25L385 35L385 45L395 55L405 65L405 75L395 85L395 95L395 105L395 115L395 125L395 135L395 145L395 155L395 165L395 175L395 185L395 195L395 205L395 215L395 225L395 235L395 245L395 255L395 265L405 275L405 285L405 295L415 305L415 315L415 325L415 335L415 345L405 355L405 365L405 375L395 385L395 395L395 405L395 415L395 425L405 435L405 445L405 455L395 465L395 475L395 485L395 495L395 505L395 515L395 525L395 535L395 545L405 555L405 565L405 575L415 585L415 595L415 605L415 615L425 625L425 635L425 645L425 655L425 665L425 675L425 685L425 695L425 705L425 715L425 725L425 735L415 745L415 755L415 765L415 775L415 785L415 795" stroke="rgba(255, 38, 38, 1)" stroke-width="1.67"></path><path d="M412.5 795 a2.5 2.5 0 1 0 5 0 a2.5 2.5 0 1 0 -5 0zM402.5 535 a2.5 2.5 0 1 0 5 0 a2.5 2.5 0 1 0 -5 0zM412.5 555 a2.5 2.5 0 1 0 5 0 a2.5 2.5 0 1 0 -5 0zM402.5 595 a2.5 2.5 0 1 0 5 0 a2.5 2.5 0 1 0 -5 0zM432.5 725 a2.5 2.5 0 1 0 5 0 a2.5 2.5 0 1 0 -5 0zM432.5 395 a2.5 2.5 0 1 0 5 0 a2.5 2.5 0 1 0 -5 0zM402.5 95 a2.5 2.5 0 1 0 5 0 a2.5 2.5 0 1 0 -5 0zM402.5 335 a2.5 2.5 0 1 0 5 0 a2.5 2.5 0 1 0 -5 0zM432.5 695 a2.5 2.5 0 1 0 5 0 a2.5 2.5 0 1 0 -5 0zM422.5 775 a2.5 2.5 0 1 0 5 0 a2.5 2.5 0 1 0 -5 0zM422.5 755 a2.5 2.5 0 1 0 5 0 a2.5 2.5 0 1 0 -5 0zM402.5 465 a2.5 2.5 0 1 0 5 0 a2.5 2.5 0 1 0 -5 0zM402.5 215 a2.5 2.5 0 1 0 5 0 a2.5 2.5 0 1 0 -5 0zM392.5 445 a2.5 2.5 0 1 0 5 0 a2.5 2.5 0 1 0 -5 0zM402.5 145 a2.5 2.5 0 1 0 5 0 a2.5 2.5 0 1 0 -5 0zM422.5 475 a2.5 2.5 0 1 0 5 0 a2.5 2.5 0 1 0 -5 0zM442.5 655 a2.5 2.5 0 1 0 5 0 a2.5 2.5 0 1 0 -5 0zM402.5 85 a2.5 2.5 0 1 0 5 0 a2.5 2.5 0 1 0 -5 0zM422.5 605 a2.5 2.5 0 1 0 5 0 a2.5 2.5 0 1 0 -5 0zM422.5 855 a2.5 2.5 0 1 0 5 0 a2.5 2.5 0 1 0 -5 0zM402.5 305 a2.5 2.5 0 1 0 5 0 a2.5 2.5 0 1 0 -5 0z" fill="rgba(255, 38, 38, 1)"></path><path d="M185 705L175 715L175 725L175 735L175 745L175 755L165 765L165 775M185 695L175 705L165 715L165 725L165 735L165 745M175 415L165 425L165 435L165 445L155 455L155 465L155 475L155 485L155 495L155 505L155 515L155 525L155 535L155 545L155 555L155 565L155 575L155 585L155 595L155 605L155 615L165 625L165 635L165 645M175 365L185 375L185 385M175 405L165 415L155 425L145 435L145 445L145 455L145 465L145 475M195 495L185 505L185 515L175 525L175 535M175 685L175 695L165 705L155 715L155 725L155 735M185 285L175 295L175 305L175 315L175 325L175 335L175 345L175 355L165 365L165 375L165 385L165 395L165 405L155 415L145 425L135 435L135 445M195 95L205 105L205 115M175 595L165 605L165 615M185 655L185 665M185 465L175 475L175 485L175 495L165 505L165 515M185 545L175 555L165 565L165 575L165 585L165 595M175 575L185 585L185 595L185 605L185 615M185 625L175 635L175 645L165 655L165 665L165 675L165 685L165 695L155 705L145 715L145 725L145 735L145 745L155 755L155 765L155 775L155 785L155 795L155 805L145 815L135 825L135 835L135 845M195 635L185 645M175 615L175 625M185 755L195 765M185 225L195 235L195 245L195 255L195 265M185 255L175 265L175 275L175 285M215 -5L205 5L205 15L205 25L205 35L205 45L205 55L205 65L205 75L195 85L195 95L195 105L195 115L195 125L195 135L195 145L195 155L195 165L195 175L195 185L195 195L195 205L195 215L185 225L185 235L185 245L185 255L185 265L185 275L185 285L185 295L185 305L185 315L185 325L185 335L185 345L185 355L175 365L175 375L175 385L175 395L175 405L175 415L175 425L175 435L175 445L175 455L185 465L185 475L185 485L195 495L195 505L195 515L185 525L185 535L185 545L185 555L175 565L175 575L175 585L175 595L175 605L175 615L185 625L195 635L195 645L185 655L175 665L175 675L175 685L185 695L185 705L185 715L185 725L185 735L185 745L185 755L185 765L185 775L185 785" stroke="rgba(40, 255, 251, 1)" stroke-width="1.67"></path><path d="M182.5 785 a2.5 2.5 0 1 0 5 0 a2.5 2.5 0 1 0 -5 0zM162.5 775 a2.5 2.5 0 1 0 5 0 a2.5 2.5 0 1 0 -5 0zM162.5 745 a2.5 2.5 0 1 0 5 0 a2.5 2.5 0 1 0 -5 0zM162.5 645 a2.5 2.5 0 1 0 5 0 a2.5 2.5 0 1 0 -5 0zM182.5 385 a2.5 2.5 0 1 0 5 0 a2.5 2.5 0 1 0 -5 0zM142.5 475 a2.5 2.5 0 1 0 5 0 a2.5 2.5 0 1 0 -5 0zM172.5 535 a2.5 2.5 0 1 0 5 0 a2.5 2.5 0 1 0 -5 0zM152.5 735 a2.5 2.5 0 1 0 5 0 a2.5 2.5 0 1 0 -5 0zM132.5 445 a2.5 2.5 0 1 0 5 0 a2.5 2.5 0 1 0 -5 0zM202.5 115 a2.5 2.5 0 1 0 5 0 a2.5 2.5 0 1 0 -5 0zM162.5 615 a2.5 2.5 0 1 0 5 0 a2.5 2.5 0 1 0 -5 0zM182.5 665 a2.5 2.5 0 1 0 5 0 a2.5 2.5 0 1 0 -5 0zM162.5 515 a2.5 2.5 0 1 0 5 0 a2.5 2.5 0 1 0 -5 0zM162.5 595 a2.5 2.5 0 1 0 5 0 a2.5 2.5 0 1 0 -5 0zM182.5 615 a2.5 2.5 0 1 0 5 0 a2.5 2.5 0 1 0 -5 0zM132.5 845 a2.5 2.5 0 1 0 5 0 a2.5 2.5 0 1 0 -5 0zM182.5 645 a2.5 2.5 0 1 0 5 0 a2.5 2.5 0 1 0 -5 0zM172.5 625 a2.5 2.5 0 1 0 5 0 a2.5 2.5 0 1 0 -5 0zM192.5 765 a2.5 2.5 0 1 0 5 0 a2.5 2.5 0 1 0 -5 0zM192.5 265 a2.5 2.5 0 1 0 5 0 a2.5 2.5 0 1 0 -5 0zM172.5 285 a2.5 2.5 0 1 0 5 0 a2.5 2.5 0 1 0 -5 0z" fill="rgba(40, 255, 251, 1)"></path><path d="M415 155L425 165L425 175L425 185L425 195M425 275L435 285L435 295L435 305L435 315L435 325M405 115L405 125M425 245L415 255M415 95L415 105L415 115M425 265L435 275M415 225L415 235L415 245M395 -5L395 5L395 15L395 25L395 35L395 45L405 55L415 65L415 75L415 85L415 95L405 105L405 115L415 125L415 135L415 145L415 155L415 165L415 175L415 185L415 195L415 205L415 215L415 225L425 235L425 245L425 255L425 265L425 275L425 285" stroke="rgba(40, 255, 251, 1)" stroke-width="1.67"></path><path d="M422.5 285 a2.5 2.5 0 1 0 5 0 a2.5 2.5 0 1 0 -5 0zM422.5 195 a2.5 2.5 0 1 0 5 0 a2.5 2.5 0 1 0 -5 0zM432.5 325 a2.5 2.5 0 1 0 5 0 a2.5 2.5 0 1 0 -5 0zM402.5 125 a2.5 2.5 0 1 0 5 0 a2.5 2.5 0 1 0 -5 0zM412.5 255 a2.5 2.5 0 1 0 5 0 a2.5 2.5 0 1 0 -5 0zM412.5 115 a2.5 2.5 0 1 0 5 0 a2.5 2.5 0 1 0 -5 0zM432.5 275 a2.5 2.5 0 1 0 5 0 a2.5 2.5 0 1 0 -5 0zM412.5 245 a2.5 2.5 0 1 0 5 0 a2.5 2.5 0 1 0 -5 0z" fill="rgba(40, 255, 251, 1)"></path><path d="M185 185L185 195L185 205M175 205L175 215L175 225L175 235M205 -5L195 5L195 15L195 25L195 35L195 45L195 55L195 65L195 75L185 85L185 95L185 105L185 115L185 125L185 135L185 145L185 155L185 165L185 175L185 185L175 195L175 205L185 215" stroke="rgba(85, 255, 0, 1)" stroke-width="1.67"></path><path d="M182.5 215 a2.5 2.5 0 1 0 5 0 a2.5 2.5 0 1 0 -5 0zM182.5 205 a2.5 2.5 0 1 0 5 0 a2.5 2.5 0 1 0 -5 0zM172.5 235 a2.5 2.5 0 1 0 5 0 a2.5 2.5 0 1 0 -5 0z" fill="rgba(85, 255, 0, 1)"></path><path d="M425 95L435 105M425 75L435 85M405 35L415 45M405 -5L405 5L405 15L405 25L405 35L405 45L415 55L425 65L425 75L425 85L425 95L425 105L425 115L425 125L425 135L425 145" stroke="rgba(255, 38, 38, 1)" stroke-width="1.67"></path><path d="M422.5 145 a2.5 2.5 0 1 0 5 0 a2.5 2.5 0 1 0 -5 0zM432.5 105 a2.5 2.5 0 1 0 5 0 a2.5 2.5 0 1 0 -5 0zM432.5 85 a2.5 2.5 0 1 0 5 0 a2.5 2.5 0 1 0 -5 0zM412.5 45 a2.5 2.5 0 1 0 5 0 a2.5 2.5 0 1 0 -5 0z" fill="rgba(255, 38, 38, 1)"></path><path d="M155 345L165 355M185 45L175 55M185 25L175 35L175 45M155 335L165 345M155 365L145 375M165 305L165 315M195 -5L185 5L185 15L185 25L185 35L185 45L185 55L185 65L185 75L175 85L175 95L175 105L175 115L175 125L175 135L175 145L175 155L175 165L175 175L175 185L165 195L165 205L165 215L165 225L165 235L165 245L165 255L165 265L165 275L165 285L165 295L165 305L155 315L155 325L155 335L155 345L155 355L155 365L155 375" stroke="rgba(40, 255, 251, 1)" stroke-width="1.67"></path><path d="M152.5 375 a2.5 2.5 0 1 0 5 0 a2.5 2.5 0 1 0 -5 0zM162.5 355 a2.5 2.5 0 1 0 5 0 a2.5 2.5 0 1 0 -5 0zM172.5 55 a2.5 2.5 0 1 0 5 0 a2.5 2.5 0 1 0 -5 0zM172.5 45 a2.5 2.5 0 1 0 5 0 a2.5 2.5 0 1 0 -5 0zM162.5 345 a2.5 2.5 0 1 0 5 0 a2.5 2.5 0 1 0 -5 0zM142.5 375 a2.5 2.5 0 1 0 5 0 a2.5 2.5 0 1 0 -5 0zM162.5 315 a2.5 2.5 0 1 0 5 0 a2.5 2.5 0 1 0 -5 0z" fill="rgba(40, 255, 251, 1)"></path><path d="M435 215L445 225L445 235L445 245M445 415L435 425L435 435L435 445M435 195L445 205L445 215M435 185L445 195L455 205L455 215L455 225L455 235M455 465L445 475L445 485L445 495L445 505L445 515L445 525L445 535L445 545L445 555L445 565L445 575L445 585L445 595L445 605M435 135L445 145M435 125L445 135L455 145L455 155L455 165L455 175L455 185L455 195M455 455L445 465L435 475L435 485L425 495L425 505L425 515L425 525L425 535L425 545M415 15L415 25L415 35M445 285L455 295M435 115L445 125L455 135M435 205L425 215L425 225M435 65L435 75M415 -5L415 5L415 15L425 25L425 35L425 45L425 55L435 65L445 75L445 85L445 95L445 105L435 115L435 125L435 135L435 145L435 155L435 165L435 175L435 185L435 195L435 205L435 215L435 225L435 235L435 245L445 255L445 265L445 275L445 285L445 295L445 305L445 315L445 325L445 335L445 345L445 355L445 365L445 375L445 385L445 395L445 405L445 415L445 425L445 435L445 445L455 455L455 465L455 475L455 485L455 495L455 505" stroke="rgba(255, 38, 38, 1)" stroke-width="1.67"></path><path d="M452.5 505 a2.5 2.5 0 1 0 5 0 a2.5 2.5 0 1 0 -5 0zM442.5 245 a2.5 2.5 0 1 0 5 0 a2.5 2.5 0 1 0 -5 0zM432.5 445 a2.5 2.5 0 1 0 5 0 a2.5 2.5 0 1 0 -5 0zM442.5 215 a2.5 2.5 0 1 0 5 0 a2.5 2.5 0 1 0 -5 0zM452.5 235 a2.5 2.5 0 1 0 5 0 a2.5 2.5 0 1 0 -5 0zM442.5 605 a2.5 2.5 0 1 0 5 0 a2.5 2.5 0 1 0 -5 0zM442.5 145 a2.5 2.5 0 1 0 5 0 a2.5 2.5 0 1 0 -5 0zM452.5 195 a2.5 2.5 0 1 0 5 0 a2.5 2.5 0 1 0 -5 0zM422.5 545 a2.5 2.5 0 1 0 5 0 a2.5 2.5 0 1 0 -5 0zM412.5 35 a2.5 2.5 0 1 0 5 0 a2.5 2.5 0 1 0 -5 0zM452.5 295 a2.5 2.5 0 1 0 5 0 a2.5 2.5 0 1 0 -5 0zM452.5 135 a2.5 2.5 0 1 0 5 0 a2.5 2.5 0 1 0 -5 0zM422.5 225 a2.5 2.5 0 1 0 5 0 a2.5 2.5 0 1 0 -5 0zM432.5 75 a2.5 2.5 0 1 0 5 0 a2.5 2.5 0 1 0 -5 0z" fill="rgba(255, 38, 38, 1)"></path><path d="M165 85L155 95L155 105L155 115M175 5L175 15M165 55L165 65M185 -5L175 5L165 15L165 25L165 35L165 45L165 55L175 65L175 75L165 85L165 95L165 105L165 115L165 125L165 135L165 145L165 155L165 165L165 175L165 185L155 195L155 205L155 215L155 225L155 235L155 245L155 255L155 265L155 275L155 285L155 295L155 305L145 315L145 325L145 335L145 345" stroke="rgba(255, 0, 137, 1)" stroke-width="1.67"></path><path d="M142.5 345 a2.5 2.5 0 1 0 5 0 a2.5 2.5 0 1 0 -5 0zM152.5 115 a2.5 2.5 0 1 0 5 0 a2.5 2.5 0 1 0 -5 0zM172.5 15 a2.5 2.5 0 1 0 5 0 a2.5 2.5 0 1 0 -5 0zM162.5 65 a2.5 2.5 0 1 0 5 0 a2.5 2.5 0 1 0 -5 0z" fill="rgba(255, 0, 137, 1)"></path><path d="M455 375L465 385L465 395L465 405M495 775L505 785L505 795L505 805L505 815L505 825L505 835L505 845L505 855L505 865L505 875L495 885L485 895L485 905L485 915L485 925L485 935L485 945L485 955L485 965M465 475L475 485M465 285L475 295M465 465L475 475L485 485L485 495L475 505M485 555L475 565L475 575L475 585L475 595L475 605L475 615L475 625L475 635L475 645M455 415L465 425L465 435L465 445L475 455L475 465M495 755L485 765L485 775L485 785L485 795L485 805L485 815M465 505L465 515L465 525M495 685L505 695L505 705L505 715L505 725L505 735L505 745L505 755L505 765L505 775L515 785L515 795M495 745L485 755L475 765L475 775L475 785L475 795L475 805M455 365L465 375L475 385M485 535L475 545L475 555L465 565L465 575L465 585L465 595L465 605L465 615L465 625L465 635L465 645L465 655L465 665L465 675L465 685L465 695L465 705M495 595L485 605L485 615L485 625M495 575L505 585L505 595L505 605L505 615L505 625L505 635L505 645L515 655L515 665L515 675L515 685L515 695L515 705L515 715L515 725L515 735L525 745L535 755L535 765L535 775L535 785L535 795L535 805L535 815L535 825L535 835L535 845L535 855L535 865L535 875M495 585L485 595M485 525L475 535L465 545L465 555L455 565L455 575L455 585L455 595L455 605L455 615L445 625L445 635L455 645L455 655M495 655L505 665M455 355L465 365L475 375L485 385L485 395M455 305L465 315L465 325L465 335L465 345L465 355M455 275L455 285M425 -5L425 5L425 15L435 25L435 35L435 45L435 55L445 65L455 75L455 85L455 95L455 105L455 115L465 125L465 135L465 145L465 155L465 165L465 175L465 185L465 195L465 205L465 215L465 225L465 235L455 245L455 255L455 265L455 275L465 285L465 295L455 305L455 315L455 325L455 335L455 345L455 355L455 365L455 375L455 385L455 395L455 405L455 415L455 425L455 435L455 445L465 455L465 465L465 475L465 485L465 495L465 505L475 515L485 525L485 535L485 545L485 555L485 565L495 575L495 585L495 595L495 605L495 615L495 625L495 635L495 645L495 655L495 665L495 675L495 685L495 695L495 705L495 715L495 725L495 735L495 745L495 755L495 765L495 775L495 785L495 795L495 805L495 815L495 825L495 835" stroke="rgba(255, 0, 137, 1)" stroke-width="1.67"></path><path d="M492.5 835 a2.5 2.5 0 1 0 5 0 a2.5 2.5 0 1 0 -5 0zM462.5 405 a2.5 2.5 0 1 0 5 0 a2.5 2.5 0 1 0 -5 0zM482.5 965 a2.5 2.5 0 1 0 5 0 a2.5 2.5 0 1 0 -5 0zM472.5 485 a2.5 2.5 0 1 0 5 0 a2.5 2.5 0 1 0 -5 0zM472.5 295 a2.5 2.5 0 1 0 5 0 a2.5 2.5 0 1 0 -5 0zM472.5 505 a2.5 2.5 0 1 0 5 0 a2.5 2.5 0 1 0 -5 0zM472.5 645 a2.5 2.5 0 1 0 5 0 a2.5 2.5 0 1 0 -5 0zM472.5 465 a2.5 2.5 0 1 0 5 0 a2.5 2.5 0 1 0 -5 0zM482.5 815 a2.5 2.5 0 1 0 5 0 a2.5 2.5 0 1 0 -5 0zM462.5 525 a2.5 2.5 0 1 0 5 0 a2.5 2.5 0 1 0 -5 0zM512.5 795 a2.5 2.5 0 1 0 5 0 a2.5 2.5 0 1 0 -5 0zM472.5 805 a2.5 2.5 0 1 0 5 0 a2.5 2.5 0 1 0 -5 0zM472.5 385 a2.5 2.5 0 1 0 5 0 a2.5 2.5 0 1 0 -5 0zM462.5 705 a2.5 2.5 0 1 0 5 0 a2.5 2.5 0 1 0 -5 0zM482.5 625 a2.5 2.5 0 1 0 5 0 a2.5 2.5 0 1 0 -5 0zM532.5 875 a2.5 2.5 0 1 0 5 0 a2.5 2.5 0 1 0 -5 0zM482.5 595 a2.5 2.5 0 1 0 5 0 a2.5 2.5 0 1 0 -5 0zM452.5 655 a2.5 2.5 0 1 0 5 0 a2.5 2.5 0 1 0 -5 0zM502.5 665 a2.5 2.5 0 1 0 5 0 a2.5 2.5 0 1 0 -5 0zM482.5 395 a2.5 2.5 0 1 0 5 0 a2.5 2.5 0 1 0 -5 0zM462.5 355 a2.5 2.5 0 1 0 5 0 a2.5 2.5 0 1 0 -5 0zM452.5 285 a2.5 2.5 0 1 0 5 0 a2.5 2.5 0 1 0 -5 0z" fill="rgba(255, 0, 137, 1)"></path><path d="M155 65L155 75L155 85M175 -5L165 5L155 15L155 25L155 35L155 45L155 55L155 65L165 75" stroke="rgba(85, 255, 0, 1)" stroke-width="1.67"></path><path d="M162.5 75 a2.5 2.5 0 1 0 5 0 a2.5 2.5 0 1 0 -5 0zM152.5 85 a2.5 2.5 0 1 0 5 0 a2.5 2.5 0 1 0 -5 0z" fill="rgba(85, 255, 0, 1)"></path><path d="M475 235L485 245L485 255L485 265M475 225L485 235M475 265L475 275M475 255L465 265M475 195L485 205L485 215L485 225M475 165L485 175L485 185M435 -5L435 5L435 15L445 25L445 35L445 45L445 55L455 65L465 75L465 85L465 95L465 105L465 115L475 125L475 135L475 145L475 155L475 165L475 175L475 185L475 195L475 205L475 215L475 225L475 235L475 245L475 255L475 265L465 275" stroke="rgba(85, 255, 0, 1)" stroke-width="1.67"></path><path d="M462.5 275 a2.5 2.5 0 1 0 5 0 a2.5 2.5 0 1 0 -5 0zM482.5 265 a2.5 2.5 0 1 0 5 0 a2.5 2.5 0 1 0 -5 0zM482.5 235 a2.5 2.5 0 1 0 5 0 a2.5 2.5 0 1 0 -5 0zM472.5 275 a2.5 2.5 0 1 0 5 0 a2.5 2.5 0 1 0 -5 0zM462.5 265 a2.5 2.5 0 1 0 5 0 a2.5 2.5 0 1 0 -5 0zM482.5 225 a2.5 2.5 0 1 0 5 0 a2.5 2.5 0 1 0 -5 0zM482.5 185 a2.5 2.5 0 1 0 5 0 a2.5 2.5 0 1 0 -5 0z" fill="rgba(85, 255, 0, 1)"></path><path d="M135 385L135 395L135 405L135 415L135 425M135 355L145 365M145 295L135 305M145 115L145 125L145 135M145 285L135 295M165 -5L155 5L145 15L145 25L145 35L145 45L145 55L145 65L145 75L145 85L145 95L145 105L145 115L155 125L155 135L155 145L155 155L155 165L155 175L155 185L145 195L145 205L145 215L145 225L145 235L145 245L145 255L145 265L145 275L145 285L145 295L145 305L135 315L135 325L135 335L135 345L135 355L135 365L135 375L135 385L125 395L125 405L125 415L125 425L125 435L125 445L125 455" stroke="rgba(40, 255, 251, 1)" stroke-width="1.67"></path><path d="M122.5 455 a2.5 2.5 0 1 0 5 0 a2.5 2.5 0 1 0 -5 0zM132.5 425 a2.5 2.5 0 1 0 5 0 a2.5 2.5 0 1 0 -5 0zM142.5 365 a2.5 2.5 0 1 0 5 0 a2.5 2.5 0 1 0 -5 0zM132.5 305 a2.5 2.5 0 1 0 5 0 a2.5 2.5 0 1 0 -5 0zM142.5 135 a2.5 2.5 0 1 0 5 0 a2.5 2.5 0 1 0 -5 0zM132.5 295 a2.5 2.5 0 1 0 5 0 a2.5 2.5 0 1 0 -5 0z" fill="rgba(40, 255, 251, 1)"></path><path d="M495 375L505 385L505 395L505 405L505 415L505 425L505 435L515 445L515 455M495 255L505 265L505 275L505 285L505 295L505 305L505 315L505 325L515 335L515 345L505 355L505 365L505 375L515 385M455 35L465 45L465 55L475 65L485 75L485 85L485 95M495 345L485 355L485 365L485 375M485 155L485 165M495 225L505 235L515 245L515 255L515 265L515 275L515 285L515 295L515 305L515 315L515 325L525 335L525 345L525 355M485 145L495 155L505 165L505 175L505 185L505 195L505 205L505 215L505 225L515 235L525 245L525 255L525 265L525 275L525 285M495 505L485 515M475 105L475 115M495 405L485 415L485 425L485 435L485 445L485 455L485 465L485 475M495 495L505 505L505 515M495 275L485 285L485 295L485 305L485 315L485 325L485 335L485 345L475 355L475 365M455 25L465 35L475 45L475 55M495 535L505 545M445 -5L445 5L445 15L455 25L455 35L455 45L455 55L465 65L475 75L475 85L475 95L475 105L485 115L485 125L485 135L485 145L485 155L495 165L495 175L495 185L495 195L495 205L495 215L495 225L495 235L495 245L495 255L495 265L495 275L495 285L495 295L495 305L495 315L495 325L495 335L495 345L495 355L495 365L495 375L495 385L495 395L495 405L495 415L495 425L495 435L495 445L495 455L495 465L495 475L495 485L495 495L495 505L495 515L495 525L495 535L495 545" stroke="rgba(40, 255, 251, 1)" stroke-width="1.67"></path><path d="M492.5 545 a2.5 2.5 0 1 0 5 0 a2.5 2.5 0 1 0 -5 0zM512.5 455 a2.5 2.5 0 1 0 5 0 a2.5 2.5 0 1 0 -5 0zM512.5 385 a2.5 2.5 0 1 0 5 0 a2.5 2.5 0 1 0 -5 0zM482.5 95 a2.5 2.5 0 1 0 5 0 a2.5 2.5 0 1 0 -5 0zM482.5 375 a2.5 2.5 0 1 0 5 0 a2.5 2.5 0 1 0 -5 0zM482.5 165 a2.5 2.5 0 1 0 5 0 a2.5 2.5 0 1 0 -5 0zM522.5 355 a2.5 2.5 0 1 0 5 0 a2.5 2.5 0 1 0 -5 0zM522.5 285 a2.5 2.5 0 1 0 5 0 a2.5 2.5 0 1 0 -5 0zM482.5 515 a2.5 2.5 0 1 0 5 0 a2.5 2.5 0 1 0 -5 0zM472.5 115 a2.5 2.5 0 1 0 5 0 a2.5 2.5 0 1 0 -5 0zM482.5 475 a2.5 2.5 0 1 0 5 0 a2.5 2.5 0 1 0 -5 0zM502.5 515 a2.5 2.5 0 1 0 5 0 a2.5 2.5 0 1 0 -5 0zM472.5 365 a2.5 2.5 0 1 0 5 0 a2.5 2.5 0 1 0 -5 0zM472.5 55 a2.5 2.5 0 1 0 5 0 a2.5 2.5 0 1 0 -5 0zM502.5 545 a2.5 2.5 0 1 0 5 0 a2.5 2.5 0 1 0 -5 0z" fill="rgba(40, 255, 251, 1)"></path><path d="M115 925L105 935L105 945L105 955M125 625L115 635L115 645L105 655L105 665L105 675L105 685L105 695L105 705M115 985L105 995L105 1005L105 1015L95 1025L85 1035L85 1045L85 1055L85 1065L85 1075L85 1085M115 735L125 745L135 755L135 765L125 775L125 785L125 795L125 805L125 815L125 825L125 835M115 485L105 495L105 505L105 515L105 525L105 535L105 545L105 555L95 565L95 575L95 585L95 595L95 605L95 615L95 625L95 635L95 645L95 655L95 665L85 675M135 45L125 55L125 65M115 575L115 585L115 595L115 605L115 615M125 705L115 715L115 725L105 735L105 745L105 755L95 765L95 775L95 785L95 795L95 805L95 815L95 825L95 835L95 845L85 855M125 615L135 625L135 635L135 645L135 655L135 665M115 495L125 505L125 515L125 525L125 535L125 545L125 555L125 565L125 575L135 585L135 595L135 605L135 615L145 625L145 635L145 645L145 655L155 665L155 675L155 685L145 695L145 705M125 335L115 345L115 355L115 365L115 375L115 385L105 395L95 405L95 415L95 425L95 435M115 1045L125 1055L125 1065L125 1075L125 1085M135 115L125 125L125 135L125 145M115 755L115 765L115 775L115 785L115 795L115 805M135 275L135 285M135 85L125 95L125 105L125 115L115 125L115 135L105 145L105 155L105 165L105 175L105 185L105 195L105 205L105 215L105 225L115 235L115 245L115 255L105 265L105 275L105 285L105 295L105 305L105 315L105 325L95 335L95 345L95 355L95 365L95 375M115 845L105 855L105 865L105 875L95 885L95 895L95 905L95 915L95 925L85 935L85 945L85 955L85 965L85 975L85 985L85 995L85 1005L85 1015L85 1025L75 1035M135 255L125 265L125 275L115 285L115 295L115 305L115 315L115 325L115 335L105 345L105 355L105 365L105 375L105 385L95 395L85 405L85 415L85 425L85 435L75 445L75 455L75 465L75 475L75 485L75 495L75 505L85 515L85 525L95 535L95 545L95 555L85 565L85 575L85 585M125 685L135 695L135 705M135 35L125 45L115 55L115 65L115 75L115 85L115 95L115 105L115 115L105 125L105 135L95 145L95 155L85 165L85 175L85 185L95 195L95 205L95 215L95 225L95 235M105 885L115 895L125 905L125 915L125 925L125 935L125 945L125 955L125 965L135 975L135 985L135 995M145 165L135 175L135 185L125 195L125 205L125 215L125 225L125 235L125 245L125 255M115 475L125 485L125 495L135 505L135 515L135 525L135 535L135 545L135 555L135 565L135 575L145 585L145 595L145 605L145 615M135 75L125 85M115 905L105 915L105 925M115 465L105 475L105 485L95 495L95 505L95 515L95 525M155 -5L145 5L135 15L135 25L135 35L135 45L135 55L135 65L135 75L135 85L135 95L135 105L135 115L135 125L135 135L145 145L145 155L145 165L145 175L145 185L135 195L135 205L135 215L135 225L135 235L135 245L135 255L135 265L135 275L125 285L125 295L125 305L125 315L125 325L125 335L125 345L125 355L125 365L125 375L125 385L115 395L115 405L115 415L115 425L115 435L115 445L115 455L115 465L115 475L115 485L115 495L115 505L115 515L115 525L115 535L115 545L115 555L115 565L115 575L125 585L125 595L125 605L125 615L125 625L125 635L125 645L115 655L115 665L115 675L125 685L125 695L125 705L125 715L125 725L115 735L115 745L115 755L105 765L105 775L105 785L105 795L105 805L105 815L105 825L105 835L115 845L115 855L115 865L115 875L105 885L105 895L115 905L115 915L115 925L115 935L115 945L115 955L115 965L115 975L115 985L115 995L115 1005L115 1015L115 1025L115 1035L115 1045L115 1055" stroke="rgba(85, 255, 0, 1)" stroke-width="1.67"></path><path d="M112.5 1055 a2.5 2.5 0 1 0 5 0 a2.5 2.5 0 1 0 -5 0zM102.5 955 a2.5 2.5 0 1 0 5 0 a2.5 2.5 0 1 0 -5 0zM102.5 705 a2.5 2.5 0 1 0 5 0 a2.5 2.5 0 1 0 -5 0zM82.5 1085 a2.5 2.5 0 1 0 5 0 a2.5 2.5 0 1 0 -5 0zM122.5 835 a2.5 2.5 0 1 0 5 0 a2.5 2.5 0 1 0 -5 0zM82.5 675 a2.5 2.5 0 1 0 5 0 a2.5 2.5 0 1 0 -5 0zM122.5 65 a2.5 2.5 0 1 0 5 0 a2.5 2.5 0 1 0 -5 0zM112.5 615 a2.5 2.5 0 1 0 5 0 a2.5 2.5 0 1 0 -5 0zM82.5 855 a2.5 2.5 0 1 0 5 0 a2.5 2.5 0 1 0 -5 0zM132.5 665 a2.5 2.5 0 1 0 5 0 a2.5 2.5 0 1 0 -5 0zM142.5 705 a2.5 2.5 0 1 0 5 0 a2.5 2.5 0 1 0 -5 0zM92.5 435 a2.5 2.5 0 1 0 5 0 a2.5 2.5 0 1 0 -5 0zM122.5 1085 a2.5 2.5 0 1 0 5 0 a2.5 2.5 0 1 0 -5 0zM122.5 145 a2.5 2.5 0 1 0 5 0 a2.5 2.5 0 1 0 -5 0zM112.5 805 a2.5 2.5 0 1 0 5 0 a2.5 2.5 0 1 0 -5 0zM132.5 285 a2.5 2.5 0 1 0 5 0 a2.5 2.5 0 1 0 -5 0zM92.5 375 a2.5 2.5 0 1 0 5 0 a2.5 2.5 0 1 0 -5 0zM72.5 1035 a2.5 2.5 0 1 0 5 0 a2.5 2.5 0 1 0 -5 0zM82.5 585 a2.5 2.5 0 1 0 5 0 a2.5 2.5 0 1 0 -5 0zM132.5 705 a2.5 2.5 0 1 0 5 0 a2.5 2.5 0 1 0 -5 0zM92.5 235 a2.5 2.5 0 1 0 5 0 a2.5 2.5 0 1 0 -5 0zM132.5 995 a2.5 2.5 0 1 0 5 0 a2.5 2.5 0 1 0 -5 0zM122.5 255 a2.5 2.5 0 1 0 5 0 a2.5 2.5 0 1 0 -5 0zM142.5 615 a2.5 2.5 0 1 0 5 0 a2.5 2.5 0 1 0 -5 0zM122.5 85 a2.5 2.5 0 1 0 5 0 a2.5 2.5 0 1 0 -5 0zM102.5 925 a2.5 2.5 0 1 0 5 0 a2.5 2.5 0 1 0 -5 0zM92.5 525 a2.5 2.5 0 1 0 5 0 a2.5 2.5 0 1 0 -5 0z" fill="rgba(85, 255, 0, 1)"></path></g></g><defs><mask id="SvgjsMask1030"><rect width="600" height="1200" fill="#ffffff"></rect></mask><linearGradient x1="-25%" y1="12.5%" x2="125%" y2="87.5%" gradientUnits="userSpaceOnUse" id="SvgjsLinearGradient1031"><stop stop-color="rgba(3, 14, 140, 1)" offset="0.29"></stop><stop stop-color="rgba(211, 0, 0, 1)" offset="1"></stop></linearGradient><mask id="SvgjsMask1032"><rect width="600" height="1200" fill="white"></rect><path d="M303.75 25 a1.25 1.25 0 1 0 2.5 0 a1.25 1.25 0 1 0 -2.5 0z" fill="black"></path><path d="M263.75 315 a1.25 1.25 0 1 0 2.5 0 a1.25 1.25 0 1 0 -2.5 0zM273.75 285 a1.25 1.25 0 1 0 2.5 0 a1.25 1.25 0 1 0 -2.5 0zM263.75 355 a1.25 1.25 0 1 0 2.5 0 a1.25 1.25 0 1 0 -2.5 0zM283.75 255 a1.25 1.25 0 1 0 2.5 0 a1.25 1.25 0 1 0 -2.5 0zM293.75 105 a1.25 1.25 0 1 0 2.5 0 a1.25 1.25 0 1 0 -2.5 0zM283.75 185 a1.25 1.25 0 1 0 2.5 0 a1.25 1.25 0 1 0 -2.5 0zM283.75 315 a1.25 1.25 0 1 0 2.5 0 a1.25 1.25 0 1 0 -2.5 0zM303.75 45 a1.25 1.25 0 1 0 2.5 0 a1.25 1.25 0 1 0 -2.5 0z" fill="black"></path><path d="M253.75 1025 a1.25 1.25 0 1 0 2.5 0 a1.25 1.25 0 1 0 -2.5 0zM313.75 235 a1.25 1.25 0 1 0 2.5 0 a1.25 1.25 0 1 0 -2.5 0zM323.75 815 a1.25 1.25 0 1 0 2.5 0 a1.25 1.25 0 1 0 -2.5 0zM303.75 1085 a1.25 1.25 0 1 0 2.5 0 a1.25 1.25 0 1 0 -2.5 0zM273.75 1085 a1.25 1.25 0 1 0 2.5 0 a1.25 1.25 0 1 0 -2.5 0zM313.75 825 a1.25 1.25 0 1 0 2.5 0 a1.25 1.25 0 1 0 -2.5 0zM323.75 945 a1.25 1.25 0 1 0 2.5 0 a1.25 1.25 0 1 0 -2.5 0zM263.75 825 a1.25 1.25 0 1 0 2.5 0 a1.25 1.25 0 1 0 -2.5 0zM253.75 605 a1.25 1.25 0 1 0 2.5 0 a1.25 1.25 0 1 0 -2.5 0zM283.75 705 a1.25 1.25 0 1 0 2.5 0 a1.25 1.25 0 1 0 -2.5 0zM263.75 925 a1.25 1.25 0 1 0 2.5 0 a1.25 1.25 0 1 0 -2.5 0zM303.75 425 a1.25 1.25 0 1 0 2.5 0 a1.25 1.25 0 1 0 -2.5 0zM293.75 565 a1.25 1.25 0 1 0 2.5 0 a1.25 1.25 0 1 0 -2.5 0zM243.75 985 a1.25 1.25 0 1 0 2.5 0 a1.25 1.25 0 1 0 -2.5 0zM253.75 985 a1.25 1.25 0 1 0 2.5 0 a1.25 1.25 0 1 0 -2.5 0zM283.75 875 a1.25 1.25 0 1 0 2.5 0 a1.25 1.25 0 1 0 -2.5 0zM273.75 925 a1.25 1.25 0 1 0 2.5 0 a1.25 1.25 0 1 0 -2.5 0zM303.75 605 a1.25 1.25 0 1 0 2.5 0 a1.25 1.25 0 1 0 -2.5 0zM293.75 535 a1.25 1.25 0 1 0 2.5 0 a1.25 1.25 0 1 0 -2.5 0zM303.75 375 a1.25 1.25 0 1 0 2.5 0 a1.25 1.25 0 1 0 -2.5 0zM323.75 505 a1.25 1.25 0 1 0 2.5 0 a1.25 1.25 0 1 0 -2.5 0zM303.75 155 a1.25 1.25 0 1 0 2.5 0 a1.25 1.25 0 1 0 -2.5 0zM303.75 385 a1.25 1.25 0 1 0 2.5 0 a1.25 1.25 0 1 0 -2.5 0zM263.75 1085 a1.25 1.25 0 1 0 2.5 0 a1.25 1.25 0 1 0 -2.5 0zM253.75 965 a1.25 1.25 0 1 0 2.5 0 a1.25 1.25 0 1 0 -2.5 0zM283.75 305 a1.25 1.25 0 1 0 2.5 0 a1.25 1.25 0 1 0 -2.5 0zM303.75 775 a1.25 1.25 0 1 0 2.5 0 a1.25 1.25 0 1 0 -2.5 0z" fill="black"></path><path d="M243.75 925 a1.25 1.25 0 1 0 2.5 0 a1.25 1.25 0 1 0 -2.5 0zM253.75 425 a1.25 1.25 0 1 0 2.5 0 a1.25 1.25 0 1 0 -2.5 0zM243.75 755 a1.25 1.25 0 1 0 2.5 0 a1.25 1.25 0 1 0 -2.5 0zM243.75 845 a1.25 1.25 0 1 0 2.5 0 a1.25 1.25 0 1 0 -2.5 0zM243.75 285 a1.25 1.25 0 1 0 2.5 0 a1.25 1.25 0 1 0 -2.5 0zM253.75 215 a1.25 1.25 0 1 0 2.5 0 a1.25 1.25 0 1 0 -2.5 0zM263.75 145 a1.25 1.25 0 1 0 2.5 0 a1.25 1.25 0 1 0 -2.5 0zM233.75 525 a1.25 1.25 0 1 0 2.5 0 a1.25 1.25 0 1 0 -2.5 0zM263.75 795 a1.25 1.25 0 1 0 2.5 0 a1.25 1.25 0 1 0 -2.5 0zM233.75 925 a1.25 1.25 0 1 0 2.5 0 a1.25 1.25 0 1 0 -2.5 0zM243.75 795 a1.25 1.25 0 1 0 2.5 0 a1.25 1.25 0 1 0 -2.5 0zM263.75 765 a1.25 1.25 0 1 0 2.5 0 a1.25 1.25 0 1 0 -2.5 0zM233.75 515 a1.25 1.25 0 1 0 2.5 0 a1.25 1.25 0 1 0 -2.5 0zM253.75 595 a1.25 1.25 0 1 0 2.5 0 a1.25 1.25 0 1 0 -2.5 0zM223.75 1085 a1.25 1.25 0 1 0 2.5 0 a1.25 1.25 0 1 0 -2.5 0zM213.75 1085 a1.25 1.25 0 1 0 2.5 0 a1.25 1.25 0 1 0 -2.5 0zM263.75 395 a1.25 1.25 0 1 0 2.5 0 a1.25 1.25 0 1 0 -2.5 0zM263.75 685 a1.25 1.25 0 1 0 2.5 0 a1.25 1.25 0 1 0 -2.5 0zM263.75 545 a1.25 1.25 0 1 0 2.5 0 a1.25 1.25 0 1 0 -2.5 0zM263.75 585 a1.25 1.25 0 1 0 2.5 0 a1.25 1.25 0 1 0 -2.5 0zM253.75 395 a1.25 1.25 0 1 0 2.5 0 a1.25 1.25 0 1 0 -2.5 0zM253.75 545 a1.25 1.25 0 1 0 2.5 0 a1.25 1.25 0 1 0 -2.5 0zM253.75 495 a1.25 1.25 0 1 0 2.5 0 a1.25 1.25 0 1 0 -2.5 0zM263.75 675 a1.25 1.25 0 1 0 2.5 0 a1.25 1.25 0 1 0 -2.5 0z" fill="black"></path><path d="M323.75 1035 a1.25 1.25 0 1 0 2.5 0 a1.25 1.25 0 1 0 -2.5 0zM333.75 945 a1.25 1.25 0 1 0 2.5 0 a1.25 1.25 0 1 0 -2.5 0zM343.75 725 a1.25 1.25 0 1 0 2.5 0 a1.25 1.25 0 1 0 -2.5 0zM323.75 935 a1.25 1.25 0 1 0 2.5 0 a1.25 1.25 0 1 0 -2.5 0zM313.75 925 a1.25 1.25 0 1 0 2.5 0 a1.25 1.25 0 1 0 -2.5 0zM343.75 605 a1.25 1.25 0 1 0 2.5 0 a1.25 1.25 0 1 0 -2.5 0zM363.75 855 a1.25 1.25 0 1 0 2.5 0 a1.25 1.25 0 1 0 -2.5 0zM343.75 175 a1.25 1.25 0 1 0 2.5 0 a1.25 1.25 0 1 0 -2.5 0zM353.75 435 a1.25 1.25 0 1 0 2.5 0 a1.25 1.25 0 1 0 -2.5 0zM353.75 655 a1.25 1.25 0 1 0 2.5 0 a1.25 1.25 0 1 0 -2.5 0zM363.75 925 a1.25 1.25 0 1 0 2.5 0 a1.25 1.25 0 1 0 -2.5 0zM333.75 215 a1.25 1.25 0 1 0 2.5 0 a1.25 1.25 0 1 0 -2.5 0zM343.75 355 a1.25 1.25 0 1 0 2.5 0 a1.25 1.25 0 1 0 -2.5 0zM343.75 305 a1.25 1.25 0 1 0 2.5 0 a1.25 1.25 0 1 0 -2.5 0zM353.75 355 a1.25 1.25 0 1 0 2.5 0 a1.25 1.25 0 1 0 -2.5 0zM333.75 805 a1.25 1.25 0 1 0 2.5 0 a1.25 1.25 0 1 0 -2.5 0zM333.75 1085 a1.25 1.25 0 1 0 2.5 0 a1.25 1.25 0 1 0 -2.5 0zM343.75 675 a1.25 1.25 0 1 0 2.5 0 a1.25 1.25 0 1 0 -2.5 0zM333.75 465 a1.25 1.25 0 1 0 2.5 0 a1.25 1.25 0 1 0 -2.5 0zM333.75 415 a1.25 1.25 0 1 0 2.5 0 a1.25 1.25 0 1 0 -2.5 0zM343.75 555 a1.25 1.25 0 1 0 2.5 0 a1.25 1.25 0 1 0 -2.5 0zM323.75 325 a1.25 1.25 0 1 0 2.5 0 a1.25 1.25 0 1 0 -2.5 0zM333.75 665 a1.25 1.25 0 1 0 2.5 0 a1.25 1.25 0 1 0 -2.5 0zM343.75 545 a1.25 1.25 0 1 0 2.5 0 a1.25 1.25 0 1 0 -2.5 0zM313.75 1055 a1.25 1.25 0 1 0 2.5 0 a1.25 1.25 0 1 0 -2.5 0zM333.75 135 a1.25 1.25 0 1 0 2.5 0 a1.25 1.25 0 1 0 -2.5 0zM313.75 1025 a1.25 1.25 0 1 0 2.5 0 a1.25 1.25 0 1 0 -2.5 0z" fill="black"></path><path d="M233.75 845 a1.25 1.25 0 1 0 2.5 0 a1.25 1.25 0 1 0 -2.5 0zM243.75 235 a1.25 1.25 0 1 0 2.5 0 a1.25 1.25 0 1 0 -2.5 0zM223.75 435 a1.25 1.25 0 1 0 2.5 0 a1.25 1.25 0 1 0 -2.5 0zM253.75 205 a1.25 1.25 0 1 0 2.5 0 a1.25 1.25 0 1 0 -2.5 0zM213.75 365 a1.25 1.25 0 1 0 2.5 0 a1.25 1.25 0 1 0 -2.5 0zM223.75 795 a1.25 1.25 0 1 0 2.5 0 a1.25 1.25 0 1 0 -2.5 0zM223.75 635 a1.25 1.25 0 1 0 2.5 0 a1.25 1.25 0 1 0 -2.5 0zM203.75 965 a1.25 1.25 0 1 0 2.5 0 a1.25 1.25 0 1 0 -2.5 0zM223.75 495 a1.25 1.25 0 1 0 2.5 0 a1.25 1.25 0 1 0 -2.5 0zM213.75 635 a1.25 1.25 0 1 0 2.5 0 a1.25 1.25 0 1 0 -2.5 0zM223.75 485 a1.25 1.25 0 1 0 2.5 0 a1.25 1.25 0 1 0 -2.5 0zM223.75 475 a1.25 1.25 0 1 0 2.5 0 a1.25 1.25 0 1 0 -2.5 0zM193.75 1015 a1.25 1.25 0 1 0 2.5 0 a1.25 1.25 0 1 0 -2.5 0zM243.75 735 a1.25 1.25 0 1 0 2.5 0 a1.25 1.25 0 1 0 -2.5 0zM243.75 225 a1.25 1.25 0 1 0 2.5 0 a1.25 1.25 0 1 0 -2.5 0zM253.75 175 a1.25 1.25 0 1 0 2.5 0 a1.25 1.25 0 1 0 -2.5 0zM223.75 465 a1.25 1.25 0 1 0 2.5 0 a1.25 1.25 0 1 0 -2.5 0zM223.75 325 a1.25 1.25 0 1 0 2.5 0 a1.25 1.25 0 1 0 -2.5 0zM223.75 455 a1.25 1.25 0 1 0 2.5 0 a1.25 1.25 0 1 0 -2.5 0zM203.75 835 a1.25 1.25 0 1 0 2.5 0 a1.25 1.25 0 1 0 -2.5 0zM263.75 115 a1.25 1.25 0 1 0 2.5 0 a1.25 1.25 0 1 0 -2.5 0zM203.75 595 a1.25 1.25 0 1 0 2.5 0 a1.25 1.25 0 1 0 -2.5 0z" fill="black"></path><path d="M353.75 595 a1.25 1.25 0 1 0 2.5 0 a1.25 1.25 0 1 0 -2.5 0zM373.75 495 a1.25 1.25 0 1 0 2.5 0 a1.25 1.25 0 1 0 -2.5 0zM373.75 445 a1.25 1.25 0 1 0 2.5 0 a1.25 1.25 0 1 0 -2.5 0zM343.75 105 a1.25 1.25 0 1 0 2.5 0 a1.25 1.25 0 1 0 -2.5 0zM363.75 595 a1.25 1.25 0 1 0 2.5 0 a1.25 1.25 0 1 0 -2.5 0zM373.75 705 a1.25 1.25 0 1 0 2.5 0 a1.25 1.25 0 1 0 -2.5 0zM353.75 255 a1.25 1.25 0 1 0 2.5 0 a1.25 1.25 0 1 0 -2.5 0zM363.75 355 a1.25 1.25 0 1 0 2.5 0 a1.25 1.25 0 1 0 -2.5 0zM353.75 185 a1.25 1.25 0 1 0 2.5 0 a1.25 1.25 0 1 0 -2.5 0zM343.75 85 a1.25 1.25 0 1 0 2.5 0 a1.25 1.25 0 1 0 -2.5 0zM373.75 545 a1.25 1.25 0 1 0 2.5 0 a1.25 1.25 0 1 0 -2.5 0zM353.75 125 a1.25 1.25 0 1 0 2.5 0 a1.25 1.25 0 1 0 -2.5 0zM363.75 585 a1.25 1.25 0 1 0 2.5 0 a1.25 1.25 0 1 0 -2.5 0zM343.75 75 a1.25 1.25 0 1 0 2.5 0 a1.25 1.25 0 1 0 -2.5 0zM363.75 245 a1.25 1.25 0 1 0 2.5 0 a1.25 1.25 0 1 0 -2.5 0zM333.75 65 a1.25 1.25 0 1 0 2.5 0 a1.25 1.25 0 1 0 -2.5 0z" fill="black"></path><path d="M213.75 525 a1.25 1.25 0 1 0 2.5 0 a1.25 1.25 0 1 0 -2.5 0zM213.75 345 a1.25 1.25 0 1 0 2.5 0 a1.25 1.25 0 1 0 -2.5 0zM203.75 455 a1.25 1.25 0 1 0 2.5 0 a1.25 1.25 0 1 0 -2.5 0zM223.75 315 a1.25 1.25 0 1 0 2.5 0 a1.25 1.25 0 1 0 -2.5 0zM243.75 105 a1.25 1.25 0 1 0 2.5 0 a1.25 1.25 0 1 0 -2.5 0zM203.75 485 a1.25 1.25 0 1 0 2.5 0 a1.25 1.25 0 1 0 -2.5 0zM203.75 475 a1.25 1.25 0 1 0 2.5 0 a1.25 1.25 0 1 0 -2.5 0zM243.75 85 a1.25 1.25 0 1 0 2.5 0 a1.25 1.25 0 1 0 -2.5 0zM203.75 415 a1.25 1.25 0 1 0 2.5 0 a1.25 1.25 0 1 0 -2.5 0zM253.75 55 a1.25 1.25 0 1 0 2.5 0 a1.25 1.25 0 1 0 -2.5 0zM203.75 405 a1.25 1.25 0 1 0 2.5 0 a1.25 1.25 0 1 0 -2.5 0zM243.75 45 a1.25 1.25 0 1 0 2.5 0 a1.25 1.25 0 1 0 -2.5 0z" fill="black"></path><path d="M373.75 125 a1.25 1.25 0 1 0 2.5 0 a1.25 1.25 0 1 0 -2.5 0z" fill="black"></path><path d="M243.75 25 a1.25 1.25 0 1 0 2.5 0 a1.25 1.25 0 1 0 -2.5 0zM253.75 25 a1.25 1.25 0 1 0 2.5 0 a1.25 1.25 0 1 0 -2.5 0z" fill="black"></path><path d="M373.75 1065 a1.25 1.25 0 1 0 2.5 0 a1.25 1.25 0 1 0 -2.5 0zM413.75 985 a1.25 1.25 0 1 0 2.5 0 a1.25 1.25 0 1 0 -2.5 0zM373.75 435 a1.25 1.25 0 1 0 2.5 0 a1.25 1.25 0 1 0 -2.5 0zM383.75 915 a1.25 1.25 0 1 0 2.5 0 a1.25 1.25 0 1 0 -2.5 0zM383.75 115 a1.25 1.25 0 1 0 2.5 0 a1.25 1.25 0 1 0 -2.5 0zM363.75 785 a1.25 1.25 0 1 0 2.5 0 a1.25 1.25 0 1 0 -2.5 0zM383.75 635 a1.25 1.25 0 1 0 2.5 0 a1.25 1.25 0 1 0 -2.5 0zM393.75 725 a1.25 1.25 0 1 0 2.5 0 a1.25 1.25 0 1 0 -2.5 0zM363.75 765 a1.25 1.25 0 1 0 2.5 0 a1.25 1.25 0 1 0 -2.5 0zM403.75 645 a1.25 1.25 0 1 0 2.5 0 a1.25 1.25 0 1 0 -2.5 0zM363.75 1085 a1.25 1.25 0 1 0 2.5 0 a1.25 1.25 0 1 0 -2.5 0zM393.75 455 a1.25 1.25 0 1 0 2.5 0 a1.25 1.25 0 1 0 -2.5 0zM393.75 375 a1.25 1.25 0 1 0 2.5 0 a1.25 1.25 0 1 0 -2.5 0zM413.75 875 a1.25 1.25 0 1 0 2.5 0 a1.25 1.25 0 1 0 -2.5 0zM393.75 345 a1.25 1.25 0 1 0 2.5 0 a1.25 1.25 0 1 0 -2.5 0zM423.75 875 a1.25 1.25 0 1 0 2.5 0 a1.25 1.25 0 1 0 -2.5 0zM403.75 825 a1.25 1.25 0 1 0 2.5 0 a1.25 1.25 0 1 0 -2.5 0zM403.75 1085 a1.25 1.25 0 1 0 2.5 0 a1.25 1.25 0 1 0 -2.5 0zM353.75 1085 a1.25 1.25 0 1 0 2.5 0 a1.25 1.25 0 1 0 -2.5 0zM383.75 95 a1.25 1.25 0 1 0 2.5 0 a1.25 1.25 0 1 0 -2.5 0zM383.75 325 a1.25 1.25 0 1 0 2.5 0 a1.25 1.25 0 1 0 -2.5 0zM373.75 925 a1.25 1.25 0 1 0 2.5 0 a1.25 1.25 0 1 0 -2.5 0zM383.75 615 a1.25 1.25 0 1 0 2.5 0 a1.25 1.25 0 1 0 -2.5 0zM383.75 575 a1.25 1.25 0 1 0 2.5 0 a1.25 1.25 0 1 0 -2.5 0zM413.75 735 a1.25 1.25 0 1 0 2.5 0 a1.25 1.25 0 1 0 -2.5 0zM383.75 985 a1.25 1.25 0 1 0 2.5 0 a1.25 1.25 0 1 0 -2.5 0zM403.75 965 a1.25 1.25 0 1 0 2.5 0 a1.25 1.25 0 1 0 -2.5 0zM373.75 315 a1.25 1.25 0 1 0 2.5 0 a1.25 1.25 0 1 0 -2.5 0z" fill="black"></path><path d="M233.75 135 a1.25 1.25 0 1 0 2.5 0 a1.25 1.25 0 1 0 -2.5 0zM243.75 75 a1.25 1.25 0 1 0 2.5 0 a1.25 1.25 0 1 0 -2.5 0z" fill="black"></path><path d="M383.75 75 a1.25 1.25 0 1 0 2.5 0 a1.25 1.25 0 1 0 -2.5 0z" fill="black"></path><path d="M213.75 785 a1.25 1.25 0 1 0 2.5 0 a1.25 1.25 0 1 0 -2.5 0zM183.75 685 a1.25 1.25 0 1 0 2.5 0 a1.25 1.25 0 1 0 -2.5 0zM213.75 685 a1.25 1.25 0 1 0 2.5 0 a1.25 1.25 0 1 0 -2.5 0zM203.75 275 a1.25 1.25 0 1 0 2.5 0 a1.25 1.25 0 1 0 -2.5 0zM183.75 455 a1.25 1.25 0 1 0 2.5 0 a1.25 1.25 0 1 0 -2.5 0zM193.75 335 a1.25 1.25 0 1 0 2.5 0 a1.25 1.25 0 1 0 -2.5 0zM213.75 245 a1.25 1.25 0 1 0 2.5 0 a1.25 1.25 0 1 0 -2.5 0zM193.75 745 a1.25 1.25 0 1 0 2.5 0 a1.25 1.25 0 1 0 -2.5 0zM203.75 165 a1.25 1.25 0 1 0 2.5 0 a1.25 1.25 0 1 0 -2.5 0zM203.75 795 a1.25 1.25 0 1 0 2.5 0 a1.25 1.25 0 1 0 -2.5 0zM183.75 445 a1.25 1.25 0 1 0 2.5 0 a1.25 1.25 0 1 0 -2.5 0zM193.75 825 a1.25 1.25 0 1 0 2.5 0 a1.25 1.25 0 1 0 -2.5 0zM203.75 715 a1.25 1.25 0 1 0 2.5 0 a1.25 1.25 0 1 0 -2.5 0zM203.75 565 a1.25 1.25 0 1 0 2.5 0 a1.25 1.25 0 1 0 -2.5 0zM183.75 675 a1.25 1.25 0 1 0 2.5 0 a1.25 1.25 0 1 0 -2.5 0zM193.75 625 a1.25 1.25 0 1 0 2.5 0 a1.25 1.25 0 1 0 -2.5 0zM193.75 725 a1.25 1.25 0 1 0 2.5 0 a1.25 1.25 0 1 0 -2.5 0zM213.75 215 a1.25 1.25 0 1 0 2.5 0 a1.25 1.25 0 1 0 -2.5 0zM203.75 145 a1.25 1.25 0 1 0 2.5 0 a1.25 1.25 0 1 0 -2.5 0zM203.75 295 a1.25 1.25 0 1 0 2.5 0 a1.25 1.25 0 1 0 -2.5 0zM183.75 415 a1.25 1.25 0 1 0 2.5 0 a1.25 1.25 0 1 0 -2.5 0z" fill="black"></path><path d="M393.75 65 a1.25 1.25 0 1 0 2.5 0 a1.25 1.25 0 1 0 -2.5 0z" fill="black"></path><path d="M203.75 85 a1.25 1.25 0 1 0 2.5 0 a1.25 1.25 0 1 0 -2.5 0zM213.75 85 a1.25 1.25 0 1 0 2.5 0 a1.25 1.25 0 1 0 -2.5 0zM213.75 15 a1.25 1.25 0 1 0 2.5 0 a1.25 1.25 0 1 0 -2.5 0z" fill="black"></path><path d="M413.75 795 a1.25 1.25 0 1 0 2.5 0 a1.25 1.25 0 1 0 -2.5 0zM403.75 535 a1.25 1.25 0 1 0 2.5 0 a1.25 1.25 0 1 0 -2.5 0zM413.75 555 a1.25 1.25 0 1 0 2.5 0 a1.25 1.25 0 1 0 -2.5 0zM403.75 595 a1.25 1.25 0 1 0 2.5 0 a1.25 1.25 0 1 0 -2.5 0zM433.75 725 a1.25 1.25 0 1 0 2.5 0 a1.25 1.25 0 1 0 -2.5 0zM433.75 395 a1.25 1.25 0 1 0 2.5 0 a1.25 1.25 0 1 0 -2.5 0zM403.75 95 a1.25 1.25 0 1 0 2.5 0 a1.25 1.25 0 1 0 -2.5 0zM403.75 335 a1.25 1.25 0 1 0 2.5 0 a1.25 1.25 0 1 0 -2.5 0zM433.75 695 a1.25 1.25 0 1 0 2.5 0 a1.25 1.25 0 1 0 -2.5 0zM423.75 775 a1.25 1.25 0 1 0 2.5 0 a1.25 1.25 0 1 0 -2.5 0zM423.75 755 a1.25 1.25 0 1 0 2.5 0 a1.25 1.25 0 1 0 -2.5 0zM403.75 465 a1.25 1.25 0 1 0 2.5 0 a1.25 1.25 0 1 0 -2.5 0zM403.75 215 a1.25 1.25 0 1 0 2.5 0 a1.25 1.25 0 1 0 -2.5 0zM393.75 445 a1.25 1.25 0 1 0 2.5 0 a1.25 1.25 0 1 0 -2.5 0zM403.75 145 a1.25 1.25 0 1 0 2.5 0 a1.25 1.25 0 1 0 -2.5 0zM423.75 475 a1.25 1.25 0 1 0 2.5 0 a1.25 1.25 0 1 0 -2.5 0zM443.75 655 a1.25 1.25 0 1 0 2.5 0 a1.25 1.25 0 1 0 -2.5 0zM403.75 85 a1.25 1.25 0 1 0 2.5 0 a1.25 1.25 0 1 0 -2.5 0zM423.75 605 a1.25 1.25 0 1 0 2.5 0 a1.25 1.25 0 1 0 -2.5 0zM423.75 855 a1.25 1.25 0 1 0 2.5 0 a1.25 1.25 0 1 0 -2.5 0zM403.75 305 a1.25 1.25 0 1 0 2.5 0 a1.25 1.25 0 1 0 -2.5 0z" fill="black"></path><path d="M183.75 785 a1.25 1.25 0 1 0 2.5 0 a1.25 1.25 0 1 0 -2.5 0zM163.75 775 a1.25 1.25 0 1 0 2.5 0 a1.25 1.25 0 1 0 -2.5 0zM163.75 745 a1.25 1.25 0 1 0 2.5 0 a1.25 1.25 0 1 0 -2.5 0zM163.75 645 a1.25 1.25 0 1 0 2.5 0 a1.25 1.25 0 1 0 -2.5 0zM183.75 385 a1.25 1.25 0 1 0 2.5 0 a1.25 1.25 0 1 0 -2.5 0zM143.75 475 a1.25 1.25 0 1 0 2.5 0 a1.25 1.25 0 1 0 -2.5 0zM173.75 535 a1.25 1.25 0 1 0 2.5 0 a1.25 1.25 0 1 0 -2.5 0zM153.75 735 a1.25 1.25 0 1 0 2.5 0 a1.25 1.25 0 1 0 -2.5 0zM133.75 445 a1.25 1.25 0 1 0 2.5 0 a1.25 1.25 0 1 0 -2.5 0zM203.75 115 a1.25 1.25 0 1 0 2.5 0 a1.25 1.25 0 1 0 -2.5 0zM163.75 615 a1.25 1.25 0 1 0 2.5 0 a1.25 1.25 0 1 0 -2.5 0zM183.75 665 a1.25 1.25 0 1 0 2.5 0 a1.25 1.25 0 1 0 -2.5 0zM163.75 515 a1.25 1.25 0 1 0 2.5 0 a1.25 1.25 0 1 0 -2.5 0zM163.75 595 a1.25 1.25 0 1 0 2.5 0 a1.25 1.25 0 1 0 -2.5 0zM183.75 615 a1.25 1.25 0 1 0 2.5 0 a1.25 1.25 0 1 0 -2.5 0zM133.75 845 a1.25 1.25 0 1 0 2.5 0 a1.25 1.25 0 1 0 -2.5 0zM183.75 645 a1.25 1.25 0 1 0 2.5 0 a1.25 1.25 0 1 0 -2.5 0zM173.75 625 a1.25 1.25 0 1 0 2.5 0 a1.25 1.25 0 1 0 -2.5 0zM193.75 765 a1.25 1.25 0 1 0 2.5 0 a1.25 1.25 0 1 0 -2.5 0zM193.75 265 a1.25 1.25 0 1 0 2.5 0 a1.25 1.25 0 1 0 -2.5 0zM173.75 285 a1.25 1.25 0 1 0 2.5 0 a1.25 1.25 0 1 0 -2.5 0z" fill="black"></path><path d="M423.75 285 a1.25 1.25 0 1 0 2.5 0 a1.25 1.25 0 1 0 -2.5 0zM423.75 195 a1.25 1.25 0 1 0 2.5 0 a1.25 1.25 0 1 0 -2.5 0zM433.75 325 a1.25 1.25 0 1 0 2.5 0 a1.25 1.25 0 1 0 -2.5 0zM403.75 125 a1.25 1.25 0 1 0 2.5 0 a1.25 1.25 0 1 0 -2.5 0zM413.75 255 a1.25 1.25 0 1 0 2.5 0 a1.25 1.25 0 1 0 -2.5 0zM413.75 115 a1.25 1.25 0 1 0 2.5 0 a1.25 1.25 0 1 0 -2.5 0zM433.75 275 a1.25 1.25 0 1 0 2.5 0 a1.25 1.25 0 1 0 -2.5 0zM413.75 245 a1.25 1.25 0 1 0 2.5 0 a1.25 1.25 0 1 0 -2.5 0z" fill="black"></path><path d="M183.75 215 a1.25 1.25 0 1 0 2.5 0 a1.25 1.25 0 1 0 -2.5 0zM183.75 205 a1.25 1.25 0 1 0 2.5 0 a1.25 1.25 0 1 0 -2.5 0zM173.75 235 a1.25 1.25 0 1 0 2.5 0 a1.25 1.25 0 1 0 -2.5 0z" fill="black"></path><path d="M423.75 145 a1.25 1.25 0 1 0 2.5 0 a1.25 1.25 0 1 0 -2.5 0zM433.75 105 a1.25 1.25 0 1 0 2.5 0 a1.25 1.25 0 1 0 -2.5 0zM433.75 85 a1.25 1.25 0 1 0 2.5 0 a1.25 1.25 0 1 0 -2.5 0zM413.75 45 a1.25 1.25 0 1 0 2.5 0 a1.25 1.25 0 1 0 -2.5 0z" fill="black"></path><path d="M153.75 375 a1.25 1.25 0 1 0 2.5 0 a1.25 1.25 0 1 0 -2.5 0zM163.75 355 a1.25 1.25 0 1 0 2.5 0 a1.25 1.25 0 1 0 -2.5 0zM173.75 55 a1.25 1.25 0 1 0 2.5 0 a1.25 1.25 0 1 0 -2.5 0zM173.75 45 a1.25 1.25 0 1 0 2.5 0 a1.25 1.25 0 1 0 -2.5 0zM163.75 345 a1.25 1.25 0 1 0 2.5 0 a1.25 1.25 0 1 0 -2.5 0zM143.75 375 a1.25 1.25 0 1 0 2.5 0 a1.25 1.25 0 1 0 -2.5 0zM163.75 315 a1.25 1.25 0 1 0 2.5 0 a1.25 1.25 0 1 0 -2.5 0z" fill="black"></path><path d="M453.75 505 a1.25 1.25 0 1 0 2.5 0 a1.25 1.25 0 1 0 -2.5 0zM443.75 245 a1.25 1.25 0 1 0 2.5 0 a1.25 1.25 0 1 0 -2.5 0zM433.75 445 a1.25 1.25 0 1 0 2.5 0 a1.25 1.25 0 1 0 -2.5 0zM443.75 215 a1.25 1.25 0 1 0 2.5 0 a1.25 1.25 0 1 0 -2.5 0zM453.75 235 a1.25 1.25 0 1 0 2.5 0 a1.25 1.25 0 1 0 -2.5 0zM443.75 605 a1.25 1.25 0 1 0 2.5 0 a1.25 1.25 0 1 0 -2.5 0zM443.75 145 a1.25 1.25 0 1 0 2.5 0 a1.25 1.25 0 1 0 -2.5 0zM453.75 195 a1.25 1.25 0 1 0 2.5 0 a1.25 1.25 0 1 0 -2.5 0zM423.75 545 a1.25 1.25 0 1 0 2.5 0 a1.25 1.25 0 1 0 -2.5 0zM413.75 35 a1.25 1.25 0 1 0 2.5 0 a1.25 1.25 0 1 0 -2.5 0zM453.75 295 a1.25 1.25 0 1 0 2.5 0 a1.25 1.25 0 1 0 -2.5 0zM453.75 135 a1.25 1.25 0 1 0 2.5 0 a1.25 1.25 0 1 0 -2.5 0zM423.75 225 a1.25 1.25 0 1 0 2.5 0 a1.25 1.25 0 1 0 -2.5 0zM433.75 75 a1.25 1.25 0 1 0 2.5 0 a1.25 1.25 0 1 0 -2.5 0z" fill="black"></path><path d="M143.75 345 a1.25 1.25 0 1 0 2.5 0 a1.25 1.25 0 1 0 -2.5 0zM153.75 115 a1.25 1.25 0 1 0 2.5 0 a1.25 1.25 0 1 0 -2.5 0zM173.75 15 a1.25 1.25 0 1 0 2.5 0 a1.25 1.25 0 1 0 -2.5 0zM163.75 65 a1.25 1.25 0 1 0 2.5 0 a1.25 1.25 0 1 0 -2.5 0z" fill="black"></path><path d="M493.75 835 a1.25 1.25 0 1 0 2.5 0 a1.25 1.25 0 1 0 -2.5 0zM463.75 405 a1.25 1.25 0 1 0 2.5 0 a1.25 1.25 0 1 0 -2.5 0zM483.75 965 a1.25 1.25 0 1 0 2.5 0 a1.25 1.25 0 1 0 -2.5 0zM473.75 485 a1.25 1.25 0 1 0 2.5 0 a1.25 1.25 0 1 0 -2.5 0zM473.75 295 a1.25 1.25 0 1 0 2.5 0 a1.25 1.25 0 1 0 -2.5 0zM473.75 505 a1.25 1.25 0 1 0 2.5 0 a1.25 1.25 0 1 0 -2.5 0zM473.75 645 a1.25 1.25 0 1 0 2.5 0 a1.25 1.25 0 1 0 -2.5 0zM473.75 465 a1.25 1.25 0 1 0 2.5 0 a1.25 1.25 0 1 0 -2.5 0zM483.75 815 a1.25 1.25 0 1 0 2.5 0 a1.25 1.25 0 1 0 -2.5 0zM463.75 525 a1.25 1.25 0 1 0 2.5 0 a1.25 1.25 0 1 0 -2.5 0zM513.75 795 a1.25 1.25 0 1 0 2.5 0 a1.25 1.25 0 1 0 -2.5 0zM473.75 805 a1.25 1.25 0 1 0 2.5 0 a1.25 1.25 0 1 0 -2.5 0zM473.75 385 a1.25 1.25 0 1 0 2.5 0 a1.25 1.25 0 1 0 -2.5 0zM463.75 705 a1.25 1.25 0 1 0 2.5 0 a1.25 1.25 0 1 0 -2.5 0zM483.75 625 a1.25 1.25 0 1 0 2.5 0 a1.25 1.25 0 1 0 -2.5 0zM533.75 875 a1.25 1.25 0 1 0 2.5 0 a1.25 1.25 0 1 0 -2.5 0zM483.75 595 a1.25 1.25 0 1 0 2.5 0 a1.25 1.25 0 1 0 -2.5 0zM453.75 655 a1.25 1.25 0 1 0 2.5 0 a1.25 1.25 0 1 0 -2.5 0zM503.75 665 a1.25 1.25 0 1 0 2.5 0 a1.25 1.25 0 1 0 -2.5 0zM483.75 395 a1.25 1.25 0 1 0 2.5 0 a1.25 1.25 0 1 0 -2.5 0zM463.75 355 a1.25 1.25 0 1 0 2.5 0 a1.25 1.25 0 1 0 -2.5 0zM453.75 285 a1.25 1.25 0 1 0 2.5 0 a1.25 1.25 0 1 0 -2.5 0z" fill="black"></path><path d="M163.75 75 a1.25 1.25 0 1 0 2.5 0 a1.25 1.25 0 1 0 -2.5 0zM153.75 85 a1.25 1.25 0 1 0 2.5 0 a1.25 1.25 0 1 0 -2.5 0z" fill="black"></path><path d="M463.75 275 a1.25 1.25 0 1 0 2.5 0 a1.25 1.25 0 1 0 -2.5 0zM483.75 265 a1.25 1.25 0 1 0 2.5 0 a1.25 1.25 0 1 0 -2.5 0zM483.75 235 a1.25 1.25 0 1 0 2.5 0 a1.25 1.25 0 1 0 -2.5 0zM473.75 275 a1.25 1.25 0 1 0 2.5 0 a1.25 1.25 0 1 0 -2.5 0zM463.75 265 a1.25 1.25 0 1 0 2.5 0 a1.25 1.25 0 1 0 -2.5 0zM483.75 225 a1.25 1.25 0 1 0 2.5 0 a1.25 1.25 0 1 0 -2.5 0zM483.75 185 a1.25 1.25 0 1 0 2.5 0 a1.25 1.25 0 1 0 -2.5 0z" fill="black"></path><path d="M123.75 455 a1.25 1.25 0 1 0 2.5 0 a1.25 1.25 0 1 0 -2.5 0zM133.75 425 a1.25 1.25 0 1 0 2.5 0 a1.25 1.25 0 1 0 -2.5 0zM143.75 365 a1.25 1.25 0 1 0 2.5 0 a1.25 1.25 0 1 0 -2.5 0zM133.75 305 a1.25 1.25 0 1 0 2.5 0 a1.25 1.25 0 1 0 -2.5 0zM143.75 135 a1.25 1.25 0 1 0 2.5 0 a1.25 1.25 0 1 0 -2.5 0zM133.75 295 a1.25 1.25 0 1 0 2.5 0 a1.25 1.25 0 1 0 -2.5 0z" fill="black"></path><path d="M493.75 545 a1.25 1.25 0 1 0 2.5 0 a1.25 1.25 0 1 0 -2.5 0zM513.75 455 a1.25 1.25 0 1 0 2.5 0 a1.25 1.25 0 1 0 -2.5 0zM513.75 385 a1.25 1.25 0 1 0 2.5 0 a1.25 1.25 0 1 0 -2.5 0zM483.75 95 a1.25 1.25 0 1 0 2.5 0 a1.25 1.25 0 1 0 -2.5 0zM483.75 375 a1.25 1.25 0 1 0 2.5 0 a1.25 1.25 0 1 0 -2.5 0zM483.75 165 a1.25 1.25 0 1 0 2.5 0 a1.25 1.25 0 1 0 -2.5 0zM523.75 355 a1.25 1.25 0 1 0 2.5 0 a1.25 1.25 0 1 0 -2.5 0zM523.75 285 a1.25 1.25 0 1 0 2.5 0 a1.25 1.25 0 1 0 -2.5 0zM483.75 515 a1.25 1.25 0 1 0 2.5 0 a1.25 1.25 0 1 0 -2.5 0zM473.75 115 a1.25 1.25 0 1 0 2.5 0 a1.25 1.25 0 1 0 -2.5 0zM483.75 475 a1.25 1.25 0 1 0 2.5 0 a1.25 1.25 0 1 0 -2.5 0zM503.75 515 a1.25 1.25 0 1 0 2.5 0 a1.25 1.25 0 1 0 -2.5 0zM473.75 365 a1.25 1.25 0 1 0 2.5 0 a1.25 1.25 0 1 0 -2.5 0zM473.75 55 a1.25 1.25 0 1 0 2.5 0 a1.25 1.25 0 1 0 -2.5 0zM503.75 545 a1.25 1.25 0 1 0 2.5 0 a1.25 1.25 0 1 0 -2.5 0z" fill="black"></path><path d="M113.75 1055 a1.25 1.25 0 1 0 2.5 0 a1.25 1.25 0 1 0 -2.5 0zM103.75 955 a1.25 1.25 0 1 0 2.5 0 a1.25 1.25 0 1 0 -2.5 0zM103.75 705 a1.25 1.25 0 1 0 2.5 0 a1.25 1.25 0 1 0 -2.5 0zM83.75 1085 a1.25 1.25 0 1 0 2.5 0 a1.25 1.25 0 1 0 -2.5 0zM123.75 835 a1.25 1.25 0 1 0 2.5 0 a1.25 1.25 0 1 0 -2.5 0zM83.75 675 a1.25 1.25 0 1 0 2.5 0 a1.25 1.25 0 1 0 -2.5 0zM123.75 65 a1.25 1.25 0 1 0 2.5 0 a1.25 1.25 0 1 0 -2.5 0zM113.75 615 a1.25 1.25 0 1 0 2.5 0 a1.25 1.25 0 1 0 -2.5 0zM83.75 855 a1.25 1.25 0 1 0 2.5 0 a1.25 1.25 0 1 0 -2.5 0zM133.75 665 a1.25 1.25 0 1 0 2.5 0 a1.25 1.25 0 1 0 -2.5 0zM143.75 705 a1.25 1.25 0 1 0 2.5 0 a1.25 1.25 0 1 0 -2.5 0zM93.75 435 a1.25 1.25 0 1 0 2.5 0 a1.25 1.25 0 1 0 -2.5 0zM123.75 1085 a1.25 1.25 0 1 0 2.5 0 a1.25 1.25 0 1 0 -2.5 0zM123.75 145 a1.25 1.25 0 1 0 2.5 0 a1.25 1.25 0 1 0 -2.5 0zM113.75 805 a1.25 1.25 0 1 0 2.5 0 a1.25 1.25 0 1 0 -2.5 0zM133.75 285 a1.25 1.25 0 1 0 2.5 0 a1.25 1.25 0 1 0 -2.5 0zM93.75 375 a1.25 1.25 0 1 0 2.5 0 a1.25 1.25 0 1 0 -2.5 0zM73.75 1035 a1.25 1.25 0 1 0 2.5 0 a1.25 1.25 0 1 0 -2.5 0zM83.75 585 a1.25 1.25 0 1 0 2.5 0 a1.25 1.25 0 1 0 -2.5 0zM133.75 705 a1.25 1.25 0 1 0 2.5 0 a1.25 1.25 0 1 0 -2.5 0zM93.75 235 a1.25 1.25 0 1 0 2.5 0 a1.25 1.25 0 1 0 -2.5 0zM133.75 995 a1.25 1.25 0 1 0 2.5 0 a1.25 1.25 0 1 0 -2.5 0zM123.75 255 a1.25 1.25 0 1 0 2.5 0 a1.25 1.25 0 1 0 -2.5 0zM143.75 615 a1.25 1.25 0 1 0 2.5 0 a1.25 1.25 0 1 0 -2.5 0zM123.75 85 a1.25 1.25 0 1 0 2.5 0 a1.25 1.25 0 1 0 -2.5 0zM103.75 925 a1.25 1.25 0 1 0 2.5 0 a1.25 1.25 0 1 0 -2.5 0zM93.75 525 a1.25 1.25 0 1 0 2.5 0 a1.25 1.25 0 1 0 -2.5 0z" fill="black"></path></mask></defs></svg>