<svg xmlns="http://www.w3.org/2000/svg" version="1.1" xmlns:xlink="http://www.w3.org/1999/xlink" xmlns:svgjs="http://svgjs.com/svgjs" width="600" height="200" preserveAspectRatio="none" viewBox="0 0 600 200"><g mask="url(&quot;#SvgjsMask2028&quot;)" fill="none"><rect width="600" height="200" x="0" y="0" fill="url(#SvgjsLinearGradient2029)"></rect><g mask="url(&quot;#SvgjsMask2030&quot;)"><path d="M295 35L305 45L305 55M305 85L315 95L315 105M295 15L305 25L305 35M305 -5L295 5L295 15L295 25L295 35L295 45L295 55L295 65L305 75L305 85L305 95" stroke="rgba(40, 255, 251, 1)" stroke-width="1.67"></path><path d="M302.5 95 a2.5 2.5 0 1 0 5 0 a2.5 2.5 0 1 0 -5 0zM302.5 55 a2.5 2.5 0 1 0 5 0 a2.5 2.5 0 1 0 -5 0zM312.5 105 a2.5 2.5 0 1 0 5 0 a2.5 2.5 0 1 0 -5 0zM302.5 35 a2.5 2.5 0 1 0 5 0 a2.5 2.5 0 1 0 -5 0z" fill="rgba(40, 255, 251, 1)"></path><path d="M315 5L305 15M315 -5L315 5L315 15" stroke="rgba(85, 255, 0, 1)" stroke-width="1.67"></path><path d="M312.5 15 a2.5 2.5 0 1 0 5 0 a2.5 2.5 0 1 0 -5 0zM302.5 15 a2.5 2.5 0 1 0 5 0 a2.5 2.5 0 1 0 -5 0z" fill="rgba(85, 255, 0, 1)"></path><path d="M285 105L275 115L275 125L275 135M285 85L275 95M285 115L295 125L295 135L295 145M285 -5L285 5L285 15L285 25L285 35L285 45L285 55L285 65L285 75L285 85L285 95L285 105L285 115L285 125" stroke="rgba(255, 0, 137, 1)" stroke-width="1.67"></path><path d="M282.5 125 a2.5 2.5 0 1 0 5 0 a2.5 2.5 0 1 0 -5 0zM272.5 135 a2.5 2.5 0 1 0 5 0 a2.5 2.5 0 1 0 -5 0zM272.5 95 a2.5 2.5 0 1 0 5 0 a2.5 2.5 0 1 0 -5 0zM292.5 145 a2.5 2.5 0 1 0 5 0 a2.5 2.5 0 1 0 -5 0z" fill="rgba(255, 0, 137, 1)"></path><path d="M325 -5L325 5" stroke="rgba(85, 255, 0, 1)" stroke-width="1.67"></path><path d="M322.5 5 a2.5 2.5 0 1 0 5 0 a2.5 2.5 0 1 0 -5 0z" fill="rgba(85, 255, 0, 1)"></path><path d="M265 65L275 75M275 55L275 65M275 -5L275 5L275 15L275 25L275 35L275 45L275 55L265 65L265 75L265 85L265 95L265 105" stroke="rgba(255, 38, 38, 1)" stroke-width="1.67"></path><path d="M262.5 105 a2.5 2.5 0 1 0 5 0 a2.5 2.5 0 1 0 -5 0zM272.5 75 a2.5 2.5 0 1 0 5 0 a2.5 2.5 0 1 0 -5 0zM272.5 65 a2.5 2.5 0 1 0 5 0 a2.5 2.5 0 1 0 -5 0z" fill="rgba(255, 38, 38, 1)"></path><path d="M345 55L335 65L335 75L335 85L335 95M355 105L345 115L345 125L345 135L345 145M355 75L345 85L345 95L345 105M335 -5L335 5L335 15L335 25L335 35L345 45L345 55L345 65L355 75L355 85L355 95L355 105L355 115" stroke="rgba(255, 38, 38, 1)" stroke-width="1.67"></path><path d="M352.5 115 a2.5 2.5 0 1 0 5 0 a2.5 2.5 0 1 0 -5 0zM332.5 95 a2.5 2.5 0 1 0 5 0 a2.5 2.5 0 1 0 -5 0zM342.5 145 a2.5 2.5 0 1 0 5 0 a2.5 2.5 0 1 0 -5 0zM342.5 105 a2.5 2.5 0 1 0 5 0 a2.5 2.5 0 1 0 -5 0z" fill="rgba(255, 38, 38, 1)"></path><path d="M265 -5L265 5L265 15L265 25L265 35" stroke="rgba(255, 38, 38, 1)" stroke-width="1.67"></path><path d="M262.5 35 a2.5 2.5 0 1 0 5 0 a2.5 2.5 0 1 0 -5 0z" fill="rgba(255, 38, 38, 1)"></path><path d="M355 5L345 15L345 25L345 35M365 75L375 85L375 95L375 105L375 115M355 35L365 45L365 55M345 -5L355 5L355 15L355 25L355 35L355 45L355 55L355 65L365 75L365 85L365 95L365 105" stroke="rgba(40, 255, 251, 1)" stroke-width="1.67"></path><path d="M362.5 105 a2.5 2.5 0 1 0 5 0 a2.5 2.5 0 1 0 -5 0zM342.5 35 a2.5 2.5 0 1 0 5 0 a2.5 2.5 0 1 0 -5 0zM372.5 115 a2.5 2.5 0 1 0 5 0 a2.5 2.5 0 1 0 -5 0zM362.5 55 a2.5 2.5 0 1 0 5 0 a2.5 2.5 0 1 0 -5 0z" fill="rgba(40, 255, 251, 1)"></path><path d="M255 115L245 125L245 135L245 145M255 105L245 115M255 65L245 75L245 85L245 95L245 105M255 -5L255 5L255 15L255 25L255 35L255 45L255 55L255 65L255 75L255 85L255 95L255 105L255 115L255 125L255 135" stroke="rgba(255, 0, 137, 1)" stroke-width="1.67"></path><path d="M252.5 135 a2.5 2.5 0 1 0 5 0 a2.5 2.5 0 1 0 -5 0zM242.5 145 a2.5 2.5 0 1 0 5 0 a2.5 2.5 0 1 0 -5 0zM242.5 115 a2.5 2.5 0 1 0 5 0 a2.5 2.5 0 1 0 -5 0zM242.5 105 a2.5 2.5 0 1 0 5 0 a2.5 2.5 0 1 0 -5 0z" fill="rgba(255, 0, 137, 1)"></path><path d="M355 -5L365 5L365 15L365 25" stroke="rgba(85, 255, 0, 1)" stroke-width="1.67"></path><path d="M362.5 25 a2.5 2.5 0 1 0 5 0 a2.5 2.5 0 1 0 -5 0z" fill="rgba(85, 255, 0, 1)"></path><path d="M225 75L235 85L235 95M245 15L245 25M225 65L235 75M245 5L235 15M245 -5L245 5L245 15L235 25L235 35L235 45L235 55L225 65L225 75L225 85L225 95L225 105L225 115L235 125L235 135L235 145" stroke="rgba(85, 255, 0, 1)" stroke-width="1.67"></path><path d="M232.5 145 a2.5 2.5 0 1 0 5 0 a2.5 2.5 0 1 0 -5 0zM232.5 95 a2.5 2.5 0 1 0 5 0 a2.5 2.5 0 1 0 -5 0zM242.5 25 a2.5 2.5 0 1 0 5 0 a2.5 2.5 0 1 0 -5 0zM232.5 75 a2.5 2.5 0 1 0 5 0 a2.5 2.5 0 1 0 -5 0zM232.5 15 a2.5 2.5 0 1 0 5 0 a2.5 2.5 0 1 0 -5 0z" fill="rgba(85, 255, 0, 1)"></path><path d="M395 55L385 65L385 75L385 85M375 15L375 25L365 35M385 35L395 45M385 145L375 155L375 165M365 -5L375 5L375 15L385 25L385 35L385 45L395 55L395 65L395 75L395 85L395 95L385 105L385 115L385 125L385 135L385 145L385 155L385 165" stroke="rgba(40, 255, 251, 1)" stroke-width="1.67"></path><path d="M382.5 165 a2.5 2.5 0 1 0 5 0 a2.5 2.5 0 1 0 -5 0zM382.5 85 a2.5 2.5 0 1 0 5 0 a2.5 2.5 0 1 0 -5 0zM362.5 35 a2.5 2.5 0 1 0 5 0 a2.5 2.5 0 1 0 -5 0zM392.5 45 a2.5 2.5 0 1 0 5 0 a2.5 2.5 0 1 0 -5 0zM372.5 165 a2.5 2.5 0 1 0 5 0 a2.5 2.5 0 1 0 -5 0z" fill="rgba(40, 255, 251, 1)"></path><path d="M215 45L225 55M225 35L225 45M225 25L215 35M235 -5L225 5L225 15L225 25L225 35L215 45L215 55L215 65L215 75L215 85L215 95" stroke="rgba(40, 255, 251, 1)" stroke-width="1.67"></path><path d="M212.5 95 a2.5 2.5 0 1 0 5 0 a2.5 2.5 0 1 0 -5 0zM222.5 55 a2.5 2.5 0 1 0 5 0 a2.5 2.5 0 1 0 -5 0zM222.5 45 a2.5 2.5 0 1 0 5 0 a2.5 2.5 0 1 0 -5 0zM212.5 35 a2.5 2.5 0 1 0 5 0 a2.5 2.5 0 1 0 -5 0z" fill="rgba(40, 255, 251, 1)"></path><path d="M375 -5L385 5L385 15L395 25L405 35L405 45L405 55L405 65L405 75" stroke="rgba(40, 255, 251, 1)" stroke-width="1.67"></path><path d="M402.5 75 a2.5 2.5 0 1 0 5 0 a2.5 2.5 0 1 0 -5 0z" fill="rgba(40, 255, 251, 1)"></path><path d="M225 -5L215 5L215 15" stroke="rgba(40, 255, 251, 1)" stroke-width="1.67"></path><path d="M212.5 15 a2.5 2.5 0 1 0 5 0 a2.5 2.5 0 1 0 -5 0z" fill="rgba(40, 255, 251, 1)"></path><path d="M415 65L425 75L425 85L425 95M405 95L415 105L415 115L415 125L415 135M415 85L415 95M385 -5L395 5L395 15L405 25L415 35L415 45L415 55L415 65L415 75L415 85L405 95L405 105L405 115L405 125L405 135" stroke="rgba(255, 0, 137, 1)" stroke-width="1.67"></path><path d="M402.5 135 a2.5 2.5 0 1 0 5 0 a2.5 2.5 0 1 0 -5 0zM422.5 95 a2.5 2.5 0 1 0 5 0 a2.5 2.5 0 1 0 -5 0zM412.5 135 a2.5 2.5 0 1 0 5 0 a2.5 2.5 0 1 0 -5 0zM412.5 95 a2.5 2.5 0 1 0 5 0 a2.5 2.5 0 1 0 -5 0z" fill="rgba(255, 0, 137, 1)"></path><path d="M205 125L205 135L205 145L205 155L205 165M205 115L215 125L215 135L215 145M205 105L215 115M215 -5L205 5L205 15L205 25L205 35L205 45L205 55L205 65L205 75L205 85L205 95L205 105L205 115L205 125L195 135" stroke="rgba(85, 255, 0, 1)" stroke-width="1.67"></path><path d="M192.5 135 a2.5 2.5 0 1 0 5 0 a2.5 2.5 0 1 0 -5 0zM202.5 165 a2.5 2.5 0 1 0 5 0 a2.5 2.5 0 1 0 -5 0zM212.5 145 a2.5 2.5 0 1 0 5 0 a2.5 2.5 0 1 0 -5 0zM212.5 115 a2.5 2.5 0 1 0 5 0 a2.5 2.5 0 1 0 -5 0z" fill="rgba(85, 255, 0, 1)"></path><path d="M395 -5L405 5L405 15L415 25L425 35L425 45L425 55" stroke="rgba(255, 0, 137, 1)" stroke-width="1.67"></path><path d="M422.5 55 a2.5 2.5 0 1 0 5 0 a2.5 2.5 0 1 0 -5 0z" fill="rgba(255, 0, 137, 1)"></path><path d="M195 95L185 105L185 115L185 125L185 135M205 -5L195 5L195 15L195 25L195 35L195 45L195 55L195 65L195 75L195 85L195 95L195 105L195 115" stroke="rgba(40, 255, 251, 1)" stroke-width="1.67"></path><path d="M192.5 115 a2.5 2.5 0 1 0 5 0 a2.5 2.5 0 1 0 -5 0zM182.5 135 a2.5 2.5 0 1 0 5 0 a2.5 2.5 0 1 0 -5 0z" fill="rgba(40, 255, 251, 1)"></path><path d="M405 -5L415 5L415 15L425 25" stroke="rgba(255, 0, 137, 1)" stroke-width="1.67"></path><path d="M422.5 25 a2.5 2.5 0 1 0 5 0 a2.5 2.5 0 1 0 -5 0z" fill="rgba(255, 0, 137, 1)"></path><path d="M185 65L175 75M185 55L175 65M195 -5L185 5L185 15L185 25L185 35L185 45L185 55L185 65L185 75" stroke="rgba(85, 255, 0, 1)" stroke-width="1.67"></path><path d="M182.5 75 a2.5 2.5 0 1 0 5 0 a2.5 2.5 0 1 0 -5 0zM172.5 75 a2.5 2.5 0 1 0 5 0 a2.5 2.5 0 1 0 -5 0zM172.5 65 a2.5 2.5 0 1 0 5 0 a2.5 2.5 0 1 0 -5 0z" fill="rgba(85, 255, 0, 1)"></path><path d="M435 125L435 135L435 145L435 155L435 165M445 135L455 145L455 155L465 165M445 155L445 165M435 105L425 115L425 125L425 135M415 -5L425 5L425 15L435 25L435 35L435 45L435 55L435 65L435 75L435 85L435 95L435 105L435 115L435 125L445 135L445 145L445 155L455 165" stroke="rgba(85, 255, 0, 1)" stroke-width="1.67"></path><path d="M452.5 165 a2.5 2.5 0 1 0 5 0 a2.5 2.5 0 1 0 -5 0zM432.5 165 a2.5 2.5 0 1 0 5 0 a2.5 2.5 0 1 0 -5 0zM462.5 165 a2.5 2.5 0 1 0 5 0 a2.5 2.5 0 1 0 -5 0zM442.5 165 a2.5 2.5 0 1 0 5 0 a2.5 2.5 0 1 0 -5 0zM422.5 135 a2.5 2.5 0 1 0 5 0 a2.5 2.5 0 1 0 -5 0z" fill="rgba(85, 255, 0, 1)"></path><path d="M175 15L165 25L165 35L165 45L165 55M185 -5L175 5L175 15L175 25L175 35L175 45" stroke="rgba(85, 255, 0, 1)" stroke-width="1.67"></path><path d="M172.5 45 a2.5 2.5 0 1 0 5 0 a2.5 2.5 0 1 0 -5 0zM162.5 55 a2.5 2.5 0 1 0 5 0 a2.5 2.5 0 1 0 -5 0z" fill="rgba(85, 255, 0, 1)"></path><path d="M425 -5L435 5L435 15L445 25L445 35L445 45L445 55L445 65L445 75L445 85L445 95L445 105L445 115" stroke="rgba(40, 255, 251, 1)" stroke-width="1.67"></path><path d="M442.5 115 a2.5 2.5 0 1 0 5 0 a2.5 2.5 0 1 0 -5 0z" fill="rgba(40, 255, 251, 1)"></path><path d="M155 65L155 75L155 85L155 95M175 -5L165 5L155 15L155 25L155 35L155 45L155 55L155 65L165 75" stroke="rgba(40, 255, 251, 1)" stroke-width="1.67"></path><path d="M162.5 75 a2.5 2.5 0 1 0 5 0 a2.5 2.5 0 1 0 -5 0zM152.5 95 a2.5 2.5 0 1 0 5 0 a2.5 2.5 0 1 0 -5 0z" fill="rgba(40, 255, 251, 1)"></path><path d="M455 85L465 95L465 105M455 115L455 125L455 135L465 145M455 55L465 65L465 75M435 -5L445 5L445 15L455 25L455 35L455 45L455 55L455 65L455 75L455 85L455 95L455 105L455 115L445 125" stroke="rgba(85, 255, 0, 1)" stroke-width="1.67"></path><path d="M442.5 125 a2.5 2.5 0 1 0 5 0 a2.5 2.5 0 1 0 -5 0zM462.5 105 a2.5 2.5 0 1 0 5 0 a2.5 2.5 0 1 0 -5 0zM462.5 145 a2.5 2.5 0 1 0 5 0 a2.5 2.5 0 1 0 -5 0zM462.5 75 a2.5 2.5 0 1 0 5 0 a2.5 2.5 0 1 0 -5 0z" fill="rgba(85, 255, 0, 1)"></path><path d="M165 -5L155 5L145 15L145 25L145 35L145 45L145 55L145 65L145 75L145 85" stroke="rgba(255, 38, 38, 1)" stroke-width="1.67"></path><path d="M142.5 85 a2.5 2.5 0 1 0 5 0 a2.5 2.5 0 1 0 -5 0z" fill="rgba(255, 38, 38, 1)"></path><path d="M485 145L495 155L495 165M485 105L475 115L475 125M475 65L485 75L485 85L485 95M475 55L485 65L495 75L495 85M445 -5L455 5L455 15L465 25L475 35L475 45L475 55L475 65L475 75L475 85L475 95L485 105L485 115L485 125L485 135L485 145L485 155L485 165" stroke="rgba(40, 255, 251, 1)" stroke-width="1.67"></path><path d="M482.5 165 a2.5 2.5 0 1 0 5 0 a2.5 2.5 0 1 0 -5 0zM492.5 165 a2.5 2.5 0 1 0 5 0 a2.5 2.5 0 1 0 -5 0zM472.5 125 a2.5 2.5 0 1 0 5 0 a2.5 2.5 0 1 0 -5 0zM482.5 95 a2.5 2.5 0 1 0 5 0 a2.5 2.5 0 1 0 -5 0zM492.5 85 a2.5 2.5 0 1 0 5 0 a2.5 2.5 0 1 0 -5 0z" fill="rgba(40, 255, 251, 1)"></path><path d="M125 125L135 135L135 145L135 155M135 15L125 25L115 35M135 45L125 55M155 -5L145 5L135 15L135 25L135 35L135 45L135 55L135 65L135 75L135 85L135 95L135 105L125 115L125 125L125 135" stroke="rgba(255, 0, 137, 1)" stroke-width="1.67"></path><path d="M122.5 135 a2.5 2.5 0 1 0 5 0 a2.5 2.5 0 1 0 -5 0zM132.5 155 a2.5 2.5 0 1 0 5 0 a2.5 2.5 0 1 0 -5 0zM112.5 35 a2.5 2.5 0 1 0 5 0 a2.5 2.5 0 1 0 -5 0zM122.5 55 a2.5 2.5 0 1 0 5 0 a2.5 2.5 0 1 0 -5 0z" fill="rgba(255, 0, 137, 1)"></path></g></g><defs><mask id="SvgjsMask2028"><rect width="600" height="200" fill="#ffffff"></rect></mask><linearGradient x1="16.67%" y1="-50%" x2="83.33%" y2="150%" gradientUnits="userSpaceOnUse" id="SvgjsLinearGradient2029"><stop stop-color="rgba(3, 14, 140, 1)" offset="0"></stop><stop stop-color="rgba(211, 0, 0, 1)" offset="0.95"></stop></linearGradient><mask id="SvgjsMask2030"><rect width="600" height="200" fill="white"></rect><path d="M303.75 95 a1.25 1.25 0 1 0 2.5 0 a1.25 1.25 0 1 0 -2.5 0zM303.75 55 a1.25 1.25 0 1 0 2.5 0 a1.25 1.25 0 1 0 -2.5 0zM313.75 105 a1.25 1.25 0 1 0 2.5 0 a1.25 1.25 0 1 0 -2.5 0zM303.75 35 a1.25 1.25 0 1 0 2.5 0 a1.25 1.25 0 1 0 -2.5 0z" fill="black"></path><path d="M313.75 15 a1.25 1.25 0 1 0 2.5 0 a1.25 1.25 0 1 0 -2.5 0zM303.75 15 a1.25 1.25 0 1 0 2.5 0 a1.25 1.25 0 1 0 -2.5 0z" fill="black"></path><path d="M283.75 125 a1.25 1.25 0 1 0 2.5 0 a1.25 1.25 0 1 0 -2.5 0zM273.75 135 a1.25 1.25 0 1 0 2.5 0 a1.25 1.25 0 1 0 -2.5 0zM273.75 95 a1.25 1.25 0 1 0 2.5 0 a1.25 1.25 0 1 0 -2.5 0zM293.75 145 a1.25 1.25 0 1 0 2.5 0 a1.25 1.25 0 1 0 -2.5 0z" fill="black"></path><path d="M323.75 5 a1.25 1.25 0 1 0 2.5 0 a1.25 1.25 0 1 0 -2.5 0z" fill="black"></path><path d="M263.75 105 a1.25 1.25 0 1 0 2.5 0 a1.25 1.25 0 1 0 -2.5 0zM273.75 75 a1.25 1.25 0 1 0 2.5 0 a1.25 1.25 0 1 0 -2.5 0zM273.75 65 a1.25 1.25 0 1 0 2.5 0 a1.25 1.25 0 1 0 -2.5 0z" fill="black"></path><path d="M353.75 115 a1.25 1.25 0 1 0 2.5 0 a1.25 1.25 0 1 0 -2.5 0zM333.75 95 a1.25 1.25 0 1 0 2.5 0 a1.25 1.25 0 1 0 -2.5 0zM343.75 145 a1.25 1.25 0 1 0 2.5 0 a1.25 1.25 0 1 0 -2.5 0zM343.75 105 a1.25 1.25 0 1 0 2.5 0 a1.25 1.25 0 1 0 -2.5 0z" fill="black"></path><path d="M263.75 35 a1.25 1.25 0 1 0 2.5 0 a1.25 1.25 0 1 0 -2.5 0z" fill="black"></path><path d="M363.75 105 a1.25 1.25 0 1 0 2.5 0 a1.25 1.25 0 1 0 -2.5 0zM343.75 35 a1.25 1.25 0 1 0 2.5 0 a1.25 1.25 0 1 0 -2.5 0zM373.75 115 a1.25 1.25 0 1 0 2.5 0 a1.25 1.25 0 1 0 -2.5 0zM363.75 55 a1.25 1.25 0 1 0 2.5 0 a1.25 1.25 0 1 0 -2.5 0z" fill="black"></path><path d="M253.75 135 a1.25 1.25 0 1 0 2.5 0 a1.25 1.25 0 1 0 -2.5 0zM243.75 145 a1.25 1.25 0 1 0 2.5 0 a1.25 1.25 0 1 0 -2.5 0zM243.75 115 a1.25 1.25 0 1 0 2.5 0 a1.25 1.25 0 1 0 -2.5 0zM243.75 105 a1.25 1.25 0 1 0 2.5 0 a1.25 1.25 0 1 0 -2.5 0z" fill="black"></path><path d="M363.75 25 a1.25 1.25 0 1 0 2.5 0 a1.25 1.25 0 1 0 -2.5 0z" fill="black"></path><path d="M233.75 145 a1.25 1.25 0 1 0 2.5 0 a1.25 1.25 0 1 0 -2.5 0zM233.75 95 a1.25 1.25 0 1 0 2.5 0 a1.25 1.25 0 1 0 -2.5 0zM243.75 25 a1.25 1.25 0 1 0 2.5 0 a1.25 1.25 0 1 0 -2.5 0zM233.75 75 a1.25 1.25 0 1 0 2.5 0 a1.25 1.25 0 1 0 -2.5 0zM233.75 15 a1.25 1.25 0 1 0 2.5 0 a1.25 1.25 0 1 0 -2.5 0z" fill="black"></path><path d="M383.75 165 a1.25 1.25 0 1 0 2.5 0 a1.25 1.25 0 1 0 -2.5 0zM383.75 85 a1.25 1.25 0 1 0 2.5 0 a1.25 1.25 0 1 0 -2.5 0zM363.75 35 a1.25 1.25 0 1 0 2.5 0 a1.25 1.25 0 1 0 -2.5 0zM393.75 45 a1.25 1.25 0 1 0 2.5 0 a1.25 1.25 0 1 0 -2.5 0zM373.75 165 a1.25 1.25 0 1 0 2.5 0 a1.25 1.25 0 1 0 -2.5 0z" fill="black"></path><path d="M213.75 95 a1.25 1.25 0 1 0 2.5 0 a1.25 1.25 0 1 0 -2.5 0zM223.75 55 a1.25 1.25 0 1 0 2.5 0 a1.25 1.25 0 1 0 -2.5 0zM223.75 45 a1.25 1.25 0 1 0 2.5 0 a1.25 1.25 0 1 0 -2.5 0zM213.75 35 a1.25 1.25 0 1 0 2.5 0 a1.25 1.25 0 1 0 -2.5 0z" fill="black"></path><path d="M403.75 75 a1.25 1.25 0 1 0 2.5 0 a1.25 1.25 0 1 0 -2.5 0z" fill="black"></path><path d="M213.75 15 a1.25 1.25 0 1 0 2.5 0 a1.25 1.25 0 1 0 -2.5 0z" fill="black"></path><path d="M403.75 135 a1.25 1.25 0 1 0 2.5 0 a1.25 1.25 0 1 0 -2.5 0zM423.75 95 a1.25 1.25 0 1 0 2.5 0 a1.25 1.25 0 1 0 -2.5 0zM413.75 135 a1.25 1.25 0 1 0 2.5 0 a1.25 1.25 0 1 0 -2.5 0zM413.75 95 a1.25 1.25 0 1 0 2.5 0 a1.25 1.25 0 1 0 -2.5 0z" fill="black"></path><path d="M193.75 135 a1.25 1.25 0 1 0 2.5 0 a1.25 1.25 0 1 0 -2.5 0zM203.75 165 a1.25 1.25 0 1 0 2.5 0 a1.25 1.25 0 1 0 -2.5 0zM213.75 145 a1.25 1.25 0 1 0 2.5 0 a1.25 1.25 0 1 0 -2.5 0zM213.75 115 a1.25 1.25 0 1 0 2.5 0 a1.25 1.25 0 1 0 -2.5 0z" fill="black"></path><path d="M423.75 55 a1.25 1.25 0 1 0 2.5 0 a1.25 1.25 0 1 0 -2.5 0z" fill="black"></path><path d="M193.75 115 a1.25 1.25 0 1 0 2.5 0 a1.25 1.25 0 1 0 -2.5 0zM183.75 135 a1.25 1.25 0 1 0 2.5 0 a1.25 1.25 0 1 0 -2.5 0z" fill="black"></path><path d="M423.75 25 a1.25 1.25 0 1 0 2.5 0 a1.25 1.25 0 1 0 -2.5 0z" fill="black"></path><path d="M183.75 75 a1.25 1.25 0 1 0 2.5 0 a1.25 1.25 0 1 0 -2.5 0zM173.75 75 a1.25 1.25 0 1 0 2.5 0 a1.25 1.25 0 1 0 -2.5 0zM173.75 65 a1.25 1.25 0 1 0 2.5 0 a1.25 1.25 0 1 0 -2.5 0z" fill="black"></path><path d="M453.75 165 a1.25 1.25 0 1 0 2.5 0 a1.25 1.25 0 1 0 -2.5 0zM433.75 165 a1.25 1.25 0 1 0 2.5 0 a1.25 1.25 0 1 0 -2.5 0zM463.75 165 a1.25 1.25 0 1 0 2.5 0 a1.25 1.25 0 1 0 -2.5 0zM443.75 165 a1.25 1.25 0 1 0 2.5 0 a1.25 1.25 0 1 0 -2.5 0zM423.75 135 a1.25 1.25 0 1 0 2.5 0 a1.25 1.25 0 1 0 -2.5 0z" fill="black"></path><path d="M173.75 45 a1.25 1.25 0 1 0 2.5 0 a1.25 1.25 0 1 0 -2.5 0zM163.75 55 a1.25 1.25 0 1 0 2.5 0 a1.25 1.25 0 1 0 -2.5 0z" fill="black"></path><path d="M443.75 115 a1.25 1.25 0 1 0 2.5 0 a1.25 1.25 0 1 0 -2.5 0z" fill="black"></path><path d="M163.75 75 a1.25 1.25 0 1 0 2.5 0 a1.25 1.25 0 1 0 -2.5 0zM153.75 95 a1.25 1.25 0 1 0 2.5 0 a1.25 1.25 0 1 0 -2.5 0z" fill="black"></path><path d="M443.75 125 a1.25 1.25 0 1 0 2.5 0 a1.25 1.25 0 1 0 -2.5 0zM463.75 105 a1.25 1.25 0 1 0 2.5 0 a1.25 1.25 0 1 0 -2.5 0zM463.75 145 a1.25 1.25 0 1 0 2.5 0 a1.25 1.25 0 1 0 -2.5 0zM463.75 75 a1.25 1.25 0 1 0 2.5 0 a1.25 1.25 0 1 0 -2.5 0z" fill="black"></path><path d="M143.75 85 a1.25 1.25 0 1 0 2.5 0 a1.25 1.25 0 1 0 -2.5 0z" fill="black"></path><path d="M483.75 165 a1.25 1.25 0 1 0 2.5 0 a1.25 1.25 0 1 0 -2.5 0zM493.75 165 a1.25 1.25 0 1 0 2.5 0 a1.25 1.25 0 1 0 -2.5 0zM473.75 125 a1.25 1.25 0 1 0 2.5 0 a1.25 1.25 0 1 0 -2.5 0zM483.75 95 a1.25 1.25 0 1 0 2.5 0 a1.25 1.25 0 1 0 -2.5 0zM493.75 85 a1.25 1.25 0 1 0 2.5 0 a1.25 1.25 0 1 0 -2.5 0z" fill="black"></path><path d="M123.75 135 a1.25 1.25 0 1 0 2.5 0 a1.25 1.25 0 1 0 -2.5 0zM133.75 155 a1.25 1.25 0 1 0 2.5 0 a1.25 1.25 0 1 0 -2.5 0zM113.75 35 a1.25 1.25 0 1 0 2.5 0 a1.25 1.25 0 1 0 -2.5 0zM123.75 55 a1.25 1.25 0 1 0 2.5 0 a1.25 1.25 0 1 0 -2.5 0z" fill="black"></path></mask></defs></svg>