<svg xmlns="http://www.w3.org/2000/svg" version="1.1" xmlns:xlink="http://www.w3.org/1999/xlink" xmlns:svgjs="http://svgjs.com/svgjs" width="1440" height="3000" preserveAspectRatio="none" viewBox="0 0 1440 3000"><g mask="url(&quot;#SvgjsMask1025&quot;)" fill="none"><path d="M1362.46 1856.74a65.96 65.96 0 1 0-45.42-123.86z" stroke="rgba(39, 177, 190, 1)"></path><path d="M344.01 1718a3.79 3.79 0 1 0 6.2 4.36z" stroke="rgba(250, 204, 46, 1)"></path><path d="M211.36 548.08 a97.43 97.43 0 1 0 194.86 0 a97.43 97.43 0 1 0 -194.86 0z" stroke="rgba(39, 177, 190, 1)"></path><path d="M927.93 186.3a0.81 0.81 0 1 0-0.65 1.48z" stroke="rgba(39, 177, 190, 1)"></path><path d="M854.48 2886.21 a72.11 72.11 0 1 0 144.22 0 a72.11 72.11 0 1 0 -144.22 0z" fill="rgba(250, 204, 46, 1)"></path><path d="M1222.35 1465.54L1256.08 1465.54L1256.08 1499.27L1222.35 1499.27z" stroke="rgba(39, 177, 190, 1)"></path><path d="M355 1975.3L377.94 1975.3L377.94 1980.82L355 1980.82z" fill="rgba(39, 177, 190, 1)"></path><path d="M639 146.88 a35.91 35.91 0 1 0 71.82 0 a35.91 35.91 0 1 0 -71.82 0z" fill="rgba(39, 177, 190, 1)"></path><path d="M121.13 2477.65L155.68 2477.65L155.68 2483.43L121.13 2483.43z" fill="rgba(250, 204, 46, 1)"></path><path d="M-97.26 2687.68 a112.58 112.58 0 1 0 225.16 0 a112.58 112.58 0 1 0 -225.16 0z" stroke="rgba(39, 177, 190, 1)"></path><path d="M1489.19 1976.26a110.14 110.14 0 1 0-220.27-2.03z" stroke="rgba(250, 204, 46, 1)"></path><path d="M1438.46 2389.99L1518.45 2389.99L1518.45 2426.78L1438.46 2426.78z" fill="rgba(250, 204, 46, 1)"></path><path d="M1260.94 1034.03 a128.08 128.08 0 1 0 256.16 0 a128.08 128.08 0 1 0 -256.16 0z" stroke="rgba(250, 204, 46, 1)"></path><path d="M588.2 693.07L693.4 693.07L693.4 730.34L588.2 730.34z" fill="rgba(39, 177, 190, 1)"></path><path d="M581.33 789.91L695.24 789.91L695.24 903.82L581.33 903.82z" stroke="rgba(39, 177, 190, 1)"></path><path d="M1170.88 2187.44a142.38 142.38 0 1 0-81.64-272.8z" fill="rgba(250, 204, 46, 1)"></path><path d="M864.24 2084.8L881.8 2084.8L881.8 2203.85L864.24 2203.85z" fill="rgba(250, 204, 46, 1)"></path><path d="M812.62 2207.23 a141.22 141.22 0 1 0 282.44 0 a141.22 141.22 0 1 0 -282.44 0z" stroke="rgba(250, 204, 46, 1)"></path><path d="M432.79 1771.03L491.47 1771.03L491.47 1829.71L432.79 1829.71z" stroke="rgba(250, 204, 46, 1)"></path><path d="M-101.1 917.83 a142.21 142.21 0 1 0 284.42 0 a142.21 142.21 0 1 0 -284.42 0z" stroke="rgba(250, 204, 46, 1)"></path><path d="M474.69 2543.93 a42.69 42.69 0 1 0 85.38 0 a42.69 42.69 0 1 0 -85.38 0z" stroke="rgba(250, 204, 46, 1)"></path><path d="M419.22 164.9a0.15 0.15 0 1 0 0 0.3z" stroke="rgba(250, 204, 46, 1)"></path><path d="M1360.41 607.74 a27.23 27.23 0 1 0 54.46 0 a27.23 27.23 0 1 0 -54.46 0z" fill="rgba(250, 204, 46, 1)"></path><path d="M38.85 806.79 a93.91 93.91 0 1 0 187.82 0 a93.91 93.91 0 1 0 -187.82 0z" fill="rgba(250, 204, 46, 1)"></path><path d="M428.87 1994.06a47.19 47.19 0 1 0 81.29-47.95z" fill="rgba(39, 177, 190, 1)"></path><path d="M390.01 306.11L439.16 306.11L439.16 398.94L390.01 398.94z" stroke="rgba(250, 204, 46, 1)"></path><path d="M1355.34 2851.09 a53.14 53.14 0 1 0 106.28 0 a53.14 53.14 0 1 0 -106.28 0z" fill="rgba(250, 204, 46, 1)"></path></g><defs><mask id="SvgjsMask1025"><rect width="1440" height="3000" fill="#ffffff"></rect></mask></defs></svg>